<svg version="1.1" xmlns="http://www.w3.org/2000/svg" xmlns:xlink="http://www.w3.org/1999/xlink" width="1430" height="979"><desc>title%20Add%20Item%3A%20Sequence%20Diagram%0A%0Aactor%20%22Admin%22%20as%20admin%0A%0A%23%20UI%20Stuff%0Aparticipant%20%22%3AAppComponent%22%20as%20App%0Aparticipant%20%22%3AManageItems%22%20as%20Manage%0Aparticipant%20%22%3AAddItemsComponent%22%20as%20Add%0A%0A%0A%23%20Services%0Aparticipant%20%22%3AItemService%22%20as%20Items%0A%0A%23%20Backend%0A%0Aparticipant%20%22%3AInventoryController%22%20as%20InventoryController%0Aparticipant%20%22%3AInventoryFileDAO%22%20as%20InventoryDAO%0A%0Adatabase%20%22items.json%22%20as%20db%0A%0A%23%20Connections%0A%0A%23%20Admin%20goes%20to%20manage.%0A%0Aactivate%20App%0Aadmin-%3EApp%3A%20Navigate%20to%20Manage%20Items%20Page%0Adeactivateafter%20App%0A%0A%0A%0A%0A%23%20Add%20and%20supply%20details%0A%0A%0Aactivate%20Manage%0Aactivate%20Add%0Aadmin-%3EManage%3A%20Click%20Add%20Item%20%0A%0Aadmin-%3EAdd%3AEnter%20name%2C%20price%2C%20quantity%3B%20submit%0A%0A%23%20Submit%0AAdd-%3EManage%3A%20emit(form.value)%0A%0Adeactivateafter%20Add%0A%0AManage-%3EItems%3A%20addItem(item)%0A%0A%23%20Http%0A%0Aactivate%20InventoryController%0A%0AItems-%3EInventoryController%3APOST%20%2Finventory%2Fitem%5Cn%20%20%20%20-%20Item%20%7Bname%2C%20price%2C%20quantity%7D%0A%0A%23%20Internals%0A%0Aactivate%20InventoryDAO%0A%0AInventoryController-%3EInventoryDAO%3A%20addItem(item)%0AInventoryDAO-%3EInventoryDAO%3A%20items.put(id%2C%20item)%0AInventoryDAO-%3Edb%3A%20save()%0A%0A%23%20Send%20back%20result.%0AInventoryDAO-%3EInventoryController%3A%20%2F%2Freturn%20item%2F%2F%0A%0Adeactivateafter%20InventoryDAO%0A%0AInventoryController--%3EItems%3A%2F%2FHTTP%20201%2F%2F%5Cn%20%20%20%20Body%3A%20item%0Adeactivateafter%20InventoryController%0A%23%20%0AItems--%3EManage%3A%2F%2Freturn%20Observable%3CItem%3E%2F%2F%0A%0AManage-%3EManage%3A%20Push%20to%20Items%20List%0A%0AManage-%3Eadmin%3A%20Show%20added%20item%0A%0Adeactivateafter%20Manage%0A</desc><defs/><g><g/><g/><g/><g/><g/><g/><g/><g/><g/><g/><g/><g/><g/><g/><g/><g/><g/><g/><g/><g/><g/><g/><g/><g/><g><rect fill="white" stroke="none" x="0" y="0" width="1430" height="979"/></g><g><text fill="black" stroke="none" font-family="sans-serif" font-size="16.5pt" font-style="normal" font-weight="normal" text-decoration="normal" x="571.1728487219897" y="26.3876361" text-anchor="start" dominant-baseline="alphabetic" xml:space="preserve">Add Item: Sequence Diagram</text></g><g/><g><path fill="none" stroke="black" paint-order="fill stroke markers" d=" M 29.572535804492187 138.798965886 L 29.572535804492187 979.684969606" stroke-miterlimit="10" stroke-width="1.4659797833333332" stroke-dasharray="13.532121076923076,5.863919133333333"/><path fill="none" stroke="black" paint-order="fill stroke markers" d=" M 294.71421581334636 138.798965886 L 294.71421581334636 979.684969606" stroke-miterlimit="10" stroke-width="1.4659797833333332" stroke-dasharray="13.532121076923076,5.863919133333333"/><path fill="none" stroke="black" paint-order="fill stroke markers" d=" M 449.90025278697135 138.798965886 L 449.90025278697135 979.684969606" stroke-miterlimit="10" stroke-width="1.4659797833333332" stroke-dasharray="13.532121076923076,5.863919133333333"/><path fill="none" stroke="black" paint-order="fill stroke markers" d=" M 623.0068296165534 138.798965886 L 623.0068296165534 979.684969606" stroke-miterlimit="10" stroke-width="1.4659797833333332" stroke-dasharray="13.532121076923076,5.863919133333333"/><path fill="none" stroke="black" paint-order="fill stroke markers" d=" M 790.4011566902761 138.798965886 L 790.4011566902761 979.684969606" stroke-miterlimit="10" stroke-width="1.4659797833333332" stroke-dasharray="13.532121076923076,5.863919133333333"/><path fill="none" stroke="black" paint-order="fill stroke markers" d=" M 1049.8162741991302 138.798965886 L 1049.8162741991302 979.684969606" stroke-miterlimit="10" stroke-width="1.4659797833333332" stroke-dasharray="13.532121076923076,5.863919133333333"/><path fill="none" stroke="black" paint-order="fill stroke markers" d=" M 1229.426047745021 138.798965886 L 1229.426047745021 979.684969606" stroke-miterlimit="10" stroke-width="1.4659797833333332" stroke-dasharray="13.532121076923076,5.863919133333333"/><path fill="none" stroke="black" paint-order="fill stroke markers" d=" M 1386.9659133189793 138.798965886 L 1386.9659133189793 979.684969606" stroke-miterlimit="10" stroke-width="1.4659797833333332" stroke-dasharray="13.532121076923076,5.863919133333333"/></g><g><g><path fill="white" stroke="black" paint-order="fill stroke markers" d=" M 39.59983752249219 64.385832084 A 10.027301717999999 10.027301717999999 0 1 1 39.59983250884174 64.37580478395321 M 29.572535804492187 74.41313380199999 L 29.572535804492187 95.87507782999998 M 16.90647047649219 82.153507058 L 42.238601132492185 82.153507058 M 29.572535804492187 95.87507782999998 L 16.90647047649219 115.92968126599999 M 29.572535804492187 95.87507782999998 L 42.238601132492185 115.92968126599999" stroke-miterlimit="10" stroke-width="2.990598758" stroke-dasharray=""/></g><g><text fill="black" stroke="none" font-family="sans-serif" font-size="11pt" font-style="normal" font-weight="normal" text-decoration="normal" x="8.7958787" y="133.521438666" text-anchor="start" dominant-baseline="alphabetic" xml:space="preserve">Admin</text></g><path fill="none" stroke="none"/><g><path fill="white" stroke="black" paint-order="fill stroke markers" d=" M 222.65293875846743 91.47713848000001 L 366.77549286822523 91.47713848000001 L 366.77549286822523 138.79896588600002 L 222.65293875846743 138.79896588600002 L 222.65293875846743 91.47713848000001 Z" stroke-miterlimit="10" stroke-width="2.814681184" stroke-dasharray=""/></g><g><text fill="black" stroke="none" font-family="sans-serif" font-size="11pt" font-style="normal" font-weight="normal" text-decoration="normal" x="241.73999553746745" y="121.20720848599998" text-anchor="start" dominant-baseline="alphabetic" xml:space="preserve">:AppComponent</text></g><path fill="none" stroke="none"/><g><path fill="white" stroke="black" paint-order="fill stroke markers" d=" M 384.36725026822523 91.47713848000001 L 515.4332553057175 91.47713848000001 L 515.4332553057175 138.79896588600002 L 384.36725026822523 138.79896588600002 L 384.36725026822523 91.47713848000001 Z" stroke-miterlimit="10" stroke-width="2.814681184" stroke-dasharray=""/></g><g><text fill="black" stroke="none" font-family="sans-serif" font-size="11pt" font-style="normal" font-weight="normal" text-decoration="normal" x="403.45430704722526" y="121.20720848599998" text-anchor="start" dominant-baseline="alphabetic" xml:space="preserve">:ManageItems</text></g><path fill="none" stroke="none"/><g><path fill="white" stroke="black" paint-order="fill stroke markers" d=" M 533.0250127057175 91.47713848000001 L 712.9886465273894 91.47713848000001 L 712.9886465273894 138.79896588600002 L 533.0250127057175 138.79896588600002 L 533.0250127057175 91.47713848000001 Z" stroke-miterlimit="10" stroke-width="2.814681184" stroke-dasharray=""/></g><g><text fill="black" stroke="none" font-family="sans-serif" font-size="11pt" font-style="normal" font-weight="normal" text-decoration="normal" x="552.1120694847175" y="121.20720848599998" text-anchor="start" dominant-baseline="alphabetic" xml:space="preserve">:AddItemsComponent</text></g><path fill="none" stroke="none"/><g><path fill="white" stroke="black" paint-order="fill stroke markers" d=" M 730.5804039273894 91.47713848000001 L 850.2219094531629 91.47713848000001 L 850.2219094531629 138.79896588600002 L 730.5804039273894 138.79896588600002 L 730.5804039273894 91.47713848000001 Z" stroke-miterlimit="10" stroke-width="2.814681184" stroke-dasharray=""/></g><g><text fill="black" stroke="none" font-family="sans-serif" font-size="11pt" font-style="normal" font-weight="normal" text-decoration="normal" x="749.6674607063894" y="121.20720848599998" text-anchor="start" dominant-baseline="alphabetic" xml:space="preserve">:ItemService</text></g><path fill="none" stroke="none"/><g><path fill="white" stroke="black" paint-order="fill stroke markers" d=" M 966.7671889167123 91.47713848000001 L 1132.8653594815482 91.47713848000001 L 1132.8653594815482 138.79896588600002 L 966.7671889167123 138.79896588600002 L 966.7671889167123 91.47713848000001 Z" stroke-miterlimit="10" stroke-width="2.814681184" stroke-dasharray=""/></g><g><text fill="black" stroke="none" font-family="sans-serif" font-size="11pt" font-style="normal" font-weight="normal" text-decoration="normal" x="985.8542456957123" y="121.20720848599998" text-anchor="start" dominant-baseline="alphabetic" xml:space="preserve">:InventoryController</text></g><path fill="none" stroke="none"/><g><path fill="white" stroke="black" paint-order="fill stroke markers" d=" M 1150.4571168815482 91.47713848000001 L 1308.3949786084936 91.47713848000001 L 1308.3949786084936 138.79896588600002 L 1150.4571168815482 138.79896588600002 L 1150.4571168815482 91.47713848000001 Z" stroke-miterlimit="10" stroke-width="2.814681184" stroke-dasharray=""/></g><g><text fill="black" stroke="none" font-family="sans-serif" font-size="11pt" font-style="normal" font-weight="normal" text-decoration="normal" x="1169.5441736605483" y="121.20720848599998" text-anchor="start" dominant-baseline="alphabetic" xml:space="preserve">:InventoryFileDAO</text></g><g><path fill="white" stroke="black" paint-order="fill stroke markers" d=" M 1361.2819475149793 104.31912138199999 L 1361.2819475149793 67.37643084199999 L 1412.6498791229794 67.37643084199999 L 1412.6498791229794 104.31912138199999" stroke-miterlimit="10" stroke-width="2.990598758" stroke-dasharray=""/><path fill="white" stroke="black" paint-order="fill stroke markers" d=" M 1412.6498791229794 66.0922325518 L 1412.6485949353907 66.20833621555636 L 1412.6447425010426 66.3244282690431 L 1412.6383222051754 66.4404971031516 L 1412.629334689813 66.5565311110952 L 1412.6177808536997 66.67251868956978 L 1412.6036618522094 66.78844823991415 L 1412.5869790972306 66.9043081692699 L 1412.5677342570248 67.0200868917406 L 1412.5459292560597 67.13577282955055 L 1412.5215662748178 67.25135441420231 L 1412.4946477495764 67.36682008763378 L 1412.4651763721658 67.48215830337381 L 1412.4331550896995 67.59735752769696 L 1412.3985871042785 67.71240624077679 L 1412.3614758726728 67.82729293783784 L 1412.3218251059748 67.94200613030618 L 1412.2796387692279 68.05653434695814 L 1412.2349210810305 68.1708661350675 L 1412.1876765131144 68.28499006155073 L 1412.137909789897 68.39889471411026 L 1412.0856258880092 68.51256870237577 L 1412.0308300357974 68.62600065904317 L 1411.9735277128013 68.73917924101131 L 1411.9137246492055 68.85209313051632 L 1411.8514268252663 68.96473103626333 L 1411.7866404707145 69.07708169455563 L 1411.7193720641312 69.18913387042103 L 1411.6496283323015 69.3008763587353 L 1411.57741624954 69.41229798534273 L 1411.5027430369948 69.52338760817354 L 1411.4256161619253 69.63413411835798 L 1411.3460433369544 69.74452644133734 L 1411.2640325192986 69.85455353797133 L 1411.179591909971 69.96420440564195 L 1411.0927299529621 70.07346807935382 L 1411.0034553343955 70.18233363283062 L 1410.911776981659 70.29079017960771 L 1410.8177040625105 70.39882687412083 L 1410.7212459841644 70.50643291279052 L 1410.6224123923478 70.6135975351026 L 1410.5212131703374 70.72031002468414 L 1410.4176584379713 70.82655971037511 L 1410.3117585506363 70.93233596729549 L 1410.203524098233 71.03762821790771 L 1410.0929659041165 71.14242593307448 L 1409.9800950240137 71.2467186331116 L 1409.8649227449189 71.35049588883598 L 1409.747460583964 71.45374732260854 L 1409.6277202872673 71.55646260937192 L 1409.5057138287584 71.65863147768304 L 1409.3814534089815 71.76024371074024 L 1409.2549514538755 71.86128914740488 L 1409.1262206135298 71.96175768321748 L 1408.9952737609217 72.0616392714082 L 1408.8621239906272 72.16092392390144 L 1408.726784617512 72.25960171231469 L 1408.5892691754013 72.35766276895136 L 1408.4495914157242 72.45509728778748 L 1408.3077653061405 72.55189552545237 L 1408.1638050291428 72.64804780220294 L 1408.017724980639 72.74354450289161 L 1407.8695397685121 72.83837607792793 L 1407.71926421116 72.93253304423341 L 1407.566913336013 73.02600598618986 L 1407.4125023780316 73.118785556581 L 1407.2560467781834 73.21086247752712 L 1407.0975621818973 73.30222754141282 L 1406.9370644375015 73.39287161180788 L 1406.7745695946362 73.48278562438078 L 1406.6100939026508 73.5719605878052 L 1406.443653808977 73.66038758465909 L 1406.2752659574853 73.74805777231649 L 1406.1049471868212 73.83496238383165 L 1405.9327145287193 73.92109272881588 L 1405.758585206302 74.00644019430642 L 1405.5825766323564 74.09099624562788 L 1405.4047064075935 74.17475242724555 L 1405.2249923188874 74.2577003636111 L 1405.043452337497 74.33983176 L 1404.8601046172694 74.42113840334106 L 1404.6749674928235 74.50161216303769 L 1404.488059477718 74.58124499178099 L 1404.2993992625982 74.66002892635444 L 1404.1090057133288 74.73795608843025 L 1403.9168978691055 74.81501868535715 L 1403.7230949405532 74.89120901093965 L 1403.5276163078029 74.9665194462087 L 1403.3304815185552 75.0409424601835 L 1403.1317102861244 75.11447061062472 L 1402.9313224874686 75.18709654477856 L 1402.7293381612003 75.25881300011211 L 1402.5257775055838 75.32961280503964 L 1402.3206608765154 75.39948887963963 L 1402.1140087854867 75.46843423636287 L 1401.9058418975349 75.53644198073111 L 1401.6961810291748 75.60350531202661 L 1401.4850471463192 75.66961752397214 L 1401.27246136218 75.73477200540155 L 1401.0584449351584 75.79896224092104 L 1400.843019266719 75.86218181156053 L 1400.626205899249 75.92442439541566 L 1400.4080265139046 75.98568376827987 L 1400.1885029284424 76.04595380426694 L 1399.967657095038 76.10522847642352 L 1399.745511098091 76.16350185733178 L 1399.5220871520155 76.22076811970217 L 1399.29740759902 76.27702153695618 L 1399.0714949068729 76.33225648379899 L 1398.844371666655 76.38646743678191 L 1398.6160605905009 76.43964897485485 L 1398.386584509328 76.49179577990829 L 1398.1559663705534 76.54290263730519 L 1397.9242292357987 76.59296443640241 L 1397.691396278584 76.64197617106174 L 1397.4574907820115 76.68993294015058 L 1397.2225361364356 76.73682994803197 L 1396.986555837125 76.7826625050442 L 1396.749573481913 76.82742602796976 L 1396.511612768838 76.87111604049369 L 1396.2726974937725 76.91372817365111 L 1396.032851548045 76.95525816626423 L 1395.7920989160507 76.99570186536839 L 1395.5504636728517 77.03505522662739 L 1395.307969981771 77.0733143147379 L 1395.0646420919759 77.11047530382298 L 1394.8205043360524 77.1465344778147 L 1394.5755811275724 77.1814882308257 L 1394.329896958653 77.21533306750982 L 1394.0834763975065 77.24806560341159 L 1393.8363440859832 77.2796825653047 L 1393.5885247371086 77.31018079151929 L 1393.340043132611 77.33955723225817 L 1393.090924120444 77.36780894990176 L 1392.8411926123008 77.3949331193018 L 1392.5908735811242 77.42092702806399 L 1392.3399920586091 77.44578807681908 L 1392.0885731326982 77.46951377948295 L 1391.8366419450751 77.49210176350509 L 1391.584223688648 77.51354977010593 L 1391.3313436050328 77.53385565450264 L 1391.0780269820266 77.55301738612376 L 1390.8242991510808 77.57103304881205 L 1390.5701854847673 77.58790084101629 L 1390.3157113942407 77.6036190759713 L 1390.0609023266982 77.61818618186668 L 1389.8057837628337 77.63160070200398 L 1389.5503812142917 77.64386129494237 L 1389.2947202211137 77.65496673463277 L 1389.0388263491864 77.66491591054046 L 1388.7827251876834 77.67370782775615 L 1388.5264423465073 77.68134160709545 L 1388.270003453729 77.68781648518677 L 1388.013434153024 77.6931318145477 L 1387.7567601011087 77.69728706364975 L 1387.500006965174 77.70028181697145 L 1387.24320042032 77.70211577504 L 1386.9863661469867 77.70278875446107 L 1386.7295298283875 77.70230068793732 L 1386.4727171479408 77.70065162427498 L 1386.2159537866999 77.69784172837903 L 1385.9592654207872 77.69387128123674 L 1385.7026777188257 77.68874067988952 L 1385.4462163393714 77.68245043739319 L 1385.1899069283488 77.6750011827668 L 1384.933775116485 77.66639366092959 L 1384.6778465167483 77.65662873262656 L 1384.4221467217849 77.64570737434241 L 1384.1667013013614 77.63363067820387 L 1383.911535799807 77.6203998518705 L 1383.6566757334595 77.60601621841388 L 1383.4021465881126 77.59048121618541 L 1383.147973816469 77.57379639867233 L 1382.894182835594 77.5559634343425 L 1382.6407990243742 77.53698410647749 L 1382.3878477209798 77.51686031299428 L 1382.13535422033 77.49559406625544 L 1381.8833437715648 77.47318749286792 L 1381.6318415755188 77.44964283347039 L 1381.3808727822022 77.42496244250918 L 1381.1304624882848 77.3991487880028 L 1380.880635734588 77.3722044512952 L 1380.6314175035782 77.3441321267976 L 1380.3828327168715 77.31493462171906 L 1380.134906232739 77.28461485578573 L 1379.8876628436226 77.25317586094897 L 1379.6411272736552 77.22062078108203 L 1379.3953241761885 77.18695287166581 L 1379.1502781313272 77.15217549946317 L 1378.9060136434716 77.11629214218235 L 1378.6625551388672 77.07930638812917 L 1378.419926963161 77.04122193584823 L 1378.178153378969 77.002042593753 L 1377.937258563448 76.96177227974506 L 1377.6972666058784 76.92041502082225 L 1377.4582015052565 76.87797495267598 L 1377.2200871678929 76.83445631927773 L 1376.9829474050227 76.78986347245454 L 1376.7468059304251 76.74420087145396 L 1376.5116863580504 76.69747308249802 L 1376.2776121996596 76.64968477832667 L 1376.0446068624742 76.60084073773052 L 1375.8126936468334 76.55094584507293 L 1375.5818957438653 76.50000508980158 L 1375.3522362331682 76.44802356594954 L 1375.1237380805017 76.39500647162588 L 1374.8964241354904 76.34095910849587 L 1374.6703171293398 76.28588688125075 L 1374.4454396725616 76.22979529706737 L 1374.2218142527145 76.1726899650574 L 1373.999463232154 76.11457659570647 L 1373.7784088457968 76.05546100030305 L 1373.5586731988974 75.99534909035746 L 1373.3402782648373 75.9342468770106 L 1373.1232458829281 75.87216047043285 L 1372.9075977562268 75.80909607921315 L 1372.6933554493667 75.74506000973807 L 1372.4805403863998 75.6800586655612 L 1372.2691738486549 75.61409854676278 L 1372.05927697261 75.54718624929971 L 1371.8508707477772 75.47932846434601 L 1371.643976014606 75.4105319776236 L 1371.438613462397 75.34080366872384 L 1371.2348036272342 75.2701505104195 L 1371.0325668899313 75.19857956796754 L 1370.8319234739938 75.12609799840256 L 1370.6328934435958 75.05271304982111 L 1370.4354967015743 74.9784320606569 L 1370.2397529874395 74.90326245894695 L 1370.0456818753992 74.82721176158879 L 1369.8533027724034 74.75028757358876 L 1369.6626349162016 74.67249758730159 L 1369.4736973734207 74.59384958166106 L 1369.2865090376577 74.51435142140221 L 1369.10108862759 74.4340110562748 L 1368.9174546851038 74.3528365202484 L 1368.735625573441 74.27083593070897 L 1368.5556194753608 74.18801748764713 L 1368.3774543913232 74.10438947283818 L 1368.201148137688 74.01996024901389 L 1368.0267183449337 73.9347382590263 L 1367.854182455894 73.84873202500339 L 1367.6835577240145 73.76195014749688 L 1367.5148612116257 73.67440130462221 L 1367.3481097882386 73.58609425119072 L 1367.1833201288564 73.49703781783415 L 1367.020508712308 73.40724091012163 L 1366.8596918195988 73.3167125076691 L 1366.7008855322845 73.22546166324135 L 1366.5441057308615 73.1334975018468 L 1366.3893680931792 73.04082921982494 L 1366.2366880928723 72.94746608392677 L 1366.0860809978137 72.85341743038806 L 1365.9375618685876 72.75869266399579 L 1365.7911455569829 72.66330125714767 L 1365.6468467045088 72.56725274890488 L 1365.5046797409302 72.4705567440382 L 1365.3646588828253 72.37322291206758 L 1365.226798132163 72.27526098629505 L 1365.0911112749034 72.17668076283158 L 1364.9576118796192 72.07749209961737 L 1364.826313296139 71.97770491543608 L 1364.6972286542114 71.87732918892296 L 1364.570370862193 71.77637495756703 L 1364.4457526057574 71.6748523167073 L 1364.3233863466264 71.57277141852325 L 1364.203284321324 71.47014247101961 L 1364.0854585399525 71.36697573700563 L 1363.969920784992 71.26328153306875 L 1363.8566826101214 71.15907022854292 L 1363.7457553390643 71.05435224447177 L 1363.637150064455 70.94913805256644 L 1363.5308776467307 70.84343817415844 L 1363.4269487130443 70.73726317914753 L 1363.325373656203 70.63062368494474 L 1363.2261626336274 70.5235303554106 L 1363.1293255663375 70.41599389978884 L 1363.034872137959 70.3080250716354 L 1362.942811793756 70.19963466774314 L 1362.8531537396864 70.0908335270621 L 1362.7659069414808 69.98163252961568 L 1362.6810801237464 69.87204259541265 L 1362.5986817690944 69.76207468335508 L 1362.5187201172912 69.65173979014256 L 1362.4412031644356 69.54104894917243 L 1362.3661386621584 69.43001322943658 L 1362.293534116847 69.31864373441445 L 1362.2233967888956 69.20695160096271 L 1362.1557336919784 69.09494799820165 L 1362.090551592349 68.98264412639821 L 1362.0278570081628 68.87005121584596 L 1361.967656208826 68.75718052574217 L 1361.9099552143684 68.64404334306175 L 1361.8547597948416 68.53065098142872 L 1361.802075469741 68.41701477998473 L 1361.7519075074556 68.30314610225523 L 1361.7042609247399 68.1890563350131 L 1361.6591404862122 68.07475688714001 L 1361.6165507038788 67.96025918848548 L 1361.5764958366826 67.84557468872397 L 1361.538979890077 67.73071485620987 L 1361.504006615625 67.61569117683074 L 1361.4715795106254 67.50051515285864 L 1361.4417018177612 67.3851983018 L 1361.4143765247773 67.26975215524384 L 1361.3896063641796 67.15418825770858 L 1361.367393812964 67.0385181654877 L 1361.347741092367 66.92275344549402 L 1361.3306501676443 66.80690567410306 L 1361.316122747874 66.69098643599544 L 1361.304160285786 66.57500732299836 L 1361.2947639776166 66.45897993292647 L 1361.287934762989 66.34291586842208 L 1361.2836733248187 66.22682673579494 L 1361.281980089246 66.11072414386156 L 1361.2828552255928 65.99461970278438 L 1361.2862986463467 65.87852502291076 L 1361.2923100071682 65.76245171361194 L 1361.3008887069263 65.64641138212212 L 1361.3120338877582 65.53041563237775 L 1361.325744435155 65.41447606385715 L 1361.3420189780734 65.29860427042055 L 1361.3608558890728 65.18281183915073 L 1361.3822532844779 65.06711034919432 L 1361.4062090245666 64.95151137060391 L 1361.4327207137849 64.83602646318103 L 1361.4617857009864 64.72066717532017 L 1361.4934010796962 64.60544504285399 L 1361.5275636884028 64.49037158789972 L 1361.564270110874 64.37545831770696 L 1361.6035166764982 64.26071672350696 L 1361.6452994606511 64.14615827936355 L 1361.6896142850896 64.03179444102564 L 1361.7364567183681 63.917636644781794 L 1361.7858220762819 63.80369630631649 L 1361.8377054223367 63.68998481956863 L 1361.8921015682413 63.57651355559212 L 1361.949005074426 63.46329386141881 L 1362.0084102505878 63.35033705892376 L 1362.0703111562584 63.237654443693096 L 1362.1347016013992 63.125257283894435 L 1362.2015751470192 63.0131568191501 L 1362.2709251058195 62.90136425941313 L 1362.342744542862 62.78989078384635 L 1362.417026276263 62.67874753970443 L 1362.4937628779107 62.56794564121916 L 1362.572946674209 62.45749616848805 L 1362.6545697468448 62.34741016636633 L 1362.738623933578 62.23769864336248 L 1362.8251008290608 62.12837257053737 L 1362.913991785675 62.01944288040719 L 1363.0052879143996 61.91092046585016 L 1363.0989800856973 61.80281617901732 L 1363.1950589304295 61.69514083024725 L 1363.2935148407914 61.587905186985104 L 1363.3943379712744 61.48111997270585 L 1363.497518239649 61.37479586584192 L 1363.6030453279748 61.2689434987154 L 1363.7109086836306 61.16357345647479 L 1363.8210975203708 61.05869627603652 L 1363.9336008194036 60.954322445031224 L 1364.0484073304929 60.85046240075503 L 1364.165505573083 60.74712652912581 L 1364.2848838374475 60.644325163644616 L 1364.4065301858595 60.54206858436233 L 1364.5304324537854 60.440367016851674 L 1364.6565782511013 60.339230631184634 L 1364.7849549633333 60.2386695409155 L 1364.9155497529166 60.13869380206951 L 1365.0483495604815 60.03931341213722 L 1365.1833411061575 59.94053830907482 L 1365.3205108909026 59.84237837031029 L 1365.459845197853 59.74484341175572 L 1365.6013300936936 59.64794318682568 L 1365.744951430053 59.55168738546191 L 1365.8906948449173 59.45608563316434 L 1366.0385457640664 59.361147490028536 L 1366.1884894025316 59.266882449789684 L 1366.3405107660737 59.173299938873264 L 1366.4945946526836 59.08040931545237 L 1366.6507256541008 58.988219868511955 L 1366.808888157355 58.89674081691987 L 1366.969066346328 58.805981308505054 L 1367.1312442033343 58.715950419142715 L 1367.2954055107234 58.62665715184676 L 1367.4615338525011 58.5381104358695 L 1367.629612615972 58.450319125808754 L 1367.7996249933997 58.36329200072237 L 1367.971553983688 58.277037763250334 L 1368.1453823940813 58.19156503874451 L 1368.3210928418832 58.10688237440612 L 1368.4986677561958 58.022998238431036 L 1368.6780893796752 57.93992101916295 L 1368.8593397703087 57.85765902425456 L 1369.0424008032085 57.776220479836795 L 1369.2272541724235 57.695613529696246 L 1369.413881392771 57.61584623446075 L 1369.6022638016843 57.53692657079335 L 1369.7923825610799 57.45886243059466 L 1369.98421865924 57.38166162021363 L 1370.1777529127148 57.30533185966698 L 1370.3729659682401 57.229880781867145 L 1370.5698383046729 57.155315931859036 L 1370.768350234944 57.08164476606552 L 1370.9684819080255 57.008874651541774 L 1371.170213310917 56.93701286523862 L 1371.3735242706462 56.866066593274795 L 1371.5783944562866 56.79604293021838 L 1371.7848033809903 56.726948878377314 L 1371.992730404037 56.658791347099225 L 1372.2021547328977 56.591577152080426 L 1372.4130554253138 56.525313014684414 L 1372.625411391392 56.4600055612697 L 1372.8392013957125 56.39566132252722 L 1373.054404059453 56.332286732827214 L 1373.2709978625267 56.26988812957585 L 1373.4889611457336 56.20847175258143 L 1373.7082721129273 56.14804374343051 L 1373.9289088331934 56.08861014487363 L 1374.150849243044 56.03017690022111 L 1374.3740711486228 55.972749852748734 L 1374.5985522279257 55.91633474511339 L 1374.8242700330316 55.86093721877882 L 1375.051201992348 55.80656281345151 L 1375.2793254128683 55.753216966526665 L 1375.5086174824403 55.70090501254454 L 1375.7390552720483 55.649632182656916 L 1375.9706157381052 55.59940360410408 L 1376.2032757247575 55.550224299702016 L 1376.4370119662005 55.50209918734018 L 1376.6718010890047 55.45503307948971 L 1376.9076196144533 55.40903068272217 L 1377.1444439608908 55.3640965972389 L 1377.3822504460793 55.320235316411 L 1377.621015289569 55.27745122633 L 1377.860714615074 55.23574860536927 L 1378.1013244528617 55.19513162375613 L 1378.3428207421491 55.15560434315492 L 1378.5851793335082 55.11717071626074 L 1378.828375991282 55.07983458640426 L 1379.0723863960072 55.04359968716735 L 1379.3171861468468 55.00846964200974 L 1379.5627507640297 54.974447963906684 L 1379.809055691299 54.941538054997615 L 1380.0560762983669 54.90974320624601 L 1380.3037878833786 54.87906659711026 L 1380.5521656753822 54.849511295225696 L 1380.8011848368053 54.82108025609789 L 1381.0508204659395 54.79377632280706 L 1381.3010475994297 54.76760222572378 L 1381.551841214771 54.742560582235946 L 1381.8031762328112 54.71865389648704 L 1382.0550275202577 54.695884559125716 L 1382.3073698921917 54.674254847066734 L 1382.5601781145863 54.65376692326327 L 1382.8134269068298 54.63442283649064 L 1383.0670909442542 54.616224521141405 L 1383.3211448606671 54.599173797031916 L 1383.5755632508885 54.583272369220396 L 1383.8303206732915 54.56852182783636 L 1384.0853916523458 54.55492364792166 L 1384.3407506811666 54.54247918928296 L 1384.5963722240635 54.53118969635575 L 1384.8522307190951 54.52105629807991 L 1385.1083005806256 54.51208000778683 L 1385.3645562018817 54.504261723098054 L 1385.6209719575152 54.497602225835536 L 1385.877522206164 54.49210218194346 L 1386.134181293017 54.487762141421626 L 1386.3909235523797 54.484582538270466 L 1386.6477233102398 54.482563690447655 L 1386.9045548868355 54.481705799836284 L 1387.1613925992235 54.4820089522247 L 1387.4182107638462 54.48347311729792 L 1387.6749836991014 54.486098148640664 L 1387.9316857279096 54.48988378375197 L 1388.1882911802813 54.49482964407149 L 1388.4447743958858 54.50093523501731 L 1388.7011097266152 54.50819994603543 L 1388.9572715391496 54.5166230506608 L 1389.2132342175214 54.52620370658997 L 1389.4689721656762 54.53694095576534 L 1389.7244598100322 54.54883372447093 L 1389.9796716020378 54.56188082343979 L 1390.2345820207265 54.5760809479729 L 1390.489165575269 54.591432678069616 L 1390.743396807522 54.607934478569746 L 1390.9972502945739 54.62558469930698 L 1391.2507006512876 54.644381575273954 L 1391.503722532839 54.66432322679874 L 1391.7562906372502 54.685407659732796 L 1392.0083797079217 54.70763276565041 L 1392.2599645361563 54.7309963220595 L 1392.511019963681 54.75549599262389 L 1392.761520885162 54.78112932739696 L 1393.011442250716 54.80789376306658 L 1393.260759068415 54.83578662321149 L 1393.5094464067845 54.86480511856891 L 1393.7574793972983 54.89494634731351 L 1394.0048332368638 54.9262072953475 L 1394.2514831903031 54.95858483660216 L 1394.4974045928268 54.99207573335032 L 1394.7425728524993 55.02667663653023 L 1394.986963452699 55.0623840860804 L 1395.2305519545694 55.09919451128564 L 1395.4733139994635 55.13710423113409 L 1395.715225311379 55.17610945468536 L 1395.9562616993862 55.2162062814496 L 1396.1963990600475 55.25739070177756 L 1396.4356133798267 55.29965859726151 L 1396.6738807374911 55.34300574114714 L 1396.9111773065038 55.38742779875617 L 1397.1474793574052 55.43292032791987 L 1397.3827632601874 55.47947877942322 L 1397.6170054866564 55.527098497459875 L 1397.8501826127842 55.57577472009772 L 1398.082271321053 55.62550257975505 L 1398.3132484027851 55.67627710368733 L 1398.543090760465 55.728093214484495 L 1398.7717754100483 55.78094573057864 L 1398.9992794832606 55.83482936676219 L 1399.2255802298844 55.88973873471644 L 1399.4506550200333 55.945668343550345 L 1399.674481346416 56.002612600349636 L 1399.8970368265866 56.06056581073608 L 1400.1182992051822 56.11952217943694 L 1400.3382463561495 56.179475810864474 L 1400.556856284957 56.24042070970549 L 1400.774107130793 56.30235078152091 L 1400.989977168755 56.36525983335514 L 1401.2044448120187 56.42914157435544 L 1401.4174886139983 56.49398961640093 L 1401.6290872704915 56.55979747474145 L 1401.8392196218088 56.62655856864601 L 1402.0478646548902 56.69426622206085 L 1402.2550015054062 56.76291366427705 L 1402.4606094598446 56.83249403060759 L 1402.6646679575808 56.903000363073836 L 1402.8671565929355 56.97442561110128 L 1403.068055117214 57.04676263222465 L 1403.2673434407309 57.120004192802114 L 1403.4650016348203 57.19414296873864 L 1403.661009933827 57.26917154621842 L 1403.855348737085 57.34508242244624 L 1404.0479986108755 57.421868006397716 L 1404.238940290372 57.49952061957846 L 1404.4281546815655 57.57803249679186 L 1404.6156228631744 57.657395786915615 L 1404.801326088537 57.73760255368685 L 1404.9852457874854 57.81864477649573 L 1405.1673635682032 57.9005143511875 L 1405.3476612190636 57.983203090872934 L 1405.5261207104522 58.06670272674695 L 1405.7027241965686 58.15100490891555 L 1405.877454017211 58.23610120723078 L 1406.0502926995432 58.32198311213371 L 1406.221222959841 58.40864203550541 L 1406.3902277052207 58.49606931152578 L 1406.5572900353486 58.58425619754006 L 1406.7223932441311 58.67319387493313 L 1406.8855208213845 58.76287345001139 L 1407.0466564544874 58.853285954892044 L 1407.2057840300108 58.944422348399954 L 1407.3628876353296 59.03627351697172 L 1407.517951560214 59.12883027556701 L 1407.670960298401 59.222083368587114 L 1407.8218985491442 59.31602347080043 L 1407.9707512187442 59.41064118827504 L 1408.1175034220585 59.50592705931801 L 1408.2621404839886 59.60187155542167 L 1408.4046479409487 59.698465082216345 L 1408.5450115423125 59.79569798042986 L 1408.6832172518364 59.89356052685341 L 1408.8192512490648 59.99204293531392 L 1408.9530999307112 60.0911353576526 L 1409.0847499120189 60.1908278847098 L 1409.2141880280997 60.29111054731588 L 1409.3414013352497 60.39197331728817 L 1409.4663771122443 60.4934061084337 L 1409.58910286161 60.5953987775579 L 1409.709566310874 60.69794112547884 L 1409.8277554137915 60.80102289804719 L 1409.9436583515512 60.90463378717158 L 1410.0572635339558 61.00876343184945 L 1410.1685596005814 61.113401419203115 L 1410.2775354219145 61.218537285521016 L 1410.3841801004635 61.32416051730415 L 1410.4884829718496 61.43026055231736 L 1410.5904336058725 61.53682678064554 L 1410.6900218075536 61.643848545754686 L 1410.787237618156 61.75131514555746 L 1410.8820713161795 61.85921583348345 L 1410.9745134183333 61.96753981955375 L 1411.0645546804842 62.07627627146005 L 1411.152186098581 62.18541431564777 L 1411.2373989095554 62.29494303840343 L 1411.3201845921967 62.404851486946036 L 1411.4005348680057 62.515128670522316 L 1411.478441702022 62.62576356150581 L 1411.553897303627 62.736745096499625 L 1411.6268941273236 62.84806217744274 L 1411.69742487349 62.959703672719826 L 1411.7654824891106 63.07165841827438 L 1411.8310601684802 63.18391521872516 L 1411.894151353886 63.29646284848565 L 1411.9547497362616 63.409290052886675 L 1412.0128492558194 63.52238554930181 L 1412.068444102656 63.63573802827567 L 1412.121528717333 63.7493361546548 L 1412.1720977914329 63.86316856872124 L 1412.2201462680907 63.97722388732845 L 1412.2656693424988 64.09149070503959 L 1412.3086624623877 64.20595759526815 L 1412.3491213284808 64.32061311142046 L 1412.387041894926 64.43544578804045 L 1412.4224203696974 64.55044414195618 L 1412.4552532149776 64.66559667342807 L 1412.4855371475094 64.78089186729893 L 1412.5132691389244 64.89631819414548 L 1412.5384464160468 65.0118641114312 L 1412.56106646117 65.12751806466063 L 1412.5811270123081 65.24326848853487 L 1412.598626063423 65.35910380810796 L 1412.6135618646235 65.47501243994449 L 1412.6259329223428 65.59098279327785 L 1412.635737999485 65.70700327116936 L 1412.6429761155505 65.8230622716679 L 1412.647646546734 65.93914818897015 L 1412.6497488259959 66.05524941458111 M 1412.6498791229794 103.0349230918 L 1412.6485949353907 103.15102675555636 L 1412.6447425010426 103.2671188090431 L 1412.6383222051754 103.3831876431516 L 1412.629334689813 103.4992216510952 L 1412.6177808536997 103.61520922956979 L 1412.6036618522094 103.73113877991415 L 1412.5869790972306 103.8469987092699 L 1412.5677342570248 103.9627774317406 L 1412.5459292560597 104.07846336955055 L 1412.5215662748178 104.19404495420231 L 1412.4946477495764 104.30951062763378 L 1412.4651763721658 104.42484884337381 L 1412.4331550896995 104.54004806769696 L 1412.3985871042785 104.65509678077679 L 1412.3614758726728 104.76998347783784 L 1412.3218251059748 104.88469667030618 L 1412.2796387692279 104.99922488695815 L 1412.2349210810305 105.1135566750675 L 1412.1876765131144 105.22768060155073 L 1412.137909789897 105.34158525411026 L 1412.0856258880092 105.45525924237577 L 1412.0308300357974 105.56869119904317 L 1411.9735277128013 105.68186978101132 L 1411.9137246492055 105.79478367051632 L 1411.8514268252663 105.90742157626333 L 1411.7866404707145 106.01977223455563 L 1411.7193720641312 106.13182441042103 L 1411.6496283323015 106.2435668987353 L 1411.57741624954 106.35498852534273 L 1411.5027430369948 106.46607814817354 L 1411.4256161619253 106.57682465835798 L 1411.3460433369544 106.68721698133734 L 1411.2640325192986 106.79724407797133 L 1411.179591909971 106.90689494564195 L 1411.0927299529621 107.01615861935382 L 1411.0034553343955 107.12502417283062 L 1410.911776981659 107.23348071960771 L 1410.8177040625105 107.34151741412083 L 1410.7212459841644 107.44912345279052 L 1410.6224123923478 107.5562880751026 L 1410.5212131703374 107.66300056468414 L 1410.4176584379713 107.76925025037511 L 1410.3117585506363 107.87502650729549 L 1410.203524098233 107.98031875790771 L 1410.0929659041165 108.08511647307448 L 1409.9800950240137 108.1894091731116 L 1409.8649227449189 108.29318642883598 L 1409.747460583964 108.39643786260854 L 1409.6277202872673 108.49915314937192 L 1409.5057138287584 108.60132201768305 L 1409.3814534089815 108.70293425074024 L 1409.2549514538755 108.80397968740488 L 1409.1262206135298 108.90444822321749 L 1408.9952737609217 109.0043298114082 L 1408.8621239906272 109.10361446390144 L 1408.726784617512 109.20229225231469 L 1408.5892691754013 109.30035330895136 L 1408.4495914157242 109.39778782778748 L 1408.3077653061405 109.49458606545237 L 1408.1638050291428 109.59073834220294 L 1408.017724980639 109.68623504289161 L 1407.8695397685121 109.78106661792793 L 1407.71926421116 109.87522358423341 L 1407.566913336013 109.96869652618986 L 1407.4125023780316 110.061476096581 L 1407.2560467781834 110.15355301752712 L 1407.0975621818973 110.24491808141282 L 1406.9370644375015 110.33556215180788 L 1406.7745695946362 110.42547616438078 L 1406.6100939026508 110.5146511278052 L 1406.443653808977 110.60307812465909 L 1406.2752659574853 110.69074831231649 L 1406.1049471868212 110.77765292383165 L 1405.9327145287193 110.86378326881588 L 1405.758585206302 110.94913073430642 L 1405.5825766323564 111.03368678562788 L 1405.4047064075935 111.11744296724555 L 1405.2249923188874 111.2003909036111 L 1405.043452337497 111.2825223 L 1404.8601046172694 111.36382894334106 L 1404.6749674928235 111.44430270303769 L 1404.488059477718 111.52393553178099 L 1404.2993992625982 111.60271946635444 L 1404.1090057133288 111.68064662843025 L 1403.9168978691055 111.75770922535715 L 1403.7230949405532 111.83389955093965 L 1403.5276163078029 111.9092099862087 L 1403.3304815185552 111.9836330001835 L 1403.1317102861244 112.05716115062472 L 1402.9313224874686 112.12978708477856 L 1402.7293381612003 112.20150354011211 L 1402.5257775055838 112.27230334503965 L 1402.3206608765154 112.34217941963963 L 1402.1140087854867 112.41112477636287 L 1401.9058418975349 112.47913252073111 L 1401.6961810291748 112.54619585202661 L 1401.4850471463192 112.61230806397214 L 1401.27246136218 112.67746254540155 L 1401.0584449351584 112.74165278092104 L 1400.843019266719 112.80487235156053 L 1400.626205899249 112.86711493541566 L 1400.4080265139046 112.92837430827987 L 1400.1885029284424 112.98864434426694 L 1399.967657095038 113.04791901642352 L 1399.745511098091 113.10619239733178 L 1399.5220871520155 113.16345865970217 L 1399.29740759902 113.21971207695618 L 1399.0714949068729 113.27494702379899 L 1398.844371666655 113.32915797678191 L 1398.6160605905009 113.38233951485485 L 1398.386584509328 113.43448631990829 L 1398.1559663705534 113.48559317730519 L 1397.9242292357987 113.53565497640241 L 1397.691396278584 113.58466671106174 L 1397.4574907820115 113.63262348015058 L 1397.2225361364356 113.67952048803197 L 1396.986555837125 113.7253530450442 L 1396.749573481913 113.77011656796977 L 1396.511612768838 113.81380658049369 L 1396.2726974937725 113.85641871365111 L 1396.032851548045 113.89794870626423 L 1395.7920989160507 113.93839240536839 L 1395.5504636728517 113.9777457666274 L 1395.307969981771 114.0160048547379 L 1395.0646420919759 114.05316584382298 L 1394.8205043360524 114.0892250178147 L 1394.5755811275724 114.12417877082571 L 1394.329896958653 114.15802360750982 L 1394.0834763975065 114.19075614341159 L 1393.8363440859832 114.2223731053047 L 1393.5885247371086 114.25287133151929 L 1393.340043132611 114.28224777225817 L 1393.090924120444 114.31049948990176 L 1392.8411926123008 114.3376236593018 L 1392.5908735811242 114.36361756806399 L 1392.3399920586091 114.38847861681909 L 1392.0885731326982 114.41220431948295 L 1391.8366419450751 114.43479230350509 L 1391.584223688648 114.45624031010593 L 1391.3313436050328 114.47654619450265 L 1391.0780269820266 114.49570792612376 L 1390.8242991510808 114.51372358881206 L 1390.5701854847673 114.5305913810163 L 1390.3157113942407 114.5463096159713 L 1390.0609023266982 114.56087672186668 L 1389.8057837628337 114.57429124200398 L 1389.5503812142917 114.58655183494237 L 1389.2947202211137 114.59765727463277 L 1389.0388263491864 114.60760645054046 L 1388.7827251876834 114.61639836775615 L 1388.5264423465073 114.62403214709545 L 1388.270003453729 114.63050702518677 L 1388.013434153024 114.6358223545477 L 1387.7567601011087 114.63997760364975 L 1387.500006965174 114.64297235697146 L 1387.24320042032 114.64480631504 L 1386.9863661469867 114.64547929446107 L 1386.7295298283875 114.64499122793733 L 1386.4727171479408 114.64334216427498 L 1386.2159537866999 114.64053226837903 L 1385.9592654207872 114.63656182123674 L 1385.7026777188257 114.63143121988952 L 1385.4462163393714 114.62514097739319 L 1385.1899069283488 114.6176917227668 L 1384.933775116485 114.60908420092959 L 1384.6778465167483 114.59931927262656 L 1384.4221467217849 114.58839791434241 L 1384.1667013013614 114.57632121820387 L 1383.911535799807 114.5630903918705 L 1383.6566757334595 114.54870675841389 L 1383.4021465881126 114.53317175618541 L 1383.147973816469 114.51648693867233 L 1382.894182835594 114.4986539743425 L 1382.6407990243742 114.47967464647749 L 1382.3878477209798 114.45955085299428 L 1382.13535422033 114.43828460625544 L 1381.8833437715648 114.41587803286792 L 1381.6318415755188 114.3923333734704 L 1381.3808727822022 114.36765298250918 L 1381.1304624882848 114.3418393280028 L 1380.880635734588 114.3148949912952 L 1380.6314175035782 114.2868226667976 L 1380.3828327168715 114.25762516171906 L 1380.134906232739 114.22730539578573 L 1379.8876628436226 114.19586640094897 L 1379.6411272736552 114.16331132108203 L 1379.3953241761885 114.12964341166581 L 1379.1502781313272 114.09486603946317 L 1378.9060136434716 114.05898268218235 L 1378.6625551388672 114.02199692812917 L 1378.419926963161 113.98391247584823 L 1378.178153378969 113.944733133753 L 1377.937258563448 113.90446281974506 L 1377.6972666058784 113.86310556082225 L 1377.4582015052565 113.82066549267599 L 1377.2200871678929 113.77714685927774 L 1376.9829474050227 113.73255401245454 L 1376.7468059304251 113.68689141145396 L 1376.5116863580504 113.64016362249802 L 1376.2776121996596 113.59237531832667 L 1376.0446068624742 113.54353127773052 L 1375.8126936468334 113.49363638507293 L 1375.5818957438653 113.44269562980158 L 1375.3522362331682 113.39071410594954 L 1375.1237380805017 113.33769701162588 L 1374.8964241354904 113.28364964849587 L 1374.6703171293398 113.22857742125075 L 1374.4454396725616 113.17248583706737 L 1374.2218142527145 113.1153805050574 L 1373.999463232154 113.05726713570647 L 1373.7784088457968 112.99815154030306 L 1373.5586731988974 112.93803963035747 L 1373.3402782648373 112.8769374170106 L 1373.1232458829281 112.81485101043285 L 1372.9075977562268 112.75178661921315 L 1372.6933554493667 112.68775054973807 L 1372.4805403863998 112.6227492055612 L 1372.2691738486549 112.55678908676278 L 1372.05927697261 112.48987678929971 L 1371.8508707477772 112.42201900434601 L 1371.643976014606 112.3532225176236 L 1371.438613462397 112.28349420872384 L 1371.2348036272342 112.2128410504195 L 1371.0325668899313 112.14127010796754 L 1370.8319234739938 112.06878853840256 L 1370.6328934435958 111.99540358982111 L 1370.4354967015743 111.9211226006569 L 1370.2397529874395 111.84595299894696 L 1370.0456818753992 111.76990230158879 L 1369.8533027724034 111.69297811358877 L 1369.6626349162016 111.6151881273016 L 1369.4736973734207 111.53654012166106 L 1369.2865090376577 111.45704196140221 L 1369.10108862759 111.3767015962748 L 1368.9174546851038 111.2955270602484 L 1368.735625573441 111.21352647070897 L 1368.5556194753608 111.13070802764713 L 1368.3774543913232 111.04708001283818 L 1368.201148137688 110.96265078901389 L 1368.0267183449337 110.8774287990263 L 1367.854182455894 110.79142256500339 L 1367.6835577240145 110.70464068749688 L 1367.5148612116257 110.61709184462221 L 1367.3481097882386 110.52878479119072 L 1367.1833201288564 110.43972835783416 L 1367.020508712308 110.34993145012163 L 1366.8596918195988 110.2594030476691 L 1366.7008855322845 110.16815220324135 L 1366.5441057308615 110.0761880418468 L 1366.3893680931792 109.98351975982494 L 1366.2366880928723 109.89015662392677 L 1366.0860809978137 109.79610797038806 L 1365.9375618685876 109.70138320399579 L 1365.7911455569829 109.60599179714767 L 1365.6468467045088 109.50994328890488 L 1365.5046797409302 109.4132472840382 L 1365.3646588828253 109.31591345206758 L 1365.226798132163 109.21795152629505 L 1365.0911112749034 109.11937130283158 L 1364.9576118796192 109.02018263961737 L 1364.826313296139 108.92039545543608 L 1364.6972286542114 108.82001972892296 L 1364.570370862193 108.71906549756703 L 1364.4457526057574 108.6175428567073 L 1364.3233863466264 108.51546195852325 L 1364.203284321324 108.41283301101961 L 1364.0854585399525 108.30966627700563 L 1363.969920784992 108.20597207306875 L 1363.8566826101214 108.10176076854292 L 1363.7457553390643 107.99704278447177 L 1363.637150064455 107.89182859256644 L 1363.5308776467307 107.78612871415844 L 1363.4269487130443 107.67995371914753 L 1363.325373656203 107.57331422494474 L 1363.2261626336274 107.4662208954106 L 1363.1293255663375 107.35868443978885 L 1363.034872137959 107.2507156116354 L 1362.942811793756 107.14232520774314 L 1362.8531537396864 107.0335240670621 L 1362.7659069414808 106.92432306961568 L 1362.6810801237464 106.81473313541265 L 1362.5986817690944 106.70476522335508 L 1362.5187201172912 106.59443033014256 L 1362.4412031644356 106.48373948917244 L 1362.3661386621584 106.37270376943658 L 1362.293534116847 106.26133427441445 L 1362.2233967888956 106.14964214096271 L 1362.1557336919784 106.03763853820165 L 1362.090551592349 105.92533466639821 L 1362.0278570081628 105.81274175584596 L 1361.967656208826 105.69987106574217 L 1361.9099552143684 105.58673388306175 L 1361.8547597948416 105.47334152142872 L 1361.802075469741 105.35970531998473 L 1361.7519075074556 105.24583664225523 L 1361.7042609247399 105.1317468750131 L 1361.6591404862122 105.01744742714001 L 1361.6165507038788 104.90294972848548 L 1361.5764958366826 104.78826522872397 L 1361.538979890077 104.67340539620987 L 1361.504006615625 104.55838171683074 L 1361.4715795106254 104.44320569285864 L 1361.4417018177612 104.3278888418 L 1361.4143765247773 104.21244269524384 L 1361.3896063641796 104.09687879770858 L 1361.367393812964 103.9812087054877 L 1361.347741092367 103.86544398549403 L 1361.3306501676443 103.74959621410306 L 1361.316122747874 103.63367697599544 L 1361.304160285786 103.51769786299836 L 1361.2947639776166 103.40167047292647 L 1361.287934762989 103.28560640842208 L 1361.2836733248187 103.16951727579495 L 1361.281980089246 103.05341468386156" stroke-miterlimit="10" stroke-width="2.990598758" stroke-dasharray=""/></g><g><text fill="black" stroke="none" font-family="sans-serif" font-size="11pt" font-style="normal" font-weight="normal" text-decoration="normal" x="1353.9702239268895" y="133.521438666" text-anchor="start" dominant-baseline="alphabetic" xml:space="preserve">items.json</text></g></g><g><path fill="white" stroke="black" paint-order="fill stroke markers" d=" M 285.91833711334635 147.594844586 L 303.51009451334636 147.594844586 L 303.51009451334636 209.165995486 L 285.91833711334635 209.165995486 L 285.91833711334635 147.594844586" stroke-miterlimit="10" stroke-width="1.4659797833333332" stroke-dasharray=""/><path fill="white" stroke="black" paint-order="fill stroke markers" d=" M 441.10437408697135 196.851765306 L 458.69613148697135 196.851765306 L 458.69613148697135 930.4280488859999 L 441.10437408697135 930.4280488859999 L 441.10437408697135 196.851765306" stroke-miterlimit="10" stroke-width="1.4659797833333332" stroke-dasharray=""/><path fill="white" stroke="black" paint-order="fill stroke markers" d=" M 614.2109509165534 196.851765306 L 631.8027083165534 196.851765306 L 631.8027083165534 356.93675764599993 L 614.2109509165534 356.93675764599993 L 614.2109509165534 196.851765306" stroke-miterlimit="10" stroke-width="1.4659797833333332" stroke-dasharray=""/><path fill="white" stroke="black" paint-order="fill stroke markers" d=" M 1041.0203954991302 393.87944818599993 L 1058.6121528991303 393.87944818599993 L 1058.6121528991303 759.7880021059999 L 1041.0203954991302 759.7880021059999 L 1041.0203954991302 393.87944818599993" stroke-miterlimit="10" stroke-width="1.4659797833333332" stroke-dasharray=""/><path fill="white" stroke="black" paint-order="fill stroke markers" d=" M 1220.630169045021 460.7281263059999 L 1238.221926445021 460.7281263059999 L 1238.221926445021 692.939323986 L 1220.630169045021 692.939323986 L 1220.630169045021 460.7281263059999" stroke-miterlimit="10" stroke-width="1.4659797833333332" stroke-dasharray=""/><g><g><rect fill="white" stroke="none" x="50.389448727825524" y="173.982480686" width="214.7119754621875" height="22.86928462"/></g><text fill="black" stroke="none" font-family="sans-serif" font-size="11pt" font-style="normal" font-weight="normal" text-decoration="normal" x="53.02821233782552" y="189.81506234600002" text-anchor="start" dominant-baseline="alphabetic" xml:space="preserve">Navigate to Manage Items Page</text></g><g><path fill="none" stroke="black" paint-order="fill stroke markers" d=" M 29.572535804492187 196.851765306 L 271.43445685401304 196.851765306" stroke-miterlimit="10" stroke-width="1.4659797833333332" stroke-dasharray=""/><g transform="translate(285.91833711334635,196.851765306) translate(-285.91833711334635,-196.851765306)"><path fill="black" stroke="none" paint-order="stroke fill markers" d=" M 271.258539280013 189.52186638933333 L 285.91833711334635 196.851765306 L 271.258539280013 204.18166422266668 Z"/></g></g><g><g><rect fill="white" stroke="none" x="183.41194872098566" y="223.23940140599998" width="103.85301244949218" height="22.86928462"/></g><text fill="black" stroke="none" font-family="sans-serif" font-size="11pt" font-style="normal" font-weight="normal" text-decoration="normal" x="186.05071233098568" y="239.071983066" text-anchor="start" dominant-baseline="alphabetic" xml:space="preserve">Click Add Item </text></g><g><path fill="none" stroke="black" paint-order="fill stroke markers" d=" M 29.572535804492187 246.108686026 L 426.62049382763803 246.108686026" stroke-miterlimit="10" stroke-width="1.4659797833333332" stroke-dasharray=""/><g transform="translate(441.10437408697135,246.108686026) translate(-441.10437408697135,-246.108686026)"><path fill="black" stroke="none" paint-order="stroke fill markers" d=" M 426.444576253638 238.7787871093333 L 441.10437408697135 246.108686026 L 426.444576253638 253.43858494266667 Z"/></g></g><g><g><rect fill="white" stroke="none" x="205.99246644485874" y="272.496322126" width="231.79855383132812" height="22.86928462"/></g><text fill="black" stroke="none" font-family="sans-serif" font-size="11pt" font-style="normal" font-weight="normal" text-decoration="normal" x="208.63123005485875" y="288.328903786" text-anchor="start" dominant-baseline="alphabetic" xml:space="preserve">Enter name, price, quantity; submit</text></g><g><path fill="none" stroke="black" paint-order="fill stroke markers" d=" M 29.572535804492187 295.36560674599997 L 599.7270706572201 295.36560674599997" stroke-miterlimit="10" stroke-width="1.4659797833333332" stroke-dasharray=""/><g transform="translate(614.2109509165534,295.36560674599997) translate(-614.2109509165534,-295.36560674599997)"><path fill="black" stroke="none" paint-order="stroke fill markers" d=" M 599.5511530832201 288.0357078293333 L 614.2109509165534 295.36560674599997 L 599.5511530832201 302.6955056626666 Z"/></g></g><g><g><rect fill="white" stroke="none" x="480.86562750631316" y="321.753242846" width="111.17582739089843" height="22.86928462"/></g><text fill="black" stroke="none" font-family="sans-serif" font-size="11pt" font-style="normal" font-weight="normal" text-decoration="normal" x="483.5043911163132" y="337.585824506" text-anchor="start" dominant-baseline="alphabetic" xml:space="preserve">emit(form.value)</text></g><g><path fill="none" stroke="black" paint-order="fill stroke markers" d=" M 614.2109509165534 344.62252746599995 L 473.1800117463047 344.62252746599995" stroke-miterlimit="10" stroke-width="1.4659797833333332" stroke-dasharray=""/><g transform="translate(458.69613148697135,344.62252746599995) translate(-458.69613148697135,-344.62252746599995)"><path fill="black" stroke="none" paint-order="stroke fill markers" d=" M 473.3559293203047 337.2926285493333 L 458.69613148697135 344.62252746599995 L 473.3559293203047 351.9524263826666 Z"/></g></g><g><g><rect fill="white" stroke="none" x="576.6951511695418" y="371.01016356599996" width="95.70698583816406" height="22.86928462"/></g><text fill="black" stroke="none" font-family="sans-serif" font-size="11pt" font-style="normal" font-weight="normal" text-decoration="normal" x="579.3339147795417" y="386.842745226" text-anchor="start" dominant-baseline="alphabetic" xml:space="preserve">addItem(item)</text></g><g><path fill="none" stroke="black" paint-order="fill stroke markers" d=" M 458.69613148697135 393.87944818599993 L 775.9172764309428 393.87944818599993" stroke-miterlimit="10" stroke-width="1.4659797833333332" stroke-dasharray=""/><g transform="translate(790.4011566902761,393.87944818599993) translate(-790.4011566902761,-393.87944818599993)"><path fill="black" stroke="none" paint-order="stroke fill markers" d=" M 775.7413588569428 386.5495492693333 L 790.4011566902761 393.87944818599993 L 775.7413588569428 401.2093471026666 Z"/></g></g><g><g><rect fill="white" stroke="none" x="811.2180696136095" y="420.26708428599994" width="144.59030187820312" height="22.86928462"/></g><g><rect fill="white" stroke="none" x="811.2180696136095" y="437.85884168599995" width="208.9854129621875" height="22.86928462"/></g><text fill="black" stroke="none" font-family="sans-serif" font-size="11pt" font-style="normal" font-weight="normal" text-decoration="normal" x="813.8568332236094" y="436.09966594599996" text-anchor="start" dominant-baseline="alphabetic" xml:space="preserve">POST /inventory/item</text><text fill="black" stroke="none" font-family="sans-serif" font-size="11pt" font-style="normal" font-weight="normal" text-decoration="normal" x="813.8568332236094" y="453.69142334599997" text-anchor="start" dominant-baseline="alphabetic" xml:space="preserve">    - Item {name, price, quantity}</text></g><g><path fill="none" stroke="black" paint-order="fill stroke markers" d=" M 790.4011566902761 460.7281263059999 L 1026.536515239797 460.7281263059999" stroke-miterlimit="10" stroke-width="1.4659797833333332" stroke-dasharray=""/><g transform="translate(1041.0203954991302,460.7281263059999) translate(-1041.0203954991302,-460.7281263059999)"><path fill="black" stroke="none" paint-order="stroke fill markers" d=" M 1026.3605976657968 453.3982273893333 L 1041.0203954991302 460.7281263059999 L 1026.3605976657968 468.0580252226666 Z"/></g></g><g><g><rect fill="white" stroke="none" x="1091.7676680529935" y="487.11576240599993" width="95.70698583816406" height="22.86928462"/></g><text fill="black" stroke="none" font-family="sans-serif" font-size="11pt" font-style="normal" font-weight="normal" text-decoration="normal" x="1094.4064316629936" y="502.94834406599995" text-anchor="start" dominant-baseline="alphabetic" xml:space="preserve">addItem(item)</text></g><g><path fill="none" stroke="black" paint-order="fill stroke markers" d=" M 1058.6121528991303 509.9850470259999 L 1206.1462887856876 509.9850470259999" stroke-miterlimit="10" stroke-width="1.4659797833333332" stroke-dasharray=""/><g transform="translate(1220.630169045021,509.9850470259999) translate(-1220.630169045021,-509.9850470259999)"><path fill="black" stroke="none" paint-order="stroke fill markers" d=" M 1205.9703712116875 502.65514810933325 L 1220.630169045021 509.9850470259999 L 1205.9703712116875 517.3149459426666 Z"/></g></g><g><g><rect fill="white" stroke="none" x="1259.0388393683543" y="536.372683126" width="121.769958860625" height="22.86928462"/></g><text fill="black" stroke="none" font-family="sans-serif" font-size="11pt" font-style="normal" font-weight="normal" text-decoration="normal" x="1261.6776029783543" y="552.2052647859999" text-anchor="start" dominant-baseline="alphabetic" xml:space="preserve">items.put(id, item)</text></g><g><path fill="none" stroke="black" paint-order="fill stroke markers" d=" M 1238.221926445021 559.2419677459999 L 1308.588956045021 559.2419677459999 L 1308.588956045021 582.1112523659999 L 1252.7058067043542 582.1112523659999" stroke-miterlimit="10" stroke-width="1.4659797833333332" stroke-dasharray=""/><g transform="translate(1238.221926445021,582.1112523659999) translate(-1238.221926445021,-582.1112523659999)"><path fill="black" stroke="none" paint-order="stroke fill markers" d=" M 1252.8817242783543 574.7813534493332 L 1238.221926445021 582.1112523659999 L 1252.8817242783543 589.4411512826666 Z"/></g></g><g><g><rect fill="white" stroke="none" x="1289.5901050024688" y="608.4988884659999" width="46.007629759062496" height="22.86928462"/></g><text fill="black" stroke="none" font-family="sans-serif" font-size="11pt" font-style="normal" font-weight="normal" text-decoration="normal" x="1292.228868612469" y="624.3314701259999" text-anchor="start" dominant-baseline="alphabetic" xml:space="preserve">save()</text></g><g><path fill="none" stroke="black" paint-order="fill stroke markers" d=" M 1238.221926445021 631.368173086 L 1372.482033059646 631.368173086" stroke-miterlimit="10" stroke-width="1.4659797833333332" stroke-dasharray=""/><g transform="translate(1386.9659133189793,631.368173086) translate(-1386.9659133189793,-631.368173086)"><path fill="black" stroke="none" paint-order="stroke fill markers" d=" M 1372.306115485646 624.0382741693332 L 1386.9659133189793 631.368173086 L 1372.306115485646 638.6980720026667 Z"/></g></g><g><g><rect fill="white" stroke="none" x="1101.9502013171536" y="657.755809186" width="75.34191930984375" height="22.86928462"/></g><text fill="black" stroke="none" font-family="sans-serif" font-size="11pt" font-style="italic" font-weight="normal" text-decoration="normal" x="1104.5889649271537" y="673.5883908459999" text-anchor="start" dominant-baseline="alphabetic" xml:space="preserve">return item</text></g><g><path fill="none" stroke="black" paint-order="fill stroke markers" d=" M 1220.630169045021 680.625093806 L 1073.0960331584636 680.625093806" stroke-miterlimit="10" stroke-width="1.4659797833333332" stroke-dasharray=""/><g transform="translate(1058.6121528991303,680.625093806) translate(-1058.6121528991303,-680.625093806)"><path fill="black" stroke="none" paint-order="stroke fill markers" d=" M 1073.2719507324637 673.2951948893333 L 1058.6121528991303 680.625093806 L 1073.2719507324637 687.9549927226667 Z"/></g></g><g><g><rect fill="white" stroke="none" x="870.2982240325548" y="707.0127299059999" width="72.08497656082031" height="22.86928462"/></g><g><rect fill="white" stroke="none" x="870.2982240325548" y="724.6044873059999" width="90.82510412429687" height="22.86928462"/></g><text fill="black" stroke="none" font-family="sans-serif" font-size="11pt" font-style="italic" font-weight="normal" text-decoration="normal" x="872.9369876425548" y="722.8453115659999" text-anchor="start" dominant-baseline="alphabetic" xml:space="preserve">HTTP 201</text><text fill="black" stroke="none" font-family="sans-serif" font-size="11pt" font-style="normal" font-weight="normal" text-decoration="normal" x="872.9369876425548" y="740.4370689659999" text-anchor="start" dominant-baseline="alphabetic" xml:space="preserve">    Body: item</text></g><g><path fill="none" stroke="black" paint-order="fill stroke markers" d=" M 1041.0203954991302 747.4737719259999 L 804.8850369496095 747.4737719259999" stroke-miterlimit="10" stroke-width="1.4659797833333332" stroke-dasharray="7.0367029599999995"/><g transform="translate(790.4011566902761,747.4737719259999) translate(-790.4011566902761,-747.4737719259999)"><path fill="black" stroke="none" paint-order="stroke fill markers" d=" M 805.0609545236094 740.1438730093332 L 790.4011566902761 747.4737719259999 L 805.0609545236094 754.8036708426666 Z"/></g></g><g><g><rect fill="white" stroke="none" x="540.4245823218855" y="773.8614080259999" width="168.24812353347656" height="22.86928462"/></g><text fill="black" stroke="none" font-family="sans-serif" font-size="11pt" font-style="italic" font-weight="normal" text-decoration="normal" x="543.0633459318855" y="789.6939896859999" text-anchor="start" dominant-baseline="alphabetic" xml:space="preserve">return Observable&lt;Item&gt;</text></g><g><path fill="none" stroke="black" paint-order="fill stroke markers" d=" M 790.4011566902761 796.730692646 L 473.1800117463047 796.730692646" stroke-miterlimit="10" stroke-width="1.4659797833333332" stroke-dasharray="7.0367029599999995"/><g transform="translate(458.69613148697135,796.730692646) translate(-458.69613148697135,-796.730692646)"><path fill="black" stroke="none" paint-order="stroke fill markers" d=" M 473.3559293203047 789.4007937293333 L 458.69613148697135 796.730692646 L 473.3559293203047 804.0605915626667 Z"/></g></g><g><g><rect fill="white" stroke="none" x="479.5130444103047" y="823.118328746" width="121.791443235625" height="22.86928462"/></g><text fill="black" stroke="none" font-family="sans-serif" font-size="11pt" font-style="normal" font-weight="normal" text-decoration="normal" x="482.1518080203047" y="838.9509104059999" text-anchor="start" dominant-baseline="alphabetic" xml:space="preserve">Push to Items List</text></g><g><path fill="none" stroke="black" paint-order="fill stroke markers" d=" M 458.69613148697135 845.9876133659999 L 529.0631610869714 845.9876133659999 L 529.0631610869714 868.8568979859999 L 473.1800117463047 868.8568979859999" stroke-miterlimit="10" stroke-width="1.4659797833333332" stroke-dasharray=""/><g transform="translate(458.69613148697135,868.8568979859999) translate(-458.69613148697135,-868.8568979859999)"><path fill="black" stroke="none" paint-order="stroke fill markers" d=" M 473.3559293203047 861.5269990693332 L 458.69613148697135 868.8568979859999 L 473.3559293203047 876.1867969026666 Z"/></g></g><g><g><rect fill="white" stroke="none" x="176.06047777372004" y="895.2445340859999" width="118.55595434402343" height="22.86928462"/></g><text fill="black" stroke="none" font-family="sans-serif" font-size="11pt" font-style="normal" font-weight="normal" text-decoration="normal" x="178.69924138372005" y="911.0771157459999" text-anchor="start" dominant-baseline="alphabetic" xml:space="preserve">Show added item</text></g><g><path fill="none" stroke="black" paint-order="fill stroke markers" d=" M 441.10437408697135 918.113818706 L 44.05641606382552 918.113818706" stroke-miterlimit="10" stroke-width="1.4659797833333332" stroke-dasharray=""/><g transform="translate(29.572535804492187,918.113818706) translate(-29.572535804492187,-918.113818706)"><path fill="black" stroke="none" paint-order="stroke fill markers" d=" M 44.23233363782552 910.7839197893333 L 29.572535804492187 918.113818706 L 44.23233363782552 925.4437176226667 Z"/></g></g></g></g></svg>