<svg version="1.1" xmlns="http://www.w3.org/2000/svg" xmlns:xlink="http://www.w3.org/1999/xlink" width="1360" height="2126"><desc>%0Atitle%20Login%3A%20Sequence%20Diagram%0A%0Aactor%20User%0A%0Aparticipant%20%22%3AAppComponent%22%20as%20AppComponent%0Aparticipant%20%22%3ALoginComponent%22%20as%20LoginComponent%0Aparticipant%20%22%3AAuthenticationService%22%20as%20ItemService%0Aparticipant%20%22%3AAuthenticationController%22%20as%20AuthenticationController%0Aparticipant%20%22%3AAuthenticationFileDAO%22%20as%20AuthenticationFileDAO%0A%0Adatabase%20%22user.json%22%20as%20database%0A%0A%0AUser-%3EAppComponent%3A%20Login%0AUser-%3ELoginComponent%3A%20Enters%20Username%2C%20Password%0Aactivate%20ItemService%0ALoginComponent-%3EItemService%3A%20login(username%2C%20password)%0A%0Aactivate%20AuthenticationController%0A%0AItemService--%3EAuthenticationController%3A%20POST%20%2Fauth%2Flogin%20%5Cn%20%20%20%20%20%20%20-%20Username%5Cn%20%20%20%20%20%20%20-%20Password%0A%0A%0Aactivate%20AuthenticationFileDAO%0A%0AAuthenticationController-%3EAuthenticationFileDAO%3A%20login(username%2C%20password)%0A%0A%2F%2F%20model%0A%0Agroup%20if%20%5BUser%20exists%5D%0Agroup%20if%20%5BPasswords%20Match%5D%0A%0Aactivate%20database%0A%0AAuthenticationFileDAO-%3Edatabase%3AgenerateToken()%0AAuthenticationFileDAO-%3Edatabase%3Asave()%0A%0Aspace%0Adeactivate%20database%0A%0AAuthenticationFileDAO-%3EAuthenticationController%3A%20%2F%2Freturn%20User%2F%2F%0Aend%0Agroup%20else%20%5BPasswords%20Differ%5D%0AAuthenticationFileDAO-%3EAuthenticationController%3A%20%2F%2Freturn%20null%2F%2F%0Aend%0Aend%0A%0Agroup%20else%20%5BUser%20not%20found%5D%0AAuthenticationFileDAO-%3EAuthenticationController%3A%20%2F%2Freturn%20null%2F%2F%0Aend%0A%0Aspace%0Adeactivate%20AuthenticationFileDAO%0A%0A%0A%2F%2F%20controller%0A%0Aalt%20if%20User%20is%20admin%0AAuthenticationController--%3EItemService%3A%20HEAD%20200%20-%20OK%20%5CnBODY%3A%20%5Cn%20%20%20%20-%20Username%5Cn%20%20%20%20-%20Password%5Cn%20%20%20%20-%20admin%3A%20True%20%0A%0Aelse%20else%20if%20User%20is%20not%20admin%0AAuthenticationController--%3EItemService%3A%20HEAD%20200%20-%20OK%20%5CnBODY%3A%20%5Cn%20%20%20%20-%20Username%5Cn%20%20%20%20-%20Password%0A%0A%0Aelse%20else%20no%20such%20User%0AAuthenticationController--%3EItemService%3A%20HEAD%20401%20-%20Unauthorized%0Aend%0A%0A%0Aspace%0Adeactivate%20AuthenticationController%0A%0A%0A%2F%2F%20itemservice%0A%0AItemService--%3ELoginComponent%3A%20%2F%2F%20return%20Observable%3CUser%3E%20%2F%2F%0A%0A%0A%0Aalt%20HTTP%20200%0A%20%20ItemService--%3EItemService%3A%20%2F%2F%20Update%20currentUser%2F%2F%0A%20%20space%0A%20%20deactivate%20ItemService%0A%20%20AppComponent--%3EItemService%3A%20%2F%2F%20Fetch%20new%20user%2F%2F%0A%20%20space%0A%20%20AppComponent-%3EUser%3A%20Update%20View%0A%0Aelse%20HTTP%20401%0A%20%20LoginComponent-%3EUser%3A%20Invalid%20Username%20%2F%20Password%0A%20%20space%0Aend%0A%0A%0A%0A%0A%0A%0A%0A%0A%0A%0A%0A%0A%0A%0A%0A%0A%0A%0A%0A%0A%0A%0A%0A%0A%0A%0A%0A%0A%0A%0A%0A%0A%0A%0A%0A</desc><defs/><g><g/><g/><g/><g/><g/><g/><g/><g/><g/><g/><g/><g/><g/><g/><g/><g/><g/><g/><g/><g/><g/><g/><g/><g/><g/><g/><g/><g/><g/><g/><g/><g/><g/><g><rect fill="white" stroke="none" x="0" y="0" width="1360" height="2126"/></g><g><text fill="black" stroke="none" font-family="sans-serif" font-size="16.5pt" font-style="normal" font-weight="normal" text-decoration="normal" x="552.9019323235963" y="26.3876361" text-anchor="start" dominant-baseline="alphabetic" xml:space="preserve">Login: Sequence Diagram</text></g><g/><g><path fill="none" stroke="black" paint-order="fill stroke markers" d=" M 79.1629083 138.798965886 L 79.1629083 2126.667552085999" stroke-miterlimit="10" stroke-width="1.4659797833333332" stroke-dasharray="13.532121076923076,5.863919133333333"/><path fill="none" stroke="black" paint-order="fill stroke markers" d=" M 208.9375273578776 138.798965886 L 208.9375273578776 2126.667552085999" stroke-miterlimit="10" stroke-width="1.4659797833333332" stroke-dasharray="13.532121076923076,5.863919133333333"/><path fill="none" stroke="black" paint-order="fill stroke markers" d=" M 375.5444627690026 138.798965886 L 375.5444627690026 2126.667552085999" stroke-miterlimit="10" stroke-width="1.4659797833333332" stroke-dasharray="13.532121076923076,5.863919133333333"/><path fill="none" stroke="black" paint-order="fill stroke markers" d=" M 608.0662086958255 138.798965886 L 608.0662086958255 2126.667552085999" stroke-miterlimit="10" stroke-width="1.4659797833333332" stroke-dasharray="13.532121076923076,5.863919133333333"/><path fill="none" stroke="black" paint-order="fill stroke markers" d=" M 842.0610336400312 138.798965886 L 842.0610336400312 2126.667552085999" stroke-miterlimit="10" stroke-width="1.4659797833333332" stroke-dasharray="13.532121076923076,5.863919133333333"/><path fill="none" stroke="black" paint-order="fill stroke markers" d=" M 1083.378658266854 138.798965886 L 1083.378658266854 2126.667552085999" stroke-miterlimit="10" stroke-width="1.4659797833333332" stroke-dasharray="13.532121076923076,5.863919133333333"/><path fill="none" stroke="black" paint-order="fill stroke markers" d=" M 1254.6390624346925 138.798965886 L 1254.6390624346925 2126.667552085999" stroke-miterlimit="10" stroke-width="1.4659797833333332" stroke-dasharray="13.532121076923076,5.863919133333333"/></g><g><g><path fill="white" stroke="black" paint-order="fill stroke markers" d=" M 89.190210018 64.385832084 A 10.027301717999999 10.027301717999999 0 1 1 89.19020500434955 64.37580478395321 M 79.1629083 74.41313380199999 L 79.1629083 95.87507782999998 M 66.496842972 82.153507058 L 91.828973628 82.153507058 M 79.1629083 95.87507782999998 L 66.496842972 115.92968126599999 M 79.1629083 95.87507782999998 L 91.828973628 115.92968126599999" stroke-miterlimit="10" stroke-width="2.990598758" stroke-dasharray=""/></g><g><g/><text fill="black" stroke="none" font-family="sans-serif" font-size="11pt" font-style="normal" font-weight="normal" text-decoration="normal" x="63.68689511640625" y="133.521438666" text-anchor="start" dominant-baseline="alphabetic" xml:space="preserve">User</text></g><path fill="none" stroke="none"/><g><path fill="white" stroke="black" paint-order="fill stroke markers" d=" M 136.8762503029987 91.47713848000001 L 280.9988044127565 91.47713848000001 L 280.9988044127565 138.79896588600002 L 136.8762503029987 138.79896588600002 L 136.8762503029987 91.47713848000001 Z" stroke-miterlimit="10" stroke-width="2.814681184" stroke-dasharray=""/></g><g><text fill="black" stroke="none" font-family="sans-serif" font-size="11pt" font-style="normal" font-weight="normal" text-decoration="normal" x="155.9633070819987" y="121.20720848599998" text-anchor="start" dominant-baseline="alphabetic" xml:space="preserve">:AppComponent</text></g><path fill="none" stroke="none"/><g><path fill="white" stroke="black" paint-order="fill stroke markers" d=" M 298.5905618127565 91.47713848000001 L 452.49836372524874 91.47713848000001 L 452.49836372524874 138.79896588600002 L 298.5905618127565 138.79896588600002 L 298.5905618127565 91.47713848000001 Z" stroke-miterlimit="10" stroke-width="2.814681184" stroke-dasharray=""/></g><g><text fill="black" stroke="none" font-family="sans-serif" font-size="11pt" font-style="normal" font-weight="normal" text-decoration="normal" x="317.6776185917565" y="121.20720848599998" text-anchor="start" dominant-baseline="alphabetic" xml:space="preserve">:LoginComponent</text></g><path fill="none" stroke="none"/><g><path fill="white" stroke="black" paint-order="fill stroke markers" d=" M 516.0443298343059 91.47713848000001 L 700.088087557345 91.47713848000001 L 700.088087557345 138.79896588600002 L 516.0443298343059 138.79896588600002 L 516.0443298343059 91.47713848000001 Z" stroke-miterlimit="10" stroke-width="2.814681184" stroke-dasharray=""/></g><g><text fill="black" stroke="none" font-family="sans-serif" font-size="11pt" font-style="normal" font-weight="normal" text-decoration="normal" x="535.131386613306" y="121.20720848599998" text-anchor="start" dominant-baseline="alphabetic" xml:space="preserve">:AuthenticationService</text></g><path fill="none" stroke="none"/><g><path fill="white" stroke="black" paint-order="fill stroke markers" d=" M 742.7055823908163 91.47713848000001 L 941.416484889246 91.47713848000001 L 941.416484889246 138.79896588600002 L 742.7055823908163 138.79896588600002 L 742.7055823908163 91.47713848000001 Z" stroke-miterlimit="10" stroke-width="2.814681184" stroke-dasharray=""/></g><g><text fill="black" stroke="none" font-family="sans-serif" font-size="11pt" font-style="normal" font-weight="normal" text-decoration="normal" x="761.7926391698163" y="121.20720848599998" text-anchor="start" dominant-baseline="alphabetic" xml:space="preserve">:AuthenticationController</text></g><path fill="none" stroke="none"/><g><path fill="white" stroke="black" paint-order="fill stroke markers" d=" M 988.1033614365845 91.47713848000001 L 1178.6539550971236 91.47713848000001 L 1178.6539550971236 138.79896588600002 L 988.1033614365845 138.79896588600002 L 988.1033614365845 91.47713848000001 Z" stroke-miterlimit="10" stroke-width="2.814681184" stroke-dasharray=""/></g><g><text fill="black" stroke="none" font-family="sans-serif" font-size="11pt" font-style="normal" font-weight="normal" text-decoration="normal" x="1007.1904182155845" y="121.20720848599998" text-anchor="start" dominant-baseline="alphabetic" xml:space="preserve">:AuthenticationFileDAO</text></g><g><path fill="white" stroke="black" paint-order="fill stroke markers" d=" M 1228.9550966306924 104.31912138199999 L 1228.9550966306924 67.37643084199999 L 1280.3230282386926 67.37643084199999 L 1280.3230282386926 104.31912138199999" stroke-miterlimit="10" stroke-width="2.990598758" stroke-dasharray=""/><path fill="white" stroke="black" paint-order="fill stroke markers" d=" M 1280.3230282386926 66.0922325518 L 1280.321744051104 66.20833621555636 L 1280.3178916167558 66.3244282690431 L 1280.3114713208886 66.4404971031516 L 1280.3024838055262 66.5565311110952 L 1280.290929969413 66.67251868956978 L 1280.2768109679225 66.78844823991415 L 1280.2601282129438 66.9043081692699 L 1280.240883372738 67.0200868917406 L 1280.2190783717729 67.13577282955055 L 1280.194715390531 67.25135441420231 L 1280.1677968652896 67.36682008763378 L 1280.138325487879 67.48215830337381 L 1280.1063042054127 67.59735752769696 L 1280.0717362199916 67.71240624077679 L 1280.034624988386 67.82729293783784 L 1279.994974221688 67.94200613030618 L 1279.952787884941 68.05653434695814 L 1279.9080701967437 68.1708661350675 L 1279.8608256288276 68.28499006155073 L 1279.8110589056103 68.39889471411026 L 1279.7587750037223 68.51256870237577 L 1279.7039791515106 68.62600065904317 L 1279.6466768285145 68.73917924101131 L 1279.5868737649187 68.85209313051632 L 1279.5245759409795 68.96473103626333 L 1279.4597895864276 69.07708169455563 L 1279.3925211798444 69.18913387042103 L 1279.3227774480147 69.3008763587353 L 1279.2505653652531 69.41229798534273 L 1279.175892152708 69.52338760817354 L 1279.0987652776384 69.63413411835798 L 1279.0191924526675 69.74452644133734 L 1278.9371816350117 69.85455353797133 L 1278.852741025684 69.96420440564195 L 1278.7658790686753 70.07346807935382 L 1278.6766044501087 70.18233363283062 L 1278.5849260973719 70.29079017960771 L 1278.4908531782237 70.39882687412083 L 1278.3943950998776 70.50643291279052 L 1278.295561508061 70.6135975351026 L 1278.1943622860506 70.72031002468414 L 1278.0908075536845 70.82655971037511 L 1277.9849076663495 70.93233596729549 L 1277.876673213946 71.03762821790771 L 1277.7661150198296 71.14242593307448 L 1277.653244139727 71.2467186331116 L 1277.538071860632 71.35049588883598 L 1277.4206096996772 71.45374732260854 L 1277.3008694029804 71.55646260937192 L 1277.1788629444716 71.65863147768304 L 1277.0546025246947 71.76024371074024 L 1276.9281005695887 71.86128914740488 L 1276.799369729243 71.96175768321748 L 1276.6684228766348 72.0616392714082 L 1276.5352731063404 72.16092392390144 L 1276.3999337332252 72.25960171231469 L 1276.2624182911145 72.35766276895136 L 1276.1227405314373 72.45509728778748 L 1275.9809144218536 72.55189552545237 L 1275.836954144856 72.64804780220294 L 1275.6908740963522 72.74354450289161 L 1275.5426888842253 72.83837607792793 L 1275.392413326873 72.93253304423341 L 1275.240062451726 73.02600598618986 L 1275.0856514937448 73.118785556581 L 1274.9291958938966 73.21086247752712 L 1274.7707112976104 73.30222754141282 L 1274.6102135532146 73.39287161180788 L 1274.4477187103494 73.48278562438078 L 1274.283243018364 73.5719605878052 L 1274.11680292469 73.66038758465909 L 1273.9484150731985 73.74805777231649 L 1273.7780963025343 73.83496238383165 L 1273.6058636444325 73.92109272881588 L 1273.4317343220152 74.00644019430642 L 1273.2557257480696 74.09099624562788 L 1273.0778555233067 74.17475242724555 L 1272.8981414346006 74.2577003636111 L 1272.7166014532102 74.33983176 L 1272.5332537329825 74.42113840334106 L 1272.3481166085367 74.50161216303769 L 1272.1612085934312 74.58124499178099 L 1271.9725483783113 74.66002892635444 L 1271.782154829042 74.73795608843025 L 1271.5900469848186 74.81501868535715 L 1271.3962440562664 74.89120901093965 L 1271.200765423516 74.9665194462087 L 1271.0036306342683 75.0409424601835 L 1270.8048594018376 75.11447061062472 L 1270.6044716031818 75.18709654477856 L 1270.4024872769135 75.25881300011211 L 1270.198926621297 75.32961280503964 L 1269.9938099922285 75.39948887963963 L 1269.7871579011999 75.46843423636287 L 1269.578991013248 75.53644198073111 L 1269.369330144888 75.60350531202661 L 1269.1581962620323 75.66961752397214 L 1268.945610477893 75.73477200540155 L 1268.7315940508715 75.79896224092104 L 1268.5161683824322 75.86218181156053 L 1268.2993550149622 75.92442439541566 L 1268.0811756296177 75.98568376827987 L 1267.8616520441556 76.04595380426694 L 1267.6408062107512 76.10522847642352 L 1267.418660213804 76.16350185733178 L 1267.1952362677287 76.22076811970217 L 1266.9705567147332 76.27702153695618 L 1266.744644022586 76.33225648379899 L 1266.5175207823681 76.38646743678191 L 1266.289209706214 76.43964897485485 L 1266.0597336250412 76.49179577990829 L 1265.8291154862666 76.54290263730519 L 1265.597378351512 76.59296443640241 L 1265.3645453942972 76.64197617106174 L 1265.1306398977247 76.68993294015058 L 1264.8956852521487 76.73682994803197 L 1264.6597049528382 76.7826625050442 L 1264.4227225976263 76.82742602796976 L 1264.184761884551 76.87111604049369 L 1263.9458466094857 76.91372817365111 L 1263.7060006637582 76.95525816626423 L 1263.4652480317638 76.99570186536839 L 1263.2236127885649 77.03505522662739 L 1262.9811190974842 77.0733143147379 L 1262.737791207689 77.11047530382298 L 1262.4936534517656 77.1465344778147 L 1262.2487302432855 77.1814882308257 L 1262.0030460743662 77.21533306750982 L 1261.7566255132197 77.24806560341159 L 1261.5094932016964 77.2796825653047 L 1261.2616738528218 77.31018079151929 L 1261.0131922483242 77.33955723225817 L 1260.7640732361572 77.36780894990176 L 1260.514341728014 77.3949331193018 L 1260.2640226968374 77.42092702806399 L 1260.0131411743223 77.44578807681908 L 1259.7617222484114 77.46951377948295 L 1259.5097910607883 77.49210176350509 L 1259.2573728043612 77.51354977010593 L 1259.004492720746 77.53385565450264 L 1258.7511760977397 77.55301738612376 L 1258.497448266794 77.57103304881205 L 1258.2433346004805 77.58790084101629 L 1257.9888605099538 77.6036190759713 L 1257.7340514424113 77.61818618186668 L 1257.4789328785469 77.63160070200398 L 1257.223530330005 77.64386129494237 L 1256.9678693368269 77.65496673463277 L 1256.7119754648995 77.66491591054046 L 1256.4558743033965 77.67370782775615 L 1256.1995914622205 77.68134160709545 L 1255.9431525694422 77.68781648518677 L 1255.6865832687372 77.6931318145477 L 1255.429909216822 77.69728706364975 L 1255.173156080887 77.70028181697145 L 1254.916349536033 77.70211577504 L 1254.6595152626999 77.70278875446107 L 1254.4026789441007 77.70230068793732 L 1254.145866263654 77.70065162427498 L 1253.889102902413 77.69784172837903 L 1253.6324145365004 77.69387128123674 L 1253.3758268345389 77.68874067988952 L 1253.1193654550846 77.68245043739319 L 1252.863056044062 77.6750011827668 L 1252.6069242321983 77.66639366092959 L 1252.3509956324615 77.65662873262656 L 1252.095295837498 77.64570737434241 L 1251.8398504170746 77.63363067820387 L 1251.5846849155203 77.6203998518705 L 1251.3298248491726 77.60601621841388 L 1251.0752957038258 77.59048121618541 L 1250.821122932182 77.57379639867233 L 1250.567331951307 77.5559634343425 L 1250.3139481400874 77.53698410647749 L 1250.060996836693 77.51686031299428 L 1249.8085033360433 77.49559406625544 L 1249.556492887278 77.47318749286792 L 1249.304990691232 77.44964283347039 L 1249.0540218979154 77.42496244250918 L 1248.803611603998 77.3991487880028 L 1248.553784850301 77.3722044512952 L 1248.3045666192913 77.3441321267976 L 1248.0559818325846 77.31493462171906 L 1247.8080553484522 77.28461485578573 L 1247.5608119593358 77.25317586094897 L 1247.3142763893684 77.22062078108203 L 1247.0684732919017 77.18695287166581 L 1246.8234272470404 77.15217549946317 L 1246.5791627591848 77.11629214218235 L 1246.3357042545804 77.07930638812917 L 1246.0930760788742 77.04122193584823 L 1245.8513024946822 77.002042593753 L 1245.6104076791612 76.96177227974506 L 1245.3704157215916 76.92041502082225 L 1245.1313506209697 76.87797495267598 L 1244.893236283606 76.83445631927773 L 1244.656096520736 76.78986347245454 L 1244.4199550461383 76.74420087145396 L 1244.1848354737635 76.69747308249802 L 1243.9507613153728 76.64968477832667 L 1243.7177559781874 76.60084073773052 L 1243.4858427625466 76.55094584507293 L 1243.2550448595784 76.50000508980158 L 1243.0253853488814 76.44802356594954 L 1242.7968871962148 76.39500647162588 L 1242.5695732512036 76.34095910849587 L 1242.343466245053 76.28588688125075 L 1242.1185887882748 76.22979529706737 L 1241.8949633684276 76.1726899650574 L 1241.6726123478672 76.11457659570647 L 1241.45155796151 76.05546100030305 L 1241.2318223146106 75.99534909035746 L 1241.0134273805504 75.9342468770106 L 1240.7963949986413 75.87216047043285 L 1240.58074687194 75.80909607921315 L 1240.3665045650798 75.74506000973807 L 1240.153689502113 75.6800586655612 L 1239.942322964368 75.61409854676278 L 1239.732426088323 75.54718624929971 L 1239.5240198634904 75.47932846434601 L 1239.3171251303193 75.4105319776236 L 1239.11176257811 75.34080366872384 L 1238.9079527429474 75.2701505104195 L 1238.7057160056447 75.19857956796754 L 1238.505072589707 75.12609799840256 L 1238.306042559309 75.05271304982111 L 1238.1086458172874 74.9784320606569 L 1237.9129021031526 74.90326245894695 L 1237.7188309911123 74.82721176158879 L 1237.5264518881165 74.75028757358876 L 1237.3357840319147 74.67249758730159 L 1237.1468464891338 74.59384958166106 L 1236.9596581533708 74.51435142140221 L 1236.774237743303 74.4340110562748 L 1236.590603800817 74.3528365202484 L 1236.4087746891541 74.27083593070897 L 1236.228768591074 74.18801748764713 L 1236.0506035070364 74.10438947283818 L 1235.8742972534012 74.01996024901389 L 1235.6998674606468 73.9347382590263 L 1235.5273315716072 73.84873202500339 L 1235.3567068397276 73.76195014749688 L 1235.1880103273388 73.67440130462221 L 1235.0212589039518 73.58609425119072 L 1234.8564692445696 73.49703781783415 L 1234.693657828021 73.40724091012163 L 1234.532840935312 73.3167125076691 L 1234.3740346479976 73.22546166324135 L 1234.2172548465746 73.1334975018468 L 1234.0625172088924 73.04082921982494 L 1233.9098372085855 72.94746608392677 L 1233.7592301135269 72.85341743038806 L 1233.6107109843008 72.75869266399579 L 1233.464294672696 72.66330125714767 L 1233.319995820222 72.56725274890488 L 1233.1778288566434 72.4705567440382 L 1233.0378079985385 72.37322291206758 L 1232.899947247876 72.27526098629505 L 1232.7642603906165 72.17668076283158 L 1232.6307609953324 72.07749209961737 L 1232.4994624118522 71.97770491543608 L 1232.3703777699245 71.87732918892296 L 1232.243519977906 71.77637495756703 L 1232.1189017214706 71.6748523167073 L 1231.9965354623396 71.57277141852325 L 1231.8764334370371 71.47014247101961 L 1231.7586076556656 71.36697573700563 L 1231.643069900705 71.26328153306875 L 1231.5298317258346 71.15907022854292 L 1231.4189044547775 71.05435224447177 L 1231.3102991801682 70.94913805256644 L 1231.2040267624438 70.84343817415844 L 1231.1000978287575 70.73726317914753 L 1230.9985227719162 70.63062368494474 L 1230.8993117493405 70.5235303554106 L 1230.8024746820506 70.41599389978884 L 1230.708021253672 70.3080250716354 L 1230.615960909469 70.19963466774314 L 1230.5263028553995 70.0908335270621 L 1230.439056057194 69.98163252961568 L 1230.3542292394595 69.87204259541265 L 1230.2718308848075 69.76207468335508 L 1230.1918692330044 69.65173979014256 L 1230.1143522801488 69.54104894917243 L 1230.0392877778713 69.43001322943658 L 1229.9666832325602 69.31864373441445 L 1229.8965459046087 69.20695160096271 L 1229.8288828076916 69.09494799820165 L 1229.763700708062 68.98264412639821 L 1229.701006123876 68.87005121584596 L 1229.640805324539 68.75718052574217 L 1229.5831043300816 68.64404334306175 L 1229.5279089105547 68.53065098142872 L 1229.4752245854543 68.41701477998473 L 1229.4250566231688 68.30314610225523 L 1229.377410040453 68.1890563350131 L 1229.3322896019254 68.07475688714001 L 1229.289699819592 67.96025918848548 L 1229.2496449523958 67.84557468872397 L 1229.21212900579 67.73071485620987 L 1229.1771557313382 67.61569117683074 L 1229.1447286263385 67.50051515285864 L 1229.1148509334744 67.3851983018 L 1229.0875256404904 67.26975215524384 L 1229.0627554798928 67.15418825770858 L 1229.0405429286773 67.0385181654877 L 1229.0208902080801 66.92275344549402 L 1229.0037992833575 66.80690567410306 L 1228.9892718635872 66.69098643599544 L 1228.9773094014993 66.57500732299836 L 1228.9679130933298 66.45897993292647 L 1228.961083878702 66.34291586842208 L 1228.9568224405318 66.22682673579494 L 1228.9551292049591 66.11072414386156 L 1228.956004341306 65.99461970278438 L 1228.9594477620599 65.87852502291076 L 1228.9654591228814 65.76245171361194 L 1228.9740378226395 65.64641138212212 L 1228.9851830034713 65.53041563237775 L 1228.9988935508682 65.41447606385715 L 1229.0151680937865 65.29860427042055 L 1229.034005004786 65.18281183915073 L 1229.055402400191 65.06711034919432 L 1229.0793581402797 64.95151137060391 L 1229.105869829498 64.83602646318103 L 1229.1349348166996 64.72066717532017 L 1229.1665501954094 64.60544504285399 L 1229.200712804116 64.49037158789972 L 1229.2374192265872 64.37545831770696 L 1229.2766657922114 64.26071672350696 L 1229.3184485763643 64.14615827936355 L 1229.3627634008028 64.03179444102564 L 1229.4096058340813 63.917636644781794 L 1229.458971191995 63.80369630631649 L 1229.51085453805 63.68998481956863 L 1229.5652506839542 63.57651355559212 L 1229.622154190139 63.46329386141881 L 1229.681559366301 63.35033705892376 L 1229.7434602719716 63.237654443693096 L 1229.8078507171124 63.125257283894435 L 1229.8747242627323 63.0131568191501 L 1229.9440742215327 62.90136425941313 L 1230.0158936585751 62.78989078384635 L 1230.0901753919761 62.67874753970443 L 1230.166911993624 62.56794564121916 L 1230.2460957899223 62.45749616848805 L 1230.327718862558 62.34741016636633 L 1230.4117730492912 62.23769864336248 L 1230.498249944774 62.12837257053737 L 1230.5871409013882 62.01944288040719 L 1230.6784370301127 61.91092046585016 L 1230.7721292014105 61.80281617901732 L 1230.8682080461426 61.69514083024725 L 1230.9666639565046 61.587905186985104 L 1231.0674870869875 61.48111997270585 L 1231.1706673553622 61.37479586584192 L 1231.276194443688 61.2689434987154 L 1231.3840577993437 61.16357345647479 L 1231.494246636084 61.05869627603652 L 1231.6067499351168 60.954322445031224 L 1231.721556446206 60.85046240075503 L 1231.8386546887962 60.74712652912581 L 1231.9580329531607 60.644325163644616 L 1232.0796793015727 60.54206858436233 L 1232.2035815694985 60.440367016851674 L 1232.3297273668145 60.339230631184634 L 1232.4581040790465 60.2386695409155 L 1232.5886988686298 60.13869380206951 L 1232.7214986761946 60.03931341213722 L 1232.8564902218707 59.94053830907482 L 1232.9936600066158 59.84237837031029 L 1233.132994313566 59.74484341175572 L 1233.2744792094068 59.64794318682568 L 1233.4181005457663 59.55168738546191 L 1233.5638439606305 59.45608563316434 L 1233.7116948797795 59.361147490028536 L 1233.8616385182447 59.266882449789684 L 1234.013659881787 59.173299938873264 L 1234.1677437683968 59.08040931545237 L 1234.323874769814 58.988219868511955 L 1234.4820372730683 58.89674081691987 L 1234.6422154620413 58.805981308505054 L 1234.8043933190474 58.715950419142715 L 1234.9685546264366 58.62665715184676 L 1235.1346829682143 58.5381104358695 L 1235.3027617316852 58.450319125808754 L 1235.4727741091128 58.36329200072237 L 1235.644703099401 58.277037763250334 L 1235.8185315097944 58.19156503874451 L 1235.9942419575964 58.10688237440612 L 1236.171816871909 58.022998238431036 L 1236.3512384953883 57.93992101916295 L 1236.5324888860218 57.85765902425456 L 1236.7155499189216 57.776220479836795 L 1236.9004032881367 57.695613529696246 L 1237.087030508484 57.61584623446075 L 1237.2754129173975 57.53692657079335 L 1237.465531676793 57.45886243059466 L 1237.6573677749532 57.38166162021363 L 1237.850902028428 57.30533185966698 L 1238.0461150839533 57.229880781867145 L 1238.242987420386 57.155315931859036 L 1238.441499350657 57.08164476606552 L 1238.6416310237387 57.008874651541774 L 1238.8433624266302 56.93701286523862 L 1239.0466733863593 56.866066593274795 L 1239.2515435719997 56.79604293021838 L 1239.4579524967035 56.726948878377314 L 1239.6658795197502 56.658791347099225 L 1239.8753038486109 56.591577152080426 L 1240.086204541027 56.525313014684414 L 1240.298560507105 56.4600055612697 L 1240.5123505114257 56.39566132252722 L 1240.7275531751661 56.332286732827214 L 1240.9441469782398 56.26988812957585 L 1241.1621102614467 56.20847175258143 L 1241.3814212286404 56.14804374343051 L 1241.6020579489066 56.08861014487363 L 1241.823998358757 56.03017690022111 L 1242.047220264336 55.972749852748734 L 1242.2717013436388 55.91633474511339 L 1242.4974191487447 55.86093721877882 L 1242.7243511080612 55.80656281345151 L 1242.9524745285814 55.753216966526665 L 1243.1817665981534 55.70090501254454 L 1243.4122043877614 55.649632182656916 L 1243.6437648538183 55.59940360410408 L 1243.8764248404707 55.550224299702016 L 1244.1101610819137 55.50209918734018 L 1244.3449502047179 55.45503307948971 L 1244.5807687301665 55.40903068272217 L 1244.817593076604 55.3640965972389 L 1245.0553995617925 55.320235316411 L 1245.2941644052821 55.27745122633 L 1245.533863730787 55.23574860536927 L 1245.7744735685749 55.19513162375613 L 1246.0159698578623 55.15560434315492 L 1246.2583284492214 55.11717071626074 L 1246.5015251069951 55.07983458640426 L 1246.7455355117204 55.04359968716735 L 1246.99033526256 55.00846964200974 L 1247.2358998797429 54.974447963906684 L 1247.482204807012 54.941538054997615 L 1247.72922541408 54.90974320624601 L 1247.9769369990918 54.87906659711026 L 1248.2253147910953 54.849511295225696 L 1248.4743339525185 54.82108025609789 L 1248.7239695816527 54.79377632280706 L 1248.9741967151429 54.76760222572378 L 1249.2249903304842 54.742560582235946 L 1249.4763253485244 54.71865389648704 L 1249.7281766359708 54.695884559125716 L 1249.9805190079048 54.674254847066734 L 1250.2333272302994 54.65376692326327 L 1250.486576022543 54.63442283649064 L 1250.7402400599674 54.616224521141405 L 1250.9942939763803 54.599173797031916 L 1251.2487123666017 54.583272369220396 L 1251.5034697890046 54.56852182783636 L 1251.758540768059 54.55492364792166 L 1252.0138997968797 54.54247918928296 L 1252.2695213397767 54.53118969635575 L 1252.5253798348083 54.52105629807991 L 1252.7814496963388 54.51208000778683 L 1253.0377053175948 54.504261723098054 L 1253.2941210732283 54.497602225835536 L 1253.5506713218772 54.49210218194346 L 1253.8073304087302 54.487762141421626 L 1254.0640726680929 54.484582538270466 L 1254.320872425953 54.482563690447655 L 1254.5777040025487 54.481705799836284 L 1254.8345417149367 54.4820089522247 L 1255.0913598795594 54.48347311729792 L 1255.3481328148146 54.486098148640664 L 1255.6048348436227 54.48988378375197 L 1255.8614402959945 54.49482964407149 L 1256.117923511599 54.50093523501731 L 1256.3742588423283 54.50819994603543 L 1256.6304206548627 54.5166230506608 L 1256.8863833332346 54.52620370658997 L 1257.1421212813893 54.53694095576534 L 1257.3976089257453 54.54883372447093 L 1257.652820717751 54.56188082343979 L 1257.9077311364397 54.5760809479729 L 1258.1623146909822 54.591432678069616 L 1258.4165459232352 54.607934478569746 L 1258.670399410287 54.62558469930698 L 1258.9238497670008 54.644381575273954 L 1259.1768716485522 54.66432322679874 L 1259.4294397529634 54.685407659732796 L 1259.6815288236348 54.70763276565041 L 1259.9331136518695 54.7309963220595 L 1260.1841690793942 54.75549599262389 L 1260.4346700008753 54.78112932739696 L 1260.6845913664292 54.80789376306658 L 1260.933908184128 54.83578662321149 L 1261.1825955224976 54.86480511856891 L 1261.4306285130115 54.89494634731351 L 1261.677982352577 54.9262072953475 L 1261.9246323060163 54.95858483660216 L 1262.17055370854 54.99207573335032 L 1262.4157219682124 55.02667663653023 L 1262.6601125684122 55.0623840860804 L 1262.9037010702825 55.09919451128564 L 1263.1464631151766 55.13710423113409 L 1263.388374427092 55.17610945468536 L 1263.6294108150994 55.2162062814496 L 1263.8695481757607 55.25739070177756 L 1264.1087624955398 55.29965859726151 L 1264.3470298532043 55.34300574114714 L 1264.584326422217 55.38742779875617 L 1264.8206284731184 55.43292032791987 L 1265.0559123759006 55.47947877942322 L 1265.2901546023695 55.527098497459875 L 1265.5233317284974 55.57577472009772 L 1265.7554204367661 55.62550257975505 L 1265.9863975184983 55.67627710368733 L 1266.2162398761782 55.728093214484495 L 1266.4449245257615 55.78094573057864 L 1266.6724285989737 55.83482936676219 L 1266.8987293455975 55.88973873471644 L 1267.1238041357465 55.945668343550345 L 1267.3476304621292 56.002612600349636 L 1267.5701859422998 56.06056581073608 L 1267.7914483208954 56.11952217943694 L 1268.0113954718627 56.179475810864474 L 1268.23000540067 56.24042070970549 L 1268.4472562465062 56.30235078152091 L 1268.6631262844683 56.36525983335514 L 1268.8775939277318 56.42914157435544 L 1269.0906377297115 56.49398961640093 L 1269.3022363862046 56.55979747474145 L 1269.512368737522 56.62655856864601 L 1269.7210137706033 56.69426622206085 L 1269.9281506211194 56.76291366427705 L 1270.1337585755577 56.83249403060759 L 1270.337817073294 56.903000363073836 L 1270.5403057086487 56.97442561110128 L 1270.7412042329272 57.04676263222465 L 1270.940492556444 57.120004192802114 L 1271.1381507505334 57.19414296873864 L 1271.3341590495402 57.26917154621842 L 1271.5284978527982 57.34508242244624 L 1271.7211477265887 57.421868006397716 L 1271.9120894060852 57.49952061957846 L 1272.1013037972787 57.57803249679186 L 1272.2887719788876 57.657395786915615 L 1272.4744752042502 57.73760255368685 L 1272.6583949031985 57.81864477649573 L 1272.8405126839164 57.9005143511875 L 1273.0208103347768 57.983203090872934 L 1273.1992698261654 58.06670272674695 L 1273.3758733122818 58.15100490891555 L 1273.5506031329242 58.23610120723078 L 1273.7234418152564 58.32198311213371 L 1273.8943720755542 58.40864203550541 L 1274.0633768209339 58.49606931152578 L 1274.2304391510618 58.58425619754006 L 1274.3955423598443 58.67319387493313 L 1274.5586699370979 58.76287345001139 L 1274.7198055702006 58.853285954892044 L 1274.878933145724 58.944422348399954 L 1275.0360367510427 59.03627351697172 L 1275.1911006759271 59.12883027556701 L 1275.3441094141142 59.222083368587114 L 1275.4950476648573 59.31602347080043 L 1275.6439003344574 59.41064118827504 L 1275.7906525377716 59.50592705931801 L 1275.9352895997017 59.60187155542167 L 1276.077797056662 59.698465082216345 L 1276.2181606580257 59.79569798042986 L 1276.3563663675495 59.89356052685341 L 1276.492400364778 59.99204293531392 L 1276.6262490464244 60.0911353576526 L 1276.757899027732 60.1908278847098 L 1276.8873371438128 60.29111054731588 L 1277.0145504509628 60.39197331728817 L 1277.1395262279575 60.4934061084337 L 1277.262251977323 60.5953987775579 L 1277.382715426587 60.69794112547884 L 1277.5009045295046 60.80102289804719 L 1277.6168074672644 60.90463378717158 L 1277.730412649669 61.00876343184945 L 1277.8417087162945 61.113401419203115 L 1277.9506845376277 61.218537285521016 L 1278.0573292161766 61.32416051730415 L 1278.1616320875628 61.43026055231736 L 1278.2635827215856 61.53682678064554 L 1278.3631709232668 61.643848545754686 L 1278.4603867338692 61.75131514555746 L 1278.5552204318926 61.85921583348345 L 1278.6476625340465 61.96753981955375 L 1278.7377037961974 62.07627627146005 L 1278.8253352142942 62.18541431564777 L 1278.9105480252686 62.29494303840343 L 1278.9933337079099 62.404851486946036 L 1279.0736839837189 62.515128670522316 L 1279.1515908177353 62.62576356150581 L 1279.2270464193402 62.736745096499625 L 1279.3000432430367 62.84806217744274 L 1279.3705739892032 62.959703672719826 L 1279.4386316048237 63.07165841827438 L 1279.5042092841934 63.18391521872516 L 1279.567300469599 63.29646284848565 L 1279.6278988519748 63.409290052886675 L 1279.6859983715326 63.52238554930181 L 1279.7415932183692 63.63573802827567 L 1279.794677833046 63.7493361546548 L 1279.845246907146 63.86316856872124 L 1279.893295383804 63.97722388732845 L 1279.938818458212 64.09149070503959 L 1279.9818115781009 64.20595759526815 L 1280.022270444194 64.32061311142046 L 1280.060191010639 64.43544578804045 L 1280.0955694854106 64.55044414195618 L 1280.1284023306907 64.66559667342807 L 1280.1586862632225 64.78089186729893 L 1280.1864182546376 64.89631819414548 L 1280.21159553176 65.0118641114312 L 1280.2342155768831 65.12751806466063 L 1280.2542761280213 65.24326848853487 L 1280.271775179136 65.35910380810796 L 1280.2867109803367 65.47501243994449 L 1280.299082038056 65.59098279327785 L 1280.308887115198 65.70700327116936 L 1280.3161252312636 65.8230622716679 L 1280.3207956624472 65.93914818897015 L 1280.322897941709 66.05524941458111 M 1280.3230282386926 103.0349230918 L 1280.321744051104 103.15102675555636 L 1280.3178916167558 103.2671188090431 L 1280.3114713208886 103.3831876431516 L 1280.3024838055262 103.4992216510952 L 1280.290929969413 103.61520922956979 L 1280.2768109679225 103.73113877991415 L 1280.2601282129438 103.8469987092699 L 1280.240883372738 103.9627774317406 L 1280.2190783717729 104.07846336955055 L 1280.194715390531 104.19404495420231 L 1280.1677968652896 104.30951062763378 L 1280.138325487879 104.42484884337381 L 1280.1063042054127 104.54004806769696 L 1280.0717362199916 104.65509678077679 L 1280.034624988386 104.76998347783784 L 1279.994974221688 104.88469667030618 L 1279.952787884941 104.99922488695815 L 1279.9080701967437 105.1135566750675 L 1279.8608256288276 105.22768060155073 L 1279.8110589056103 105.34158525411026 L 1279.7587750037223 105.45525924237577 L 1279.7039791515106 105.56869119904317 L 1279.6466768285145 105.68186978101132 L 1279.5868737649187 105.79478367051632 L 1279.5245759409795 105.90742157626333 L 1279.4597895864276 106.01977223455563 L 1279.3925211798444 106.13182441042103 L 1279.3227774480147 106.2435668987353 L 1279.2505653652531 106.35498852534273 L 1279.175892152708 106.46607814817354 L 1279.0987652776384 106.57682465835798 L 1279.0191924526675 106.68721698133734 L 1278.9371816350117 106.79724407797133 L 1278.852741025684 106.90689494564195 L 1278.7658790686753 107.01615861935382 L 1278.6766044501087 107.12502417283062 L 1278.5849260973719 107.23348071960771 L 1278.4908531782237 107.34151741412083 L 1278.3943950998776 107.44912345279052 L 1278.295561508061 107.5562880751026 L 1278.1943622860506 107.66300056468414 L 1278.0908075536845 107.76925025037511 L 1277.9849076663495 107.87502650729549 L 1277.876673213946 107.98031875790771 L 1277.7661150198296 108.08511647307448 L 1277.653244139727 108.1894091731116 L 1277.538071860632 108.29318642883598 L 1277.4206096996772 108.39643786260854 L 1277.3008694029804 108.49915314937192 L 1277.1788629444716 108.60132201768305 L 1277.0546025246947 108.70293425074024 L 1276.9281005695887 108.80397968740488 L 1276.799369729243 108.90444822321749 L 1276.6684228766348 109.0043298114082 L 1276.5352731063404 109.10361446390144 L 1276.3999337332252 109.20229225231469 L 1276.2624182911145 109.30035330895136 L 1276.1227405314373 109.39778782778748 L 1275.9809144218536 109.49458606545237 L 1275.836954144856 109.59073834220294 L 1275.6908740963522 109.68623504289161 L 1275.5426888842253 109.78106661792793 L 1275.392413326873 109.87522358423341 L 1275.240062451726 109.96869652618986 L 1275.0856514937448 110.061476096581 L 1274.9291958938966 110.15355301752712 L 1274.7707112976104 110.24491808141282 L 1274.6102135532146 110.33556215180788 L 1274.4477187103494 110.42547616438078 L 1274.283243018364 110.5146511278052 L 1274.11680292469 110.60307812465909 L 1273.9484150731985 110.69074831231649 L 1273.7780963025343 110.77765292383165 L 1273.6058636444325 110.86378326881588 L 1273.4317343220152 110.94913073430642 L 1273.2557257480696 111.03368678562788 L 1273.0778555233067 111.11744296724555 L 1272.8981414346006 111.2003909036111 L 1272.7166014532102 111.2825223 L 1272.5332537329825 111.36382894334106 L 1272.3481166085367 111.44430270303769 L 1272.1612085934312 111.52393553178099 L 1271.9725483783113 111.60271946635444 L 1271.782154829042 111.68064662843025 L 1271.5900469848186 111.75770922535715 L 1271.3962440562664 111.83389955093965 L 1271.200765423516 111.9092099862087 L 1271.0036306342683 111.9836330001835 L 1270.8048594018376 112.05716115062472 L 1270.6044716031818 112.12978708477856 L 1270.4024872769135 112.20150354011211 L 1270.198926621297 112.27230334503965 L 1269.9938099922285 112.34217941963963 L 1269.7871579011999 112.41112477636287 L 1269.578991013248 112.47913252073111 L 1269.369330144888 112.54619585202661 L 1269.1581962620323 112.61230806397214 L 1268.945610477893 112.67746254540155 L 1268.7315940508715 112.74165278092104 L 1268.5161683824322 112.80487235156053 L 1268.2993550149622 112.86711493541566 L 1268.0811756296177 112.92837430827987 L 1267.8616520441556 112.98864434426694 L 1267.6408062107512 113.04791901642352 L 1267.418660213804 113.10619239733178 L 1267.1952362677287 113.16345865970217 L 1266.9705567147332 113.21971207695618 L 1266.744644022586 113.27494702379899 L 1266.5175207823681 113.32915797678191 L 1266.289209706214 113.38233951485485 L 1266.0597336250412 113.43448631990829 L 1265.8291154862666 113.48559317730519 L 1265.597378351512 113.53565497640241 L 1265.3645453942972 113.58466671106174 L 1265.1306398977247 113.63262348015058 L 1264.8956852521487 113.67952048803197 L 1264.6597049528382 113.7253530450442 L 1264.4227225976263 113.77011656796977 L 1264.184761884551 113.81380658049369 L 1263.9458466094857 113.85641871365111 L 1263.7060006637582 113.89794870626423 L 1263.4652480317638 113.93839240536839 L 1263.2236127885649 113.9777457666274 L 1262.9811190974842 114.0160048547379 L 1262.737791207689 114.05316584382298 L 1262.4936534517656 114.0892250178147 L 1262.2487302432855 114.12417877082571 L 1262.0030460743662 114.15802360750982 L 1261.7566255132197 114.19075614341159 L 1261.5094932016964 114.2223731053047 L 1261.2616738528218 114.25287133151929 L 1261.0131922483242 114.28224777225817 L 1260.7640732361572 114.31049948990176 L 1260.514341728014 114.3376236593018 L 1260.2640226968374 114.36361756806399 L 1260.0131411743223 114.38847861681909 L 1259.7617222484114 114.41220431948295 L 1259.5097910607883 114.43479230350509 L 1259.2573728043612 114.45624031010593 L 1259.004492720746 114.47654619450265 L 1258.7511760977397 114.49570792612376 L 1258.497448266794 114.51372358881206 L 1258.2433346004805 114.5305913810163 L 1257.9888605099538 114.5463096159713 L 1257.7340514424113 114.56087672186668 L 1257.4789328785469 114.57429124200398 L 1257.223530330005 114.58655183494237 L 1256.9678693368269 114.59765727463277 L 1256.7119754648995 114.60760645054046 L 1256.4558743033965 114.61639836775615 L 1256.1995914622205 114.62403214709545 L 1255.9431525694422 114.63050702518677 L 1255.6865832687372 114.6358223545477 L 1255.429909216822 114.63997760364975 L 1255.173156080887 114.64297235697146 L 1254.916349536033 114.64480631504 L 1254.6595152626999 114.64547929446107 L 1254.4026789441007 114.64499122793733 L 1254.145866263654 114.64334216427498 L 1253.889102902413 114.64053226837903 L 1253.6324145365004 114.63656182123674 L 1253.3758268345389 114.63143121988952 L 1253.1193654550846 114.62514097739319 L 1252.863056044062 114.6176917227668 L 1252.6069242321983 114.60908420092959 L 1252.3509956324615 114.59931927262656 L 1252.095295837498 114.58839791434241 L 1251.8398504170746 114.57632121820387 L 1251.5846849155203 114.5630903918705 L 1251.3298248491726 114.54870675841389 L 1251.0752957038258 114.53317175618541 L 1250.821122932182 114.51648693867233 L 1250.567331951307 114.4986539743425 L 1250.3139481400874 114.47967464647749 L 1250.060996836693 114.45955085299428 L 1249.8085033360433 114.43828460625544 L 1249.556492887278 114.41587803286792 L 1249.304990691232 114.3923333734704 L 1249.0540218979154 114.36765298250918 L 1248.803611603998 114.3418393280028 L 1248.553784850301 114.3148949912952 L 1248.3045666192913 114.2868226667976 L 1248.0559818325846 114.25762516171906 L 1247.8080553484522 114.22730539578573 L 1247.5608119593358 114.19586640094897 L 1247.3142763893684 114.16331132108203 L 1247.0684732919017 114.12964341166581 L 1246.8234272470404 114.09486603946317 L 1246.5791627591848 114.05898268218235 L 1246.3357042545804 114.02199692812917 L 1246.0930760788742 113.98391247584823 L 1245.8513024946822 113.944733133753 L 1245.6104076791612 113.90446281974506 L 1245.3704157215916 113.86310556082225 L 1245.1313506209697 113.82066549267599 L 1244.893236283606 113.77714685927774 L 1244.656096520736 113.73255401245454 L 1244.4199550461383 113.68689141145396 L 1244.1848354737635 113.64016362249802 L 1243.9507613153728 113.59237531832667 L 1243.7177559781874 113.54353127773052 L 1243.4858427625466 113.49363638507293 L 1243.2550448595784 113.44269562980158 L 1243.0253853488814 113.39071410594954 L 1242.7968871962148 113.33769701162588 L 1242.5695732512036 113.28364964849587 L 1242.343466245053 113.22857742125075 L 1242.1185887882748 113.17248583706737 L 1241.8949633684276 113.1153805050574 L 1241.6726123478672 113.05726713570647 L 1241.45155796151 112.99815154030306 L 1241.2318223146106 112.93803963035747 L 1241.0134273805504 112.8769374170106 L 1240.7963949986413 112.81485101043285 L 1240.58074687194 112.75178661921315 L 1240.3665045650798 112.68775054973807 L 1240.153689502113 112.6227492055612 L 1239.942322964368 112.55678908676278 L 1239.732426088323 112.48987678929971 L 1239.5240198634904 112.42201900434601 L 1239.3171251303193 112.3532225176236 L 1239.11176257811 112.28349420872384 L 1238.9079527429474 112.2128410504195 L 1238.7057160056447 112.14127010796754 L 1238.505072589707 112.06878853840256 L 1238.306042559309 111.99540358982111 L 1238.1086458172874 111.9211226006569 L 1237.9129021031526 111.84595299894696 L 1237.7188309911123 111.76990230158879 L 1237.5264518881165 111.69297811358877 L 1237.3357840319147 111.6151881273016 L 1237.1468464891338 111.53654012166106 L 1236.9596581533708 111.45704196140221 L 1236.774237743303 111.3767015962748 L 1236.590603800817 111.2955270602484 L 1236.4087746891541 111.21352647070897 L 1236.228768591074 111.13070802764713 L 1236.0506035070364 111.04708001283818 L 1235.8742972534012 110.96265078901389 L 1235.6998674606468 110.8774287990263 L 1235.5273315716072 110.79142256500339 L 1235.3567068397276 110.70464068749688 L 1235.1880103273388 110.61709184462221 L 1235.0212589039518 110.52878479119072 L 1234.8564692445696 110.43972835783416 L 1234.693657828021 110.34993145012163 L 1234.532840935312 110.2594030476691 L 1234.3740346479976 110.16815220324135 L 1234.2172548465746 110.0761880418468 L 1234.0625172088924 109.98351975982494 L 1233.9098372085855 109.89015662392677 L 1233.7592301135269 109.79610797038806 L 1233.6107109843008 109.70138320399579 L 1233.464294672696 109.60599179714767 L 1233.319995820222 109.50994328890488 L 1233.1778288566434 109.4132472840382 L 1233.0378079985385 109.31591345206758 L 1232.899947247876 109.21795152629505 L 1232.7642603906165 109.11937130283158 L 1232.6307609953324 109.02018263961737 L 1232.4994624118522 108.92039545543608 L 1232.3703777699245 108.82001972892296 L 1232.243519977906 108.71906549756703 L 1232.1189017214706 108.6175428567073 L 1231.9965354623396 108.51546195852325 L 1231.8764334370371 108.41283301101961 L 1231.7586076556656 108.30966627700563 L 1231.643069900705 108.20597207306875 L 1231.5298317258346 108.10176076854292 L 1231.4189044547775 107.99704278447177 L 1231.3102991801682 107.89182859256644 L 1231.2040267624438 107.78612871415844 L 1231.1000978287575 107.67995371914753 L 1230.9985227719162 107.57331422494474 L 1230.8993117493405 107.4662208954106 L 1230.8024746820506 107.35868443978885 L 1230.708021253672 107.2507156116354 L 1230.615960909469 107.14232520774314 L 1230.5263028553995 107.0335240670621 L 1230.439056057194 106.92432306961568 L 1230.3542292394595 106.81473313541265 L 1230.2718308848075 106.70476522335508 L 1230.1918692330044 106.59443033014256 L 1230.1143522801488 106.48373948917244 L 1230.0392877778713 106.37270376943658 L 1229.9666832325602 106.26133427441445 L 1229.8965459046087 106.14964214096271 L 1229.8288828076916 106.03763853820165 L 1229.763700708062 105.92533466639821 L 1229.701006123876 105.81274175584596 L 1229.640805324539 105.69987106574217 L 1229.5831043300816 105.58673388306175 L 1229.5279089105547 105.47334152142872 L 1229.4752245854543 105.35970531998473 L 1229.4250566231688 105.24583664225523 L 1229.377410040453 105.1317468750131 L 1229.3322896019254 105.01744742714001 L 1229.289699819592 104.90294972848548 L 1229.2496449523958 104.78826522872397 L 1229.21212900579 104.67340539620987 L 1229.1771557313382 104.55838171683074 L 1229.1447286263385 104.44320569285864 L 1229.1148509334744 104.3278888418 L 1229.0875256404904 104.21244269524384 L 1229.0627554798928 104.09687879770858 L 1229.0405429286773 103.9812087054877 L 1229.0208902080801 103.86544398549403 L 1229.0037992833575 103.74959621410306 L 1228.9892718635872 103.63367697599544 L 1228.9773094014993 103.51769786299836 L 1228.9679130933298 103.40167047292647 L 1228.961083878702 103.28560640842208 L 1228.9568224405318 103.16951727579495 L 1228.9551292049591 103.05341468386156" stroke-miterlimit="10" stroke-width="2.990598758" stroke-dasharray=""/></g><g><text fill="black" stroke="none" font-family="sans-serif" font-size="11pt" font-style="normal" font-weight="normal" text-decoration="normal" x="1225.29763177063" y="133.521438666" text-anchor="start" dominant-baseline="alphabetic" xml:space="preserve">user.json</text></g></g><g><path fill="white" stroke="black" paint-order="fill stroke markers" d=" M 599.2703299958255 246.108686026 L 616.8620873958255 246.108686026 L 616.8620873958255 1755.4814709459995 L 599.2703299958255 1755.4814709459995 L 599.2703299958255 246.108686026" stroke-miterlimit="10" stroke-width="1.4659797833333332" stroke-dasharray=""/><path fill="white" stroke="black" paint-order="fill stroke markers" d=" M 833.2651549400312 295.36560674599997 L 850.8569123400312 295.36560674599997 L 850.8569123400312 1542.6212064059996 L 833.2651549400312 1542.6212064059996 L 833.2651549400312 295.36560674599997" stroke-miterlimit="10" stroke-width="1.4659797833333332" stroke-dasharray=""/><path fill="white" stroke="black" paint-order="fill stroke markers" d=" M 1074.582779566854 379.80604226599996 L 1092.174536966854 379.80604226599996 L 1092.174536966854 1058.8478779060001 L 1074.582779566854 1058.8478779060001 L 1074.582779566854 379.80604226599996" stroke-miterlimit="10" stroke-width="1.4659797833333332" stroke-dasharray=""/><path fill="white" stroke="black" paint-order="fill stroke markers" d=" M 1245.8431837346925 524.058452946 L 1263.4349411346925 524.058452946 L 1263.4349411346925 666.5516878860001 L 1245.8431837346925 666.5516878860001 L 1245.8431837346925 524.058452946" stroke-miterlimit="10" stroke-width="1.4659797833333332" stroke-dasharray=""/><g><g><rect fill="white" stroke="none" x="123.47660161884114" y="173.982480686" width="41.14723242019531" height="22.86928462"/></g><text fill="black" stroke="none" font-family="sans-serif" font-size="11pt" font-style="normal" font-weight="normal" text-decoration="normal" x="126.11536522884114" y="189.81506234600002" text-anchor="start" dominant-baseline="alphabetic" xml:space="preserve">Login</text></g><g><path fill="none" stroke="black" paint-order="fill stroke markers" d=" M 79.1629083 196.851765306 L 194.45364709854425 196.851765306" stroke-miterlimit="10" stroke-width="1.4659797833333332" stroke-dasharray=""/><g transform="translate(208.9375273578776,196.851765306) translate(-208.9375273578776,-196.851765306)"><path fill="black" stroke="none" paint-order="stroke fill markers" d=" M 194.27772952454427 189.52186638933333 L 208.9375273578776 196.851765306 L 194.27772952454427 204.18166422266668 Z"/></g></g><g><g><rect fill="white" stroke="none" x="131.4257678717669" y="223.23940140599998" width="191.85583532546875" height="22.86928462"/></g><text fill="black" stroke="none" font-family="sans-serif" font-size="11pt" font-style="normal" font-weight="normal" text-decoration="normal" x="134.06453148176692" y="239.071983066" text-anchor="start" dominant-baseline="alphabetic" xml:space="preserve">Enters Username, Password</text></g><g><path fill="none" stroke="black" paint-order="fill stroke markers" d=" M 79.1629083 246.108686026 L 361.0605825096693 246.108686026" stroke-miterlimit="10" stroke-width="1.4659797833333332" stroke-dasharray=""/><g transform="translate(375.5444627690026,246.108686026) translate(-375.5444627690026,-246.108686026)"><path fill="black" stroke="none" paint-order="stroke fill markers" d=" M 360.88466493566926 238.7787871093333 L 375.5444627690026 246.108686026 L 360.88466493566926 253.43858494266667 Z"/></g></g><g><g><rect fill="white" stroke="none" x="396.3613756923359" y="272.496322126" width="182.09204138015625" height="22.86928462"/></g><text fill="black" stroke="none" font-family="sans-serif" font-size="11pt" font-style="normal" font-weight="normal" text-decoration="normal" x="399.0001393023359" y="288.328903786" text-anchor="start" dominant-baseline="alphabetic" xml:space="preserve">login(username, password)</text></g><g><path fill="none" stroke="black" paint-order="fill stroke markers" d=" M 375.5444627690026 295.36560674599997 L 584.7864497364922 295.36560674599997" stroke-miterlimit="10" stroke-width="1.4659797833333332" stroke-dasharray=""/><g transform="translate(599.2703299958255,295.36560674599997) translate(-599.2703299958255,-295.36560674599997)"><path fill="black" stroke="none" paint-order="stroke fill markers" d=" M 584.6105321624922 288.0357078293333 L 599.2703299958255 295.36560674599997 L 584.6105321624922 302.6955056626666 Z"/></g></g><g><g><rect fill="white" stroke="none" x="664.5687479387877" y="321.753242846" width="120.98974645828125" height="22.86928462"/></g><g><rect fill="white" stroke="none" x="664.5687479387877" y="339.345000246" width="110.36697424148437" height="22.86928462"/></g><g><rect fill="white" stroke="none" x="664.5687479387877" y="356.936757646" width="107.10998571609375" height="22.86928462"/></g><text fill="black" stroke="none" font-family="sans-serif" font-size="11pt" font-style="normal" font-weight="normal" text-decoration="normal" x="667.2075115487877" y="337.585824506" text-anchor="start" dominant-baseline="alphabetic" xml:space="preserve">POST /auth/login </text><text fill="black" stroke="none" font-family="sans-serif" font-size="11pt" font-style="normal" font-weight="normal" text-decoration="normal" x="667.2075115487877" y="355.177581906" text-anchor="start" dominant-baseline="alphabetic" xml:space="preserve">       - Username</text><text fill="black" stroke="none" font-family="sans-serif" font-size="11pt" font-style="normal" font-weight="normal" text-decoration="normal" x="667.2075115487877" y="372.769339306" text-anchor="start" dominant-baseline="alphabetic" xml:space="preserve">       - Password</text></g><g><path fill="none" stroke="black" paint-order="fill stroke markers" d=" M 616.8620873958255 379.80604226599996 L 818.7812746806978 379.80604226599996" stroke-miterlimit="10" stroke-width="1.4659797833333332" stroke-dasharray="7.0367029599999995"/><g transform="translate(833.2651549400312,379.80604226599996) translate(-833.2651549400312,-379.80604226599996)"><path fill="black" stroke="none" paint-order="stroke fill markers" d=" M 818.6053571066979 372.4761433493333 L 833.2651549400312 379.80604226599996 L 818.6053571066979 387.1359411826666 Z"/></g></g><g><g><rect fill="white" stroke="none" x="871.6738252633645" y="406.193678366" width="182.09204138015625" height="22.86928462"/></g><text fill="black" stroke="none" font-family="sans-serif" font-size="11pt" font-style="normal" font-weight="normal" text-decoration="normal" x="874.3125888733645" y="422.026260026" text-anchor="start" dominant-baseline="alphabetic" xml:space="preserve">login(username, password)</text></g><g><path fill="none" stroke="black" paint-order="fill stroke markers" d=" M 850.8569123400312 429.06296298599995 L 1060.0988993075207 429.06296298599995" stroke-miterlimit="10" stroke-width="1.4659797833333332" stroke-dasharray=""/><g transform="translate(1074.582779566854,429.06296298599995) translate(-1074.582779566854,-429.06296298599995)"><path fill="black" stroke="none" paint-order="stroke fill markers" d=" M 1059.9229817335206 421.7330640693333 L 1074.582779566854 429.06296298599995 L 1059.9229817335206 436.3928619026666 Z"/></g></g><g><g><rect fill="white" stroke="none" x="1112.9914498901874" y="550.446089046" width="112.03482092117187" height="22.86928462"/></g><text fill="black" stroke="none" font-family="sans-serif" font-size="11pt" font-style="normal" font-weight="normal" text-decoration="normal" x="1115.6302135001874" y="566.278670706" text-anchor="start" dominant-baseline="alphabetic" xml:space="preserve">generateToken()</text></g><g><path fill="none" stroke="black" paint-order="fill stroke markers" d=" M 1092.174536966854 573.315373666 L 1231.3593034753592 573.315373666" stroke-miterlimit="10" stroke-width="1.4659797833333332" stroke-dasharray=""/><g transform="translate(1245.8431837346925,573.315373666) translate(-1245.8431837346925,-573.315373666)"><path fill="black" stroke="none" paint-order="stroke fill markers" d=" M 1231.183385901359 565.9854747493333 L 1245.8431837346925 573.315373666 L 1231.183385901359 580.6452725826667 Z"/></g></g><g><g><rect fill="white" stroke="none" x="1146.005045471242" y="599.703009766" width="46.007629759062496" height="22.86928462"/></g><text fill="black" stroke="none" font-family="sans-serif" font-size="11pt" font-style="normal" font-weight="normal" text-decoration="normal" x="1148.6438090812421" y="615.535591426" text-anchor="start" dominant-baseline="alphabetic" xml:space="preserve">save()</text></g><g><path fill="none" stroke="black" paint-order="fill stroke markers" d=" M 1092.174536966854 622.5722943860001 L 1231.3593034753592 622.5722943860001" stroke-miterlimit="10" stroke-width="1.4659797833333332" stroke-dasharray=""/><g transform="translate(1245.8431837346925,622.5722943860001) translate(-1245.8431837346925,-622.5722943860001)"><path fill="black" stroke="none" paint-order="stroke fill markers" d=" M 1231.183385901359 615.2423954693334 L 1245.8431837346925 622.5722943860001 L 1231.183385901359 629.9021933026668 Z"/></g></g><g><g><rect fill="white" stroke="none" x="923.42039966522" y="692.9393239860001" width="78.59889257644531" height="22.86928462"/></g><text fill="black" stroke="none" font-family="sans-serif" font-size="11pt" font-style="italic" font-weight="normal" text-decoration="normal" x="926.0591632752199" y="708.771905646" text-anchor="start" dominant-baseline="alphabetic" xml:space="preserve">return User</text></g><g><path fill="none" stroke="black" paint-order="fill stroke markers" d=" M 1074.582779566854 715.8086086060001 L 865.3407925993645 715.8086086060001" stroke-miterlimit="10" stroke-width="1.4659797833333332" stroke-dasharray=""/><g transform="translate(850.8569123400312,715.8086086060001) translate(-850.8569123400312,-715.8086086060001)"><path fill="black" stroke="none" paint-order="stroke fill markers" d=" M 865.5167101733645 708.4787096893334 L 850.8569123400312 715.8086086060001 L 865.5167101733645 723.1385075226668 Z"/></g></g><g><g><rect fill="white" stroke="none" x="927.4862565988137" y="816.0816257860001" width="70.46717870925781" height="22.86928462"/></g><text fill="black" stroke="none" font-family="sans-serif" font-size="11pt" font-style="italic" font-weight="normal" text-decoration="normal" x="930.1250202088137" y="831.9142074460001" text-anchor="start" dominant-baseline="alphabetic" xml:space="preserve">return null</text></g><g><path fill="none" stroke="black" paint-order="fill stroke markers" d=" M 1074.582779566854 838.9509104060002 L 865.3407925993645 838.9509104060002" stroke-miterlimit="10" stroke-width="1.4659797833333332" stroke-dasharray=""/><g transform="translate(850.8569123400312,838.9509104060002) translate(-850.8569123400312,-838.9509104060002)"><path fill="black" stroke="none" paint-order="stroke fill markers" d=" M 865.5167101733645 831.6210114893335 L 850.8569123400312 838.9509104060002 L 865.5167101733645 846.2808093226669 Z"/></g></g><g><g><rect fill="white" stroke="none" x="927.4862565988137" y="965.6115636860002" width="70.46717870925781" height="22.86928462"/></g><text fill="black" stroke="none" font-family="sans-serif" font-size="11pt" font-style="italic" font-weight="normal" text-decoration="normal" x="930.1250202088137" y="981.4441453460001" text-anchor="start" dominant-baseline="alphabetic" xml:space="preserve">return null</text></g><g><path fill="none" stroke="black" paint-order="fill stroke markers" d=" M 1074.582779566854 988.4808483060002 L 865.3407925993645 988.4808483060002" stroke-miterlimit="10" stroke-width="1.4659797833333332" stroke-dasharray=""/><g transform="translate(850.8569123400312,988.4808483060002) translate(-850.8569123400312,-988.4808483060002)"><path fill="black" stroke="none" paint-order="stroke fill markers" d=" M 865.5167101733645 981.1509493893335 L 850.8569123400312 988.4808483060002 L 865.5167101733645 995.8107472226669 Z"/></g></g><g><g><rect fill="white" stroke="none" x="668.6524958025573" y="1132.733258986" width="112.82225073074218" height="22.86928462"/></g><g><rect fill="white" stroke="none" x="668.6524958025573" y="1150.325016386" width="54.168014890898434" height="22.86928462"/></g><g><rect fill="white" stroke="none" x="668.6524958025573" y="1167.916773786" width="98.14793432449218" height="22.86928462"/></g><g><rect fill="white" stroke="none" x="668.6524958025573" y="1185.508531186" width="94.89094579910156" height="22.86928462"/></g><g><rect fill="white" stroke="none" x="668.6524958025573" y="1203.100288586" width="112.27821386550781" height="22.86928462"/></g><text fill="black" stroke="none" font-family="sans-serif" font-size="11pt" font-style="normal" font-weight="normal" text-decoration="normal" x="671.2912594125572" y="1148.565840646" text-anchor="start" dominant-baseline="alphabetic" xml:space="preserve">HEAD 200 - OK </text><text fill="black" stroke="none" font-family="sans-serif" font-size="11pt" font-style="normal" font-weight="normal" text-decoration="normal" x="671.2912594125572" y="1166.157598046" text-anchor="start" dominant-baseline="alphabetic" xml:space="preserve">BODY: </text><text fill="black" stroke="none" font-family="sans-serif" font-size="11pt" font-style="normal" font-weight="normal" text-decoration="normal" x="671.2912594125572" y="1183.749355446" text-anchor="start" dominant-baseline="alphabetic" xml:space="preserve">    - Username</text><text fill="black" stroke="none" font-family="sans-serif" font-size="11pt" font-style="normal" font-weight="normal" text-decoration="normal" x="671.2912594125572" y="1201.341112846" text-anchor="start" dominant-baseline="alphabetic" xml:space="preserve">    - Password</text><text fill="black" stroke="none" font-family="sans-serif" font-size="11pt" font-style="normal" font-weight="normal" text-decoration="normal" x="671.2912594125572" y="1218.932870246" text-anchor="start" dominant-baseline="alphabetic" xml:space="preserve">    - admin: True </text></g><g><path fill="none" stroke="black" paint-order="fill stroke markers" d=" M 833.2651549400312 1225.969573206 L 631.3459676551588 1225.969573206" stroke-miterlimit="10" stroke-width="1.4659797833333332" stroke-dasharray="7.0367029599999995"/><g transform="translate(616.8620873958255,1225.969573206) translate(-616.8620873958255,-1225.969573206)"><path fill="black" stroke="none" paint-order="stroke fill markers" d=" M 631.5218852291588 1218.6396742893332 L 616.8620873958255 1225.969573206 L 631.5218852291588 1233.2994721226667 Z"/></g></g><g><g><rect fill="white" stroke="none" x="668.6524958025573" y="1299.8549542859998" width="112.82225073074218" height="22.86928462"/></g><g><rect fill="white" stroke="none" x="668.6524958025573" y="1317.4467116859998" width="54.168014890898434" height="22.86928462"/></g><g><rect fill="white" stroke="none" x="668.6524958025573" y="1335.0384690859998" width="98.14793432449218" height="22.86928462"/></g><g><rect fill="white" stroke="none" x="668.6524958025573" y="1352.6302264859999" width="94.89094579910156" height="22.86928462"/></g><text fill="black" stroke="none" font-family="sans-serif" font-size="11pt" font-style="normal" font-weight="normal" text-decoration="normal" x="671.2912594125572" y="1315.6875359459998" text-anchor="start" dominant-baseline="alphabetic" xml:space="preserve">HEAD 200 - OK </text><text fill="black" stroke="none" font-family="sans-serif" font-size="11pt" font-style="normal" font-weight="normal" text-decoration="normal" x="671.2912594125572" y="1333.2792933459998" text-anchor="start" dominant-baseline="alphabetic" xml:space="preserve">BODY: </text><text fill="black" stroke="none" font-family="sans-serif" font-size="11pt" font-style="normal" font-weight="normal" text-decoration="normal" x="671.2912594125572" y="1350.8710507459998" text-anchor="start" dominant-baseline="alphabetic" xml:space="preserve">    - Username</text><text fill="black" stroke="none" font-family="sans-serif" font-size="11pt" font-style="normal" font-weight="normal" text-decoration="normal" x="671.2912594125572" y="1368.4628081459998" text-anchor="start" dominant-baseline="alphabetic" xml:space="preserve">    - Password</text></g><g><path fill="none" stroke="black" paint-order="fill stroke markers" d=" M 833.2651549400312 1375.4995111059998 L 631.3459676551588 1375.4995111059998" stroke-miterlimit="10" stroke-width="1.4659797833333332" stroke-dasharray="7.0367029599999995"/><g transform="translate(616.8620873958255,1375.4995111059998) translate(-616.8620873958255,-1375.4995111059998)"><path fill="black" stroke="none" paint-order="stroke fill markers" d=" M 631.5218852291588 1368.169612189333 L 616.8620873958255 1375.4995111059998 L 631.5218852291588 1382.8294100226665 Z"/></g></g><g><g><rect fill="white" stroke="none" x="637.6790003191588" y="1449.3848921859997" width="174.76924169753906" height="22.86928462"/></g><text fill="black" stroke="none" font-family="sans-serif" font-size="11pt" font-style="normal" font-weight="normal" text-decoration="normal" x="640.3177639291588" y="1465.2174738459996" text-anchor="start" dominant-baseline="alphabetic" xml:space="preserve">HEAD 401 - Unauthorized</text></g><g><path fill="none" stroke="black" paint-order="fill stroke markers" d=" M 833.2651549400312 1472.2541768059996 L 631.3459676551588 1472.2541768059996" stroke-miterlimit="10" stroke-width="1.4659797833333332" stroke-dasharray="7.0367029599999995"/><g transform="translate(616.8620873958255,1472.2541768059996) translate(-616.8620873958255,-1472.2541768059996)"><path fill="black" stroke="none" paint-order="stroke fill markers" d=" M 631.5218852291588 1464.9242778893329 L 616.8620873958255 1472.2541768059996 L 631.5218852291588 1479.5840757226663 Z"/></g></g><g><g><rect fill="white" stroke="none" x="397.98985469624216" y="1569.0088425059996" width="178.83508337234375" height="22.86928462"/></g><text fill="black" stroke="none" font-family="sans-serif" font-size="11pt" font-style="italic" font-weight="normal" text-decoration="normal" x="400.6286183062422" y="1584.8414241659996" text-anchor="start" dominant-baseline="alphabetic" xml:space="preserve"> return Observable&lt;User&gt; </text></g><g><path fill="none" stroke="black" paint-order="fill stroke markers" d=" M 599.2703299958255 1591.8781271259995 L 390.02834302833594 1591.8781271259995" stroke-miterlimit="10" stroke-width="1.4659797833333332" stroke-dasharray="7.0367029599999995"/><g transform="translate(375.5444627690026,1591.8781271259995) translate(-375.5444627690026,-1591.8781271259995)"><path fill="black" stroke="none" paint-order="stroke fill markers" d=" M 390.204260602336 1584.5482282093328 L 375.5444627690026 1591.8781271259995 L 390.204260602336 1599.2080260426662 Z"/></g></g><g><g><rect fill="white" stroke="none" x="637.6790003191588" y="1665.7635082059994" width="137.27461279128906" height="22.86928462"/></g><text fill="black" stroke="none" font-family="sans-serif" font-size="11pt" font-style="italic" font-weight="normal" text-decoration="normal" x="640.3177639291588" y="1681.5960898659994" text-anchor="start" dominant-baseline="alphabetic" xml:space="preserve"> Update currentUser</text></g><g><path fill="none" stroke="black" paint-order="fill stroke markers" d=" M 616.8620873958255 1688.6327928259996 L 687.2291169958255 1688.6327928259996 L 687.2291169958255 1711.5020774459995 L 631.3459676551588 1711.5020774459995" stroke-miterlimit="10" stroke-width="1.4659797833333332" stroke-dasharray="7.0367029599999995"/><g transform="translate(616.8620873958255,1711.5020774459995) translate(-616.8620873958255,-1711.5020774459995)"><path fill="black" stroke="none" paint-order="stroke fill markers" d=" M 631.5218852291588 1704.1721785293328 L 616.8620873958255 1711.5020774459995 L 631.5218852291588 1718.8319763626662 Z"/></g></g><g><g><rect fill="white" stroke="none" x="353.7156587381406" y="1781.8691070459995" width="109.57241857742187" height="22.86928462"/></g><text fill="black" stroke="none" font-family="sans-serif" font-size="11pt" font-style="italic" font-weight="normal" text-decoration="normal" x="356.3544223481406" y="1797.7016887059995" text-anchor="start" dominant-baseline="alphabetic" xml:space="preserve"> Fetch new user</text></g><g><path fill="none" stroke="black" paint-order="fill stroke markers" d=" M 208.9375273578776 1804.7383916659994 L 593.5823284364922 1804.7383916659994" stroke-miterlimit="10" stroke-width="1.4659797833333332" stroke-dasharray="7.0367029599999995"/><g transform="translate(608.0662086958255,1804.7383916659994) translate(-608.0662086958255,-1804.7383916659994)"><path fill="black" stroke="none" paint-order="stroke fill markers" d=" M 593.4064108624922 1797.4084927493327 L 608.0662086958255 1804.7383916659994 L 593.4064108624922 1812.0682905826661 Z"/></g></g><g><g><rect fill="white" stroke="none" x="99.97982122333333" y="1875.1054212659994" width="88.14079321121093" height="22.86928462"/></g><text fill="black" stroke="none" font-family="sans-serif" font-size="11pt" font-style="normal" font-weight="normal" text-decoration="normal" x="102.61858483333333" y="1890.9380029259994" text-anchor="start" dominant-baseline="alphabetic" xml:space="preserve">Update View</text></g><g><path fill="none" stroke="black" paint-order="fill stroke markers" d=" M 208.9375273578776 1897.9747058859994 L 93.64678855933333 1897.9747058859994" stroke-miterlimit="10" stroke-width="1.4659797833333332" stroke-dasharray=""/><g transform="translate(79.1629083,1897.9747058859994) translate(-79.1629083,-1897.9747058859994)"><path fill="black" stroke="none" paint-order="stroke fill markers" d=" M 93.82270613333333 1890.6448069693326 L 79.1629083 1897.9747058859994 L 93.82270613333333 1905.304604802666 Z"/></g></g><g><g><rect fill="white" stroke="none" x="129.38568303289972" y="1971.8600869659992" width="195.93600500320312" height="22.86928462"/></g><text fill="black" stroke="none" font-family="sans-serif" font-size="11pt" font-style="normal" font-weight="normal" text-decoration="normal" x="132.02444664289973" y="1987.6926686259992" text-anchor="start" dominant-baseline="alphabetic" xml:space="preserve">Invalid Username / Password</text></g><g><path fill="none" stroke="black" paint-order="fill stroke markers" d=" M 375.5444627690026 1994.7293715859992 L 93.64678855933333 1994.7293715859992" stroke-miterlimit="10" stroke-width="1.4659797833333332" stroke-dasharray=""/><g transform="translate(79.1629083,1994.7293715859992) translate(-79.1629083,-1994.7293715859992)"><path fill="black" stroke="none" paint-order="stroke fill markers" d=" M 93.82270613333333 1987.3994726693325 L 79.1629083 1994.7293715859992 L 93.82270613333333 2002.0592705026659 Z"/></g></g><g><g/><path fill="none" stroke="black" paint-order="fill stroke markers" d=" M 754.1022466400311 455.45059908599995 L 1325.0060920346925 455.45059908599995 L 1325.0060920346925 891.7261826060002 L 754.1022466400311 891.7261826060002 L 754.1022466400311 455.45059908599995 Z" stroke-miterlimit="10" stroke-width="2.5131082" stroke-dasharray=""/><path fill="white" stroke="black" paint-order="fill stroke markers" d=" M 754.1022466400311 455.45059908599995 L 754.1022466400311 476.56070796599994 L 796.4508920552655 476.56070796599994 L 807.0059464952656 466.00565352599995 L 807.0059464952656 455.45059908599995 L 754.1022466400311 455.45059908599995" stroke-miterlimit="10" stroke-width="2.5131082" stroke-dasharray=""/><text fill="black" stroke="none" font-family="sans-serif" font-size="8.8pt" font-style="normal" font-weight="bold" text-decoration="normal" x="771.6940040400311" y="469.5240050059999" text-anchor="start" dominant-baseline="alphabetic" xml:space="preserve">if</text><text fill="black" stroke="none" font-family="sans-serif" font-size="8.8pt" font-style="normal" font-weight="bold" text-decoration="normal" x="824.5977038952656" y="469.5240050059999" text-anchor="start" dominant-baseline="alphabetic" xml:space="preserve">[User exists]</text></g><g><g/><path fill="none" stroke="black" paint-order="fill stroke markers" d=" M 771.6940040400311 502.948344066 L 1307.4143346346925 502.948344066 L 1307.4143346346925 742.1962447060001 L 771.6940040400311 742.1962447060001 L 771.6940040400311 502.948344066 Z" stroke-miterlimit="10" stroke-width="2.5131082" stroke-dasharray=""/><path fill="white" stroke="black" paint-order="fill stroke markers" d=" M 771.6940040400311 502.948344066 L 771.6940040400311 524.058452946 L 814.0426494552655 524.058452946 L 824.5977038952656 513.503398506 L 824.5977038952656 502.948344066 L 771.6940040400311 502.948344066" stroke-miterlimit="10" stroke-width="2.5131082" stroke-dasharray=""/><text fill="black" stroke="none" font-family="sans-serif" font-size="8.8pt" font-style="normal" font-weight="bold" text-decoration="normal" x="789.2857614400311" y="517.021749986" text-anchor="start" dominant-baseline="alphabetic" xml:space="preserve">if</text><text fill="black" stroke="none" font-family="sans-serif" font-size="8.8pt" font-style="normal" font-weight="bold" text-decoration="normal" x="842.1894612952656" y="517.021749986" text-anchor="start" dominant-baseline="alphabetic" xml:space="preserve">[Passwords Match]</text></g><g><g/><path fill="none" stroke="black" paint-order="fill stroke markers" d=" M 771.6940040400311 768.5838808060001 L 1144.949809166854 768.5838808060001 L 1144.949809166854 865.3385465060002 L 771.6940040400311 865.3385465060002 L 771.6940040400311 768.5838808060001 Z" stroke-miterlimit="10" stroke-width="2.5131082" stroke-dasharray=""/><path fill="white" stroke="black" paint-order="fill stroke markers" d=" M 771.6940040400311 768.5838808060001 L 771.6940040400311 789.6939896860001 L 829.7074748947186 789.6939896860001 L 840.2625293347187 779.1389352460002 L 840.2625293347187 768.5838808060001 L 771.6940040400311 768.5838808060001" stroke-miterlimit="10" stroke-width="2.5131082" stroke-dasharray=""/><text fill="black" stroke="none" font-family="sans-serif" font-size="8.8pt" font-style="normal" font-weight="bold" text-decoration="normal" x="789.2857614400311" y="782.6572867260002" text-anchor="start" dominant-baseline="alphabetic" xml:space="preserve">else</text><text fill="black" stroke="none" font-family="sans-serif" font-size="8.8pt" font-style="normal" font-weight="bold" text-decoration="normal" x="857.8542867347187" y="782.6572867260002" text-anchor="start" dominant-baseline="alphabetic" xml:space="preserve">[Passwords Differ]</text></g><g><g/><path fill="none" stroke="black" paint-order="fill stroke markers" d=" M 771.6940040400311 918.1138187060002 L 1144.949809166854 918.1138187060002 L 1144.949809166854 1014.8684844060002 L 771.6940040400311 1014.8684844060002 L 771.6940040400311 918.1138187060002 Z" stroke-miterlimit="10" stroke-width="2.5131082" stroke-dasharray=""/><path fill="white" stroke="black" paint-order="fill stroke markers" d=" M 771.6940040400311 918.1138187060002 L 771.6940040400311 939.2239275860002 L 829.7074748947186 939.2239275860002 L 840.2625293347187 928.6688731460002 L 840.2625293347187 918.1138187060002 L 771.6940040400311 918.1138187060002" stroke-miterlimit="10" stroke-width="2.5131082" stroke-dasharray=""/><text fill="black" stroke="none" font-family="sans-serif" font-size="8.8pt" font-style="normal" font-weight="bold" text-decoration="normal" x="789.2857614400311" y="932.1872246260002" text-anchor="start" dominant-baseline="alphabetic" xml:space="preserve">else</text><text fill="black" stroke="none" font-family="sans-serif" font-size="8.8pt" font-style="normal" font-weight="bold" text-decoration="normal" x="857.8542867347187" y="932.1872246260002" text-anchor="start" dominant-baseline="alphabetic" xml:space="preserve">[User not found]</text></g><g><g/><path fill="none" stroke="black" paint-order="fill stroke markers" d=" M 537.6991790958255 1085.235514006 L 903.6321845400312 1085.235514006 L 903.6321845400312 1498.6418129059996 L 537.6991790958255 1498.6418129059996 L 537.6991790958255 1085.235514006 Z" stroke-miterlimit="10" stroke-width="2.5131082" stroke-dasharray=""/><path fill="white" stroke="black" paint-order="fill stroke markers" d=" M 537.6991790958255 1085.235514006 L 537.6991790958255 1106.345622886 L 586.5714908928958 1106.345622886 L 597.1265453328958 1095.790568446 L 597.1265453328958 1085.235514006 L 537.6991790958255 1085.235514006" stroke-miterlimit="10" stroke-width="2.5131082" stroke-dasharray=""/><text fill="black" stroke="none" font-family="sans-serif" font-size="8.8pt" font-style="normal" font-weight="bold" text-decoration="normal" x="555.2909364958255" y="1099.308919926" text-anchor="start" dominant-baseline="alphabetic" xml:space="preserve">alt</text><text fill="black" stroke="none" font-family="sans-serif" font-size="8.8pt" font-style="normal" font-weight="bold" text-decoration="normal" x="614.7183027328958" y="1099.308919926" text-anchor="start" dominant-baseline="alphabetic" xml:space="preserve">[if User is admin]</text><g><path fill="none" stroke="black" paint-order="fill stroke markers" d=" M 537.6991790958255 1252.3572093059997 L 903.6321845400312 1252.3572093059997" stroke-miterlimit="10" stroke-width="2.5131082" stroke-dasharray="4.39793935"/></g><g/><text fill="black" stroke="none" font-family="sans-serif" font-size="8.8pt" font-style="normal" font-weight="bold" text-decoration="normal" x="614.7183027328958" y="1266.4306152259999" text-anchor="start" dominant-baseline="alphabetic" xml:space="preserve">[else if User is not admin]</text><g><path fill="none" stroke="black" paint-order="fill stroke markers" d=" M 537.6991790958255 1401.8871472059996 L 903.6321845400312 1401.8871472059996" stroke-miterlimit="10" stroke-width="2.5131082" stroke-dasharray="4.39793935"/></g><g/><text fill="black" stroke="none" font-family="sans-serif" font-size="8.8pt" font-style="normal" font-weight="bold" text-decoration="normal" x="614.7183027328958" y="1415.9605531259997" text-anchor="start" dominant-baseline="alphabetic" xml:space="preserve">[else no such User]</text></g><g/><g/><g><g/><path fill="none" stroke="black" paint-order="fill stroke markers" d=" M 17.591757400000006 1618.2657632259993 L 781.1107282004479 1618.2657632259993 L 781.1107282004479 2065.096401185999 L 17.591757400000006 2065.096401185999 L 17.591757400000006 1618.2657632259993 Z" stroke-miterlimit="10" stroke-width="2.5131082" stroke-dasharray=""/><path fill="white" stroke="black" paint-order="fill stroke markers" d=" M 17.591757400000006 1618.2657632259993 L 17.591757400000006 1639.3758721059994 L 66.46406919707032 1639.3758721059994 L 77.01912363707032 1628.8208176659994 L 77.01912363707032 1618.2657632259993 L 17.591757400000006 1618.2657632259993" stroke-miterlimit="10" stroke-width="2.5131082" stroke-dasharray=""/><text fill="black" stroke="none" font-family="sans-serif" font-size="8.8pt" font-style="normal" font-weight="bold" text-decoration="normal" x="35.183514800000005" y="1632.3391691459994" text-anchor="start" dominant-baseline="alphabetic" xml:space="preserve">alt</text><text fill="black" stroke="none" font-family="sans-serif" font-size="8.8pt" font-style="normal" font-weight="bold" text-decoration="normal" x="94.61088103707033" y="1632.3391691459994" text-anchor="start" dominant-baseline="alphabetic" xml:space="preserve">[HTTP 200]</text><g><path fill="none" stroke="black" paint-order="fill stroke markers" d=" M 17.591757400000006 1924.3623419859991 L 781.1107282004479 1924.3623419859991" stroke-miterlimit="10" stroke-width="2.5131082" stroke-dasharray="4.39793935"/></g><g/><text fill="black" stroke="none" font-family="sans-serif" font-size="8.8pt" font-style="normal" font-weight="bold" text-decoration="normal" x="94.61088103707033" y="1938.4357479059993" text-anchor="start" dominant-baseline="alphabetic" xml:space="preserve">[HTTP 401]</text></g><g/></g><g/></g></svg>