<svg version="1.1" xmlns="http://www.w3.org/2000/svg" xmlns:xlink="http://www.w3.org/1999/xlink" width="1452" height="979"><desc>title%20Update%20Item%3A%20Sequence%20Diagram%0A%0Aactor%20%22Admin%22%20as%20admin%0A%0A%23%20UI%20Stuff%0Aparticipant%20%22%3AAppComponent%22%20as%20App%0Aparticipant%20%22%3AManageItems%22%20as%20Manage%0Aparticipant%20%22%3AUpdateItemsComponent%22%20as%20Update%0A%0A%0A%23%20Services%0Aparticipant%20%22%3AItemService%22%20as%20Items%0A%0A%23%20Backend%0A%0Aparticipant%20%22%3AInventoryController%22%20as%20InventoryController%0Aparticipant%20%22%3AInventoryFileDAO%22%20as%20InventoryDAO%0A%0Adatabase%20%22items.json%22%20as%20db%0A%0A%23%20Connections%0A%0A%23%20Admin%20goes%20to%20manage.%0A%0Aactivate%20App%0Aadmin-%3EApp%3A%20Navigate%20to%20Manage%20Items%20Page%0Adeactivateafter%20App%0A%0A%0A%0A%0A%23%20Update%20and%20supply%20details%0A%0A%0Aactivate%20Manage%0Aactivate%20Update%0Aadmin-%3EManage%3A%20Click%20Update%20Item%20%0A%0Aadmin-%3EUpdate%3AEnter%20price%2C%20quantity%3B%20submit%0A%0A%23%20Submit%0AUpdate-%3EManage%3A%20emit(form.value)%0A%0Adeactivateafter%20Update%0A%0AManage-%3EItems%3AupdateItem(item)%0A%0A%23%20Http%0A%0Aactivate%20InventoryController%0A%0AItems-%3EInventoryController%3APUT%20%2Finventory%5Cn%20%20%20%20-%20Item%20%7Bname%2C%20price%2C%20quantity%7D%0A%0A%23%20Internals%0A%0Aactivate%20InventoryDAO%0A%0AInventoryController-%3EInventoryDAO%3AupdateItem(item)%0AInventoryDAO-%3EInventoryDAO%3Aitems.put(id%2C%20item)%0AInventoryDAO-%3Edb%3A%20save()%0A%0A%23%20Send%20back%20result.%0AInventoryDAO-%3EInventoryController%3A%20%2F%2Freturn%20item%2F%2F%0A%0Adeactivateafter%20InventoryDAO%0A%0AInventoryController--%3EItems%3A%2F%2FHTTP%20200%2F%2F%5Cn%20%20%20%20Body%3A%20item%0Adeactivateafter%20InventoryController%0A%23%20%0AItems--%3EManage%3A%2F%2Freturn%20Observable%3CItem%3E%2F%2F%0A%0AManage-%3EManage%3AUpdate%20in%20Items%20List%0A%0AManage-%3Eadmin%3AShow%20updated%20item%0A%0Adeactivateafter%20Manage%0A</desc><defs/><g><g/><g/><g/><g/><g/><g/><g/><g/><g/><g/><g/><g/><g/><g/><g/><g/><g/><g/><g/><g/><g/><g/><g/><g/><g><rect fill="white" stroke="none" x="0" y="0" width="1452" height="979"/></g><g><text fill="black" stroke="none" font-family="sans-serif" font-size="16.5pt" font-style="normal" font-weight="normal" text-decoration="normal" x="565.8685426917162" y="26.3876361" text-anchor="start" dominant-baseline="alphabetic" xml:space="preserve">Update Item: Sequence Diagram</text></g><g/><g><path fill="none" stroke="black" paint-order="fill stroke markers" d=" M 29.572535804492187 138.798965886 L 29.572535804492187 979.684969606" stroke-miterlimit="10" stroke-width="1.4659797833333332" stroke-dasharray="13.532121076923076,5.863919133333333"/><path fill="none" stroke="black" paint-order="fill stroke markers" d=" M 294.71421581334636 138.798965886 L 294.71421581334636 979.684969606" stroke-miterlimit="10" stroke-width="1.4659797833333332" stroke-dasharray="13.532121076923076,5.863919133333333"/><path fill="none" stroke="black" paint-order="fill stroke markers" d=" M 449.90025278697135 138.798965886 L 449.90025278697135 979.684969606" stroke-miterlimit="10" stroke-width="1.4659797833333332" stroke-dasharray="13.532121076923076,5.863919133333333"/><path fill="none" stroke="black" paint-order="fill stroke markers" d=" M 633.60096108628 138.798965886 L 633.60096108628 979.684969606" stroke-miterlimit="10" stroke-width="1.4659797833333332" stroke-dasharray="13.532121076923076,5.863919133333333"/><path fill="none" stroke="black" paint-order="fill stroke markers" d=" M 811.5894196297293 138.798965886 L 811.5894196297293 979.684969606" stroke-miterlimit="10" stroke-width="1.4659797833333332" stroke-dasharray="13.532121076923076,5.863919133333333"/><path fill="none" stroke="black" paint-order="fill stroke markers" d=" M 1071.0045371385834 138.798965886 L 1071.0045371385834 979.684969606" stroke-miterlimit="10" stroke-width="1.4659797833333332" stroke-dasharray="13.532121076923076,5.863919133333333"/><path fill="none" stroke="black" paint-order="fill stroke markers" d=" M 1250.614310684474 138.798965886 L 1250.614310684474 979.684969606" stroke-miterlimit="10" stroke-width="1.4659797833333332" stroke-dasharray="13.532121076923076,5.863919133333333"/><path fill="none" stroke="black" paint-order="fill stroke markers" d=" M 1408.1541762584325 138.798965886 L 1408.1541762584325 979.684969606" stroke-miterlimit="10" stroke-width="1.4659797833333332" stroke-dasharray="13.532121076923076,5.863919133333333"/></g><g><g><path fill="white" stroke="black" paint-order="fill stroke markers" d=" M 39.59983752249219 64.385832084 A 10.027301717999999 10.027301717999999 0 1 1 39.59983250884174 64.37580478395321 M 29.572535804492187 74.41313380199999 L 29.572535804492187 95.87507782999998 M 16.90647047649219 82.153507058 L 42.238601132492185 82.153507058 M 29.572535804492187 95.87507782999998 L 16.90647047649219 115.92968126599999 M 29.572535804492187 95.87507782999998 L 42.238601132492185 115.92968126599999" stroke-miterlimit="10" stroke-width="2.990598758" stroke-dasharray=""/></g><g><text fill="black" stroke="none" font-family="sans-serif" font-size="11pt" font-style="normal" font-weight="normal" text-decoration="normal" x="8.7958787" y="133.521438666" text-anchor="start" dominant-baseline="alphabetic" xml:space="preserve">Admin</text></g><path fill="none" stroke="none"/><g><path fill="white" stroke="black" paint-order="fill stroke markers" d=" M 222.65293875846743 91.47713848000001 L 366.77549286822523 91.47713848000001 L 366.77549286822523 138.79896588600002 L 222.65293875846743 138.79896588600002 L 222.65293875846743 91.47713848000001 Z" stroke-miterlimit="10" stroke-width="2.814681184" stroke-dasharray=""/></g><g><text fill="black" stroke="none" font-family="sans-serif" font-size="11pt" font-style="normal" font-weight="normal" text-decoration="normal" x="241.73999553746745" y="121.20720848599998" text-anchor="start" dominant-baseline="alphabetic" xml:space="preserve">:AppComponent</text></g><path fill="none" stroke="none"/><g><path fill="white" stroke="black" paint-order="fill stroke markers" d=" M 384.36725026822523 91.47713848000001 L 515.4332553057175 91.47713848000001 L 515.4332553057175 138.79896588600002 L 384.36725026822523 138.79896588600002 L 384.36725026822523 91.47713848000001 Z" stroke-miterlimit="10" stroke-width="2.814681184" stroke-dasharray=""/></g><g><text fill="black" stroke="none" font-family="sans-serif" font-size="11pt" font-style="normal" font-weight="normal" text-decoration="normal" x="403.45430704722526" y="121.20720848599998" text-anchor="start" dominant-baseline="alphabetic" xml:space="preserve">:ManageItems</text></g><path fill="none" stroke="none"/><g><path fill="white" stroke="black" paint-order="fill stroke markers" d=" M 533.0250127057175 91.47713848000001 L 734.1769094668425 91.47713848000001 L 734.1769094668425 138.79896588600002 L 533.0250127057175 138.79896588600002 L 533.0250127057175 91.47713848000001 Z" stroke-miterlimit="10" stroke-width="2.814681184" stroke-dasharray=""/></g><g><text fill="black" stroke="none" font-family="sans-serif" font-size="11pt" font-style="normal" font-weight="normal" text-decoration="normal" x="552.1120694847175" y="121.20720848599998" text-anchor="start" dominant-baseline="alphabetic" xml:space="preserve">:UpdateItemsComponent</text></g><path fill="none" stroke="none"/><g><path fill="white" stroke="black" paint-order="fill stroke markers" d=" M 751.7686668668425 91.47713848000001 L 871.410172392616 91.47713848000001 L 871.410172392616 138.79896588600002 L 751.7686668668425 138.79896588600002 L 751.7686668668425 91.47713848000001 Z" stroke-miterlimit="10" stroke-width="2.814681184" stroke-dasharray=""/></g><g><text fill="black" stroke="none" font-family="sans-serif" font-size="11pt" font-style="normal" font-weight="normal" text-decoration="normal" x="770.8557236458425" y="121.20720848599998" text-anchor="start" dominant-baseline="alphabetic" xml:space="preserve">:ItemService</text></g><path fill="none" stroke="none"/><g><path fill="white" stroke="black" paint-order="fill stroke markers" d=" M 987.9554518561654 91.47713848000001 L 1154.0536224210014 91.47713848000001 L 1154.0536224210014 138.79896588600002 L 987.9554518561654 138.79896588600002 L 987.9554518561654 91.47713848000001 Z" stroke-miterlimit="10" stroke-width="2.814681184" stroke-dasharray=""/></g><g><text fill="black" stroke="none" font-family="sans-serif" font-size="11pt" font-style="normal" font-weight="normal" text-decoration="normal" x="1007.0425086351654" y="121.20720848599998" text-anchor="start" dominant-baseline="alphabetic" xml:space="preserve">:InventoryController</text></g><path fill="none" stroke="none"/><g><path fill="white" stroke="black" paint-order="fill stroke markers" d=" M 1171.6453798210014 91.47713848000001 L 1329.5832415479467 91.47713848000001 L 1329.5832415479467 138.79896588600002 L 1171.6453798210014 138.79896588600002 L 1171.6453798210014 91.47713848000001 Z" stroke-miterlimit="10" stroke-width="2.814681184" stroke-dasharray=""/></g><g><text fill="black" stroke="none" font-family="sans-serif" font-size="11pt" font-style="normal" font-weight="normal" text-decoration="normal" x="1190.7324366000014" y="121.20720848599998" text-anchor="start" dominant-baseline="alphabetic" xml:space="preserve">:InventoryFileDAO</text></g><g><path fill="white" stroke="black" paint-order="fill stroke markers" d=" M 1382.4702104544324 104.31912138199999 L 1382.4702104544324 67.37643084199999 L 1433.8381420624326 67.37643084199999 L 1433.8381420624326 104.31912138199999" stroke-miterlimit="10" stroke-width="2.990598758" stroke-dasharray=""/><path fill="white" stroke="black" paint-order="fill stroke markers" d=" M 1433.8381420624326 66.0922325518 L 1433.8368578748439 66.20833621555636 L 1433.8330054404958 66.3244282690431 L 1433.8265851446286 66.4404971031516 L 1433.8175976292662 66.5565311110952 L 1433.8060437931529 66.67251868956978 L 1433.7919247916625 66.78844823991415 L 1433.7752420366837 66.9043081692699 L 1433.755997196478 67.0200868917406 L 1433.7341921955128 67.13577282955055 L 1433.709829214271 67.25135441420231 L 1433.6829106890295 67.36682008763378 L 1433.653439311619 67.48215830337381 L 1433.6214180291527 67.59735752769696 L 1433.5868500437316 67.71240624077679 L 1433.549738812126 67.82729293783784 L 1433.510088045428 67.94200613030618 L 1433.467901708681 68.05653434695814 L 1433.4231840204836 68.1708661350675 L 1433.3759394525675 68.28499006155073 L 1433.3261727293502 68.39889471411026 L 1433.2738888274623 68.51256870237577 L 1433.2190929752505 68.62600065904317 L 1433.1617906522545 68.73917924101131 L 1433.1019875886586 68.85209313051632 L 1433.0396897647195 68.96473103626333 L 1432.9749034101676 69.07708169455563 L 1432.9076350035843 69.18913387042103 L 1432.8378912717546 69.3008763587353 L 1432.765679188993 69.41229798534273 L 1432.691005976448 69.52338760817354 L 1432.6138791013784 69.63413411835798 L 1432.5343062764075 69.74452644133734 L 1432.4522954587517 69.85455353797133 L 1432.367854849424 69.96420440564195 L 1432.2809928924153 70.07346807935382 L 1432.1917182738487 70.18233363283062 L 1432.100039921112 70.29079017960771 L 1432.0059670019637 70.39882687412083 L 1431.9095089236175 70.50643291279052 L 1431.810675331801 70.6135975351026 L 1431.7094761097906 70.72031002468414 L 1431.6059213774245 70.82655971037511 L 1431.5000214900895 70.93233596729549 L 1431.391787037686 71.03762821790771 L 1431.2812288435696 71.14242593307448 L 1431.1683579634669 71.2467186331116 L 1431.053185684372 71.35049588883598 L 1430.9357235234172 71.45374732260854 L 1430.8159832267204 71.55646260937192 L 1430.6939767682115 71.65863147768304 L 1430.5697163484347 71.76024371074024 L 1430.4432143933286 71.86128914740488 L 1430.314483552983 71.96175768321748 L 1430.1835367003748 72.0616392714082 L 1430.0503869300803 72.16092392390144 L 1429.9150475569652 72.25960171231469 L 1429.7775321148545 72.35766276895136 L 1429.6378543551773 72.45509728778748 L 1429.4960282455936 72.55189552545237 L 1429.352067968596 72.64804780220294 L 1429.2059879200922 72.74354450289161 L 1429.0578027079653 72.83837607792793 L 1428.907527150613 72.93253304423341 L 1428.755176275466 73.02600598618986 L 1428.6007653174847 73.118785556581 L 1428.4443097176365 73.21086247752712 L 1428.2858251213504 73.30222754141282 L 1428.1253273769546 73.39287161180788 L 1427.9628325340893 73.48278562438078 L 1427.7983568421039 73.5719605878052 L 1427.63191674843 73.66038758465909 L 1427.4635288969384 73.74805777231649 L 1427.2932101262743 73.83496238383165 L 1427.1209774681724 73.92109272881588 L 1426.9468481457552 74.00644019430642 L 1426.7708395718096 74.09099624562788 L 1426.5929693470466 74.17475242724555 L 1426.4132552583405 74.2577003636111 L 1426.2317152769501 74.33983176 L 1426.0483675567225 74.42113840334106 L 1425.8632304322766 74.50161216303769 L 1425.6763224171711 74.58124499178099 L 1425.4876622020513 74.66002892635444 L 1425.297268652782 74.73795608843025 L 1425.1051608085586 74.81501868535715 L 1424.9113578800063 74.89120901093965 L 1424.715879247256 74.9665194462087 L 1424.5187444580083 75.0409424601835 L 1424.3199732255775 75.11447061062472 L 1424.1195854269217 75.18709654477856 L 1423.9176011006534 75.25881300011211 L 1423.714040445037 75.32961280503964 L 1423.5089238159685 75.39948887963963 L 1423.3022717249398 75.46843423636287 L 1423.094104836988 75.53644198073111 L 1422.884443968628 75.60350531202661 L 1422.6733100857723 75.66961752397214 L 1422.460724301633 75.73477200540155 L 1422.2467078746115 75.79896224092104 L 1422.0312822061721 75.86218181156053 L 1421.8144688387022 75.92442439541566 L 1421.5962894533577 75.98568376827987 L 1421.3767658678955 76.04595380426694 L 1421.1559200344911 76.10522847642352 L 1420.933774037544 76.16350185733178 L 1420.7103500914686 76.22076811970217 L 1420.4856705384732 76.27702153695618 L 1420.259757846326 76.33225648379899 L 1420.032634606108 76.38646743678191 L 1419.804323529954 76.43964897485485 L 1419.5748474487812 76.49179577990829 L 1419.3442293100065 76.54290263730519 L 1419.1124921752519 76.59296443640241 L 1418.8796592180372 76.64197617106174 L 1418.6457537214646 76.68993294015058 L 1418.4107990758887 76.73682994803197 L 1418.1748187765781 76.7826625050442 L 1417.9378364213662 76.82742602796976 L 1417.699875708291 76.87111604049369 L 1417.4609604332256 76.91372817365111 L 1417.2211144874982 76.95525816626423 L 1416.9803618555038 76.99570186536839 L 1416.7387266123048 77.03505522662739 L 1416.4962329212242 77.0733143147379 L 1416.252905031429 77.11047530382298 L 1416.0087672755055 77.1465344778147 L 1415.7638440670255 77.1814882308257 L 1415.5181598981062 77.21533306750982 L 1415.2717393369596 77.24806560341159 L 1415.0246070254364 77.2796825653047 L 1414.7767876765618 77.31018079151929 L 1414.5283060720642 77.33955723225817 L 1414.2791870598971 77.36780894990176 L 1414.029455551754 77.3949331193018 L 1413.7791365205774 77.42092702806399 L 1413.5282549980623 77.44578807681908 L 1413.2768360721514 77.46951377948295 L 1413.0249048845283 77.49210176350509 L 1412.7724866281012 77.51354977010593 L 1412.519606544486 77.53385565450264 L 1412.2662899214797 77.55301738612376 L 1412.012562090534 77.57103304881205 L 1411.7584484242204 77.58790084101629 L 1411.5039743336938 77.6036190759713 L 1411.2491652661513 77.61818618186668 L 1410.9940467022868 77.63160070200398 L 1410.7386441537449 77.64386129494237 L 1410.4829831605668 77.65496673463277 L 1410.2270892886395 77.66491591054046 L 1409.9709881271365 77.67370782775615 L 1409.7147052859605 77.68134160709545 L 1409.4582663931822 77.68781648518677 L 1409.2016970924772 77.6931318145477 L 1408.9450230405619 77.69728706364975 L 1408.688269904627 77.70028181697145 L 1408.431463359773 77.70211577504 L 1408.1746290864398 77.70278875446107 L 1407.9177927678406 77.70230068793732 L 1407.660980087394 77.70065162427498 L 1407.404216726153 77.69784172837903 L 1407.1475283602404 77.69387128123674 L 1406.8909406582789 77.68874067988952 L 1406.6344792788245 77.68245043739319 L 1406.378169867802 77.6750011827668 L 1406.1220380559382 77.66639366092959 L 1405.8661094562015 77.65662873262656 L 1405.610409661238 77.64570737434241 L 1405.3549642408145 77.63363067820387 L 1405.0997987392602 77.6203998518705 L 1404.8449386729126 77.60601621841388 L 1404.5904095275657 77.59048121618541 L 1404.336236755922 77.57379639867233 L 1404.082445775047 77.5559634343425 L 1403.8290619638274 77.53698410647749 L 1403.576110660433 77.51686031299428 L 1403.3236171597832 77.49559406625544 L 1403.071606711018 77.47318749286792 L 1402.820104514972 77.44964283347039 L 1402.5691357216554 77.42496244250918 L 1402.318725427738 77.3991487880028 L 1402.068898674041 77.3722044512952 L 1401.8196804430313 77.3441321267976 L 1401.5710956563246 77.31493462171906 L 1401.3231691721921 77.28461485578573 L 1401.0759257830757 77.25317586094897 L 1400.8293902131084 77.22062078108203 L 1400.5835871156416 77.18695287166581 L 1400.3385410707804 77.15217549946317 L 1400.0942765829247 77.11629214218235 L 1399.8508180783203 77.07930638812917 L 1399.6081899026142 77.04122193584823 L 1399.3664163184221 77.002042593753 L 1399.1255215029012 76.96177227974506 L 1398.8855295453316 76.92041502082225 L 1398.6464644447096 76.87797495267598 L 1398.408350107346 76.83445631927773 L 1398.1712103444759 76.78986347245454 L 1397.9350688698783 76.74420087145396 L 1397.6999492975035 76.69747308249802 L 1397.4658751391128 76.64968477832667 L 1397.2328698019273 76.60084073773052 L 1397.0009565862865 76.55094584507293 L 1396.7701586833184 76.50000508980158 L 1396.5404991726214 76.44802356594954 L 1396.3120010199548 76.39500647162588 L 1396.0846870749435 76.34095910849587 L 1395.858580068793 76.28588688125075 L 1395.6337026120148 76.22979529706737 L 1395.4100771921676 76.1726899650574 L 1395.1877261716072 76.11457659570647 L 1394.96667178525 76.05546100030305 L 1394.7469361383505 75.99534909035746 L 1394.5285412042904 75.9342468770106 L 1394.3115088223813 75.87216047043285 L 1394.09586069568 75.80909607921315 L 1393.8816183888198 75.74506000973807 L 1393.6688033258529 75.6800586655612 L 1393.457436788108 75.61409854676278 L 1393.247539912063 75.54718624929971 L 1393.0391336872303 75.47932846434601 L 1392.8322389540592 75.4105319776236 L 1392.62687640185 75.34080366872384 L 1392.4230665666873 75.2701505104195 L 1392.2208298293845 75.19857956796754 L 1392.020186413447 75.12609799840256 L 1391.821156383049 75.05271304982111 L 1391.6237596410274 74.9784320606569 L 1391.4280159268926 74.90326245894695 L 1391.2339448148523 74.82721176158879 L 1391.0415657118565 74.75028757358876 L 1390.8508978556547 74.67249758730159 L 1390.6619603128738 74.59384958166106 L 1390.4747719771108 74.51435142140221 L 1390.289351567043 74.4340110562748 L 1390.105717624557 74.3528365202484 L 1389.923888512894 74.27083593070897 L 1389.743882414814 74.18801748764713 L 1389.5657173307764 74.10438947283818 L 1389.3894110771412 74.01996024901389 L 1389.2149812843868 73.9347382590263 L 1389.0424453953472 73.84873202500339 L 1388.8718206634676 73.76195014749688 L 1388.7031241510788 73.67440130462221 L 1388.5363727276917 73.58609425119072 L 1388.3715830683095 73.49703781783415 L 1388.208771651761 73.40724091012163 L 1388.047954759052 73.3167125076691 L 1387.8891484717376 73.22546166324135 L 1387.7323686703146 73.1334975018468 L 1387.5776310326323 73.04082921982494 L 1387.4249510323255 72.94746608392677 L 1387.2743439372668 72.85341743038806 L 1387.1258248080408 72.75869266399579 L 1386.979408496436 72.66330125714767 L 1386.835109643962 72.56725274890488 L 1386.6929426803833 72.4705567440382 L 1386.5529218222784 72.37322291206758 L 1386.415061071616 72.27526098629505 L 1386.2793742143565 72.17668076283158 L 1386.1458748190723 72.07749209961737 L 1386.0145762355921 71.97770491543608 L 1385.8854915936645 71.87732918892296 L 1385.758633801646 71.77637495756703 L 1385.6340155452106 71.6748523167073 L 1385.5116492860795 71.57277141852325 L 1385.391547260777 71.47014247101961 L 1385.2737214794056 71.36697573700563 L 1385.158183724445 71.26328153306875 L 1385.0449455495745 71.15907022854292 L 1384.9340182785174 71.05435224447177 L 1384.8254130039081 70.94913805256644 L 1384.7191405861838 70.84343817415844 L 1384.6152116524975 70.73726317914753 L 1384.5136365956562 70.63062368494474 L 1384.4144255730805 70.5235303554106 L 1384.3175885057906 70.41599389978884 L 1384.223135077412 70.3080250716354 L 1384.131074733209 70.19963466774314 L 1384.0414166791395 70.0908335270621 L 1383.954169880934 69.98163252961568 L 1383.8693430631995 69.87204259541265 L 1383.7869447085475 69.76207468335508 L 1383.7069830567443 69.65173979014256 L 1383.6294661038887 69.54104894917243 L 1383.5544016016115 69.43001322943658 L 1383.4817970563001 69.31864373441445 L 1383.4116597283487 69.20695160096271 L 1383.3439966314315 69.09494799820165 L 1383.278814531802 68.98264412639821 L 1383.2161199476159 68.87005121584596 L 1383.155919148279 68.75718052574217 L 1383.0982181538216 68.64404334306175 L 1383.0430227342947 68.53065098142872 L 1382.9903384091942 68.41701477998473 L 1382.9401704469087 68.30314610225523 L 1382.892523864193 68.1890563350131 L 1382.8474034256653 68.07475688714001 L 1382.804813643332 67.96025918848548 L 1382.7647587761357 67.84557468872397 L 1382.72724282953 67.73071485620987 L 1382.6922695550782 67.61569117683074 L 1382.6598424500785 67.50051515285864 L 1382.6299647572143 67.3851983018 L 1382.6026394642304 67.26975215524384 L 1382.5778693036327 67.15418825770858 L 1382.5556567524172 67.0385181654877 L 1382.53600403182 66.92275344549402 L 1382.5189131070974 66.80690567410306 L 1382.5043856873272 66.69098643599544 L 1382.4924232252392 66.57500732299836 L 1382.4830269170698 66.45897993292647 L 1382.476197702442 66.34291586842208 L 1382.4719362642718 66.22682673579494 L 1382.470243028699 66.11072414386156 L 1382.471118165046 65.99461970278438 L 1382.4745615857998 65.87852502291076 L 1382.4805729466214 65.76245171361194 L 1382.4891516463795 65.64641138212212 L 1382.5002968272113 65.53041563237775 L 1382.5140073746081 65.41447606385715 L 1382.5302819175265 65.29860427042055 L 1382.549118828526 65.18281183915073 L 1382.570516223931 65.06711034919432 L 1382.5944719640197 64.95151137060391 L 1382.620983653238 64.83602646318103 L 1382.6500486404395 64.72066717532017 L 1382.6816640191494 64.60544504285399 L 1382.715826627856 64.49037158789972 L 1382.7525330503272 64.37545831770696 L 1382.7917796159513 64.26071672350696 L 1382.8335624001043 64.14615827936355 L 1382.8778772245428 64.03179444102564 L 1382.9247196578212 63.917636644781794 L 1382.974085015735 63.80369630631649 L 1383.0259683617899 63.68998481956863 L 1383.0803645076944 63.57651355559212 L 1383.137268013879 63.46329386141881 L 1383.1966731900409 63.35033705892376 L 1383.2585740957115 63.237654443693096 L 1383.3229645408524 63.125257283894435 L 1383.3898380864723 63.0131568191501 L 1383.4591880452726 62.90136425941313 L 1383.531007482315 62.78989078384635 L 1383.605289215716 62.67874753970443 L 1383.6820258173639 62.56794564121916 L 1383.7612096136622 62.45749616848805 L 1383.842832686298 62.34741016636633 L 1383.9268868730312 62.23769864336248 L 1384.013363768514 62.12837257053737 L 1384.1022547251282 62.01944288040719 L 1384.1935508538527 61.91092046585016 L 1384.2872430251505 61.80281617901732 L 1384.3833218698826 61.69514083024725 L 1384.4817777802446 61.587905186985104 L 1384.5826009107275 61.48111997270585 L 1384.6857811791022 61.37479586584192 L 1384.791308267428 61.2689434987154 L 1384.8991716230837 61.16357345647479 L 1385.009360459824 61.05869627603652 L 1385.1218637588568 60.954322445031224 L 1385.236670269946 60.85046240075503 L 1385.3537685125361 60.74712652912581 L 1385.4731467769006 60.644325163644616 L 1385.5947931253127 60.54206858436233 L 1385.7186953932385 60.440367016851674 L 1385.8448411905545 60.339230631184634 L 1385.9732179027865 60.2386695409155 L 1386.1038126923697 60.13869380206951 L 1386.2366124999346 60.03931341213722 L 1386.3716040456106 59.94053830907482 L 1386.5087738303557 59.84237837031029 L 1386.648108137306 59.74484341175572 L 1386.7895930331467 59.64794318682568 L 1386.9332143695062 59.55168738546191 L 1387.0789577843705 59.45608563316434 L 1387.2268087035195 59.361147490028536 L 1387.3767523419847 59.266882449789684 L 1387.5287737055269 59.173299938873264 L 1387.6828575921368 59.08040931545237 L 1387.838988593554 58.988219868511955 L 1387.9971510968082 58.89674081691987 L 1388.157329285781 58.805981308505054 L 1388.3195071427874 58.715950419142715 L 1388.4836684501765 58.62665715184676 L 1388.6497967919543 58.5381104358695 L 1388.8178755554252 58.450319125808754 L 1388.9878879328528 58.36329200072237 L 1389.159816923141 58.277037763250334 L 1389.3336453335344 58.19156503874451 L 1389.5093557813364 58.10688237440612 L 1389.686930695649 58.022998238431036 L 1389.8663523191283 57.93992101916295 L 1390.0476027097618 57.85765902425456 L 1390.2306637426616 57.776220479836795 L 1390.4155171118766 57.695613529696246 L 1390.602144332224 57.61584623446075 L 1390.7905267411375 57.53692657079335 L 1390.980645500533 57.45886243059466 L 1391.1724815986931 57.38166162021363 L 1391.366015852168 57.30533185966698 L 1391.5612289076932 57.229880781867145 L 1391.758101244126 57.155315931859036 L 1391.956613174397 57.08164476606552 L 1392.1567448474786 57.008874651541774 L 1392.3584762503701 56.93701286523862 L 1392.5617872100993 56.866066593274795 L 1392.7666573957397 56.79604293021838 L 1392.9730663204434 56.726948878377314 L 1393.1809933434902 56.658791347099225 L 1393.3904176723508 56.591577152080426 L 1393.601318364767 56.525313014684414 L 1393.813674330845 56.4600055612697 L 1394.0274643351656 56.39566132252722 L 1394.242666998906 56.332286732827214 L 1394.4592608019798 56.26988812957585 L 1394.6772240851867 56.20847175258143 L 1394.8965350523804 56.14804374343051 L 1395.1171717726465 56.08861014487363 L 1395.339112182497 56.03017690022111 L 1395.5623340880759 55.972749852748734 L 1395.7868151673788 55.91633474511339 L 1396.0125329724847 55.86093721877882 L 1396.2394649318012 55.80656281345151 L 1396.4675883523214 55.753216966526665 L 1396.6968804218934 55.70090501254454 L 1396.9273182115014 55.649632182656916 L 1397.1588786775583 55.59940360410408 L 1397.3915386642107 55.550224299702016 L 1397.6252749056537 55.50209918734018 L 1397.8600640284578 55.45503307948971 L 1398.0958825539064 55.40903068272217 L 1398.332706900344 55.3640965972389 L 1398.5705133855324 55.320235316411 L 1398.809278229022 55.27745122633 L 1399.048977554527 55.23574860536927 L 1399.2895873923148 55.19513162375613 L 1399.5310836816022 55.15560434315492 L 1399.7734422729613 55.11717071626074 L 1400.016638930735 55.07983458640426 L 1400.2606493354604 55.04359968716735 L 1400.5054490863 55.00846964200974 L 1400.7510137034828 54.974447963906684 L 1400.997318630752 54.941538054997615 L 1401.24433923782 54.90974320624601 L 1401.4920508228317 54.87906659711026 L 1401.7404286148353 54.849511295225696 L 1401.9894477762584 54.82108025609789 L 1402.2390834053926 54.79377632280706 L 1402.4893105388828 54.76760222572378 L 1402.7401041542241 54.742560582235946 L 1402.9914391722643 54.71865389648704 L 1403.2432904597108 54.695884559125716 L 1403.4956328316448 54.674254847066734 L 1403.7484410540394 54.65376692326327 L 1404.001689846283 54.63442283649064 L 1404.2553538837074 54.616224521141405 L 1404.5094078001202 54.599173797031916 L 1404.7638261903417 54.583272369220396 L 1405.0185836127446 54.56852182783636 L 1405.273654591799 54.55492364792166 L 1405.5290136206197 54.54247918928296 L 1405.7846351635167 54.53118969635575 L 1406.0404936585483 54.52105629807991 L 1406.2965635200787 54.51208000778683 L 1406.5528191413348 54.504261723098054 L 1406.8092348969683 54.497602225835536 L 1407.0657851456172 54.49210218194346 L 1407.3224442324702 54.487762141421626 L 1407.5791864918328 54.484582538270466 L 1407.835986249693 54.482563690447655 L 1408.0928178262886 54.481705799836284 L 1408.3496555386766 54.4820089522247 L 1408.6064737032993 54.48347311729792 L 1408.8632466385545 54.486098148640664 L 1409.1199486673627 54.48988378375197 L 1409.3765541197345 54.49482964407149 L 1409.633037335339 54.50093523501731 L 1409.8893726660683 54.50819994603543 L 1410.1455344786027 54.5166230506608 L 1410.4014971569745 54.52620370658997 L 1410.6572351051293 54.53694095576534 L 1410.9127227494853 54.54883372447093 L 1411.167934541491 54.56188082343979 L 1411.4228449601796 54.5760809479729 L 1411.6774285147221 54.591432678069616 L 1411.9316597469751 54.607934478569746 L 1412.185513234027 54.62558469930698 L 1412.4389635907407 54.644381575273954 L 1412.6919854722921 54.66432322679874 L 1412.9445535767034 54.685407659732796 L 1413.1966426473748 54.70763276565041 L 1413.4482274756094 54.7309963220595 L 1413.6992829031342 54.75549599262389 L 1413.9497838246152 54.78112932739696 L 1414.1997051901692 54.80789376306658 L 1414.449022007868 54.83578662321149 L 1414.6977093462376 54.86480511856891 L 1414.9457423367514 54.89494634731351 L 1415.1930961763169 54.9262072953475 L 1415.4397461297563 54.95858483660216 L 1415.68566753228 54.99207573335032 L 1415.9308357919524 55.02667663653023 L 1416.1752263921521 55.0623840860804 L 1416.4188148940225 55.09919451128564 L 1416.6615769389166 55.13710423113409 L 1416.9034882508322 55.17610945468536 L 1417.1445246388394 55.2162062814496 L 1417.3846619995006 55.25739070177756 L 1417.6238763192798 55.29965859726151 L 1417.8621436769442 55.34300574114714 L 1418.0994402459569 55.38742779875617 L 1418.3357422968584 55.43292032791987 L 1418.5710261996405 55.47947877942322 L 1418.8052684261095 55.527098497459875 L 1419.0384455522374 55.57577472009772 L 1419.270534260506 55.62550257975505 L 1419.5015113422382 55.67627710368733 L 1419.7313536999181 55.728093214484495 L 1419.9600383495015 55.78094573057864 L 1420.1875424227137 55.83482936676219 L 1420.4138431693375 55.88973873471644 L 1420.6389179594864 55.945668343550345 L 1420.8627442858692 56.002612600349636 L 1421.0852997660397 56.06056581073608 L 1421.3065621446353 56.11952217943694 L 1421.5265092956026 56.179475810864474 L 1421.74511922441 56.24042070970549 L 1421.9623700702462 56.30235078152091 L 1422.1782401082082 56.36525983335514 L 1422.3927077514718 56.42914157435544 L 1422.6057515534515 56.49398961640093 L 1422.8173502099446 56.55979747474145 L 1423.0274825612619 56.62655856864601 L 1423.2361275943433 56.69426622206085 L 1423.4432644448593 56.76291366427705 L 1423.6488723992977 56.83249403060759 L 1423.852930897034 56.903000363073836 L 1424.0554195323887 56.97442561110128 L 1424.2563180566672 57.04676263222465 L 1424.455606380184 57.120004192802114 L 1424.6532645742734 57.19414296873864 L 1424.8492728732801 57.26917154621842 L 1425.0436116765381 57.34508242244624 L 1425.2362615503287 57.421868006397716 L 1425.4272032298252 57.49952061957846 L 1425.6164176210186 57.57803249679186 L 1425.8038858026275 57.657395786915615 L 1425.9895890279902 57.73760255368685 L 1426.1735087269385 57.81864477649573 L 1426.3556265076563 57.9005143511875 L 1426.5359241585168 57.983203090872934 L 1426.7143836499054 58.06670272674695 L 1426.8909871360217 58.15100490891555 L 1427.0657169566641 58.23610120723078 L 1427.2385556389963 58.32198311213371 L 1427.4094858992942 58.40864203550541 L 1427.5784906446738 58.49606931152578 L 1427.7455529748017 58.58425619754006 L 1427.9106561835843 58.67319387493313 L 1428.0737837608376 58.76287345001139 L 1428.2349193939406 58.853285954892044 L 1428.394046969464 58.944422348399954 L 1428.5511505747827 59.03627351697172 L 1428.706214499667 59.12883027556701 L 1428.8592232378542 59.222083368587114 L 1429.0101614885973 59.31602347080043 L 1429.1590141581974 59.41064118827504 L 1429.3057663615116 59.50592705931801 L 1429.4504034234417 59.60187155542167 L 1429.5929108804019 59.698465082216345 L 1429.7332744817656 59.79569798042986 L 1429.8714801912895 59.89356052685341 L 1430.007514188518 59.99204293531392 L 1430.1413628701644 60.0911353576526 L 1430.273012851472 60.1908278847098 L 1430.4024509675528 60.29111054731588 L 1430.5296642747028 60.39197331728817 L 1430.6546400516975 60.4934061084337 L 1430.777365801063 60.5953987775579 L 1430.897829250327 60.69794112547884 L 1431.0160183532446 60.80102289804719 L 1431.1319212910043 60.90463378717158 L 1431.245526473409 61.00876343184945 L 1431.3568225400345 61.113401419203115 L 1431.4657983613677 61.218537285521016 L 1431.5724430399166 61.32416051730415 L 1431.6767459113028 61.43026055231736 L 1431.7786965453256 61.53682678064554 L 1431.8782847470068 61.643848545754686 L 1431.9755005576092 61.75131514555746 L 1432.0703342556326 61.85921583348345 L 1432.1627763577865 61.96753981955375 L 1432.2528176199373 62.07627627146005 L 1432.3404490380342 62.18541431564777 L 1432.4256618490085 62.29494303840343 L 1432.5084475316498 62.404851486946036 L 1432.5887978074588 62.515128670522316 L 1432.6667046414752 62.62576356150581 L 1432.7421602430802 62.736745096499625 L 1432.8151570667767 62.84806217744274 L 1432.8856878129432 62.959703672719826 L 1432.9537454285637 63.07165841827438 L 1433.0193231079334 63.18391521872516 L 1433.082414293339 63.29646284848565 L 1433.1430126757148 63.409290052886675 L 1433.2011121952726 63.52238554930181 L 1433.2567070421092 63.63573802827567 L 1433.309791656786 63.7493361546548 L 1433.360360730886 63.86316856872124 L 1433.4084092075439 63.97722388732845 L 1433.453932281952 64.09149070503959 L 1433.4969254018408 64.20595759526815 L 1433.537384267934 64.32061311142046 L 1433.575304834379 64.43544578804045 L 1433.6106833091505 64.55044414195618 L 1433.6435161544307 64.66559667342807 L 1433.6738000869625 64.78089186729893 L 1433.7015320783776 64.89631819414548 L 1433.7267093555 65.0118641114312 L 1433.749329400623 65.12751806466063 L 1433.7693899517612 65.24326848853487 L 1433.786889002876 65.35910380810796 L 1433.8018248040767 65.47501243994449 L 1433.814195861796 65.59098279327785 L 1433.824000938938 65.70700327116936 L 1433.8312390550036 65.8230622716679 L 1433.8359094861871 65.93914818897015 L 1433.838011765449 66.05524941458111 M 1433.8381420624326 103.0349230918 L 1433.8368578748439 103.15102675555636 L 1433.8330054404958 103.2671188090431 L 1433.8265851446286 103.3831876431516 L 1433.8175976292662 103.4992216510952 L 1433.8060437931529 103.61520922956979 L 1433.7919247916625 103.73113877991415 L 1433.7752420366837 103.8469987092699 L 1433.755997196478 103.9627774317406 L 1433.7341921955128 104.07846336955055 L 1433.709829214271 104.19404495420231 L 1433.6829106890295 104.30951062763378 L 1433.653439311619 104.42484884337381 L 1433.6214180291527 104.54004806769696 L 1433.5868500437316 104.65509678077679 L 1433.549738812126 104.76998347783784 L 1433.510088045428 104.88469667030618 L 1433.467901708681 104.99922488695815 L 1433.4231840204836 105.1135566750675 L 1433.3759394525675 105.22768060155073 L 1433.3261727293502 105.34158525411026 L 1433.2738888274623 105.45525924237577 L 1433.2190929752505 105.56869119904317 L 1433.1617906522545 105.68186978101132 L 1433.1019875886586 105.79478367051632 L 1433.0396897647195 105.90742157626333 L 1432.9749034101676 106.01977223455563 L 1432.9076350035843 106.13182441042103 L 1432.8378912717546 106.2435668987353 L 1432.765679188993 106.35498852534273 L 1432.691005976448 106.46607814817354 L 1432.6138791013784 106.57682465835798 L 1432.5343062764075 106.68721698133734 L 1432.4522954587517 106.79724407797133 L 1432.367854849424 106.90689494564195 L 1432.2809928924153 107.01615861935382 L 1432.1917182738487 107.12502417283062 L 1432.100039921112 107.23348071960771 L 1432.0059670019637 107.34151741412083 L 1431.9095089236175 107.44912345279052 L 1431.810675331801 107.5562880751026 L 1431.7094761097906 107.66300056468414 L 1431.6059213774245 107.76925025037511 L 1431.5000214900895 107.87502650729549 L 1431.391787037686 107.98031875790771 L 1431.2812288435696 108.08511647307448 L 1431.1683579634669 108.1894091731116 L 1431.053185684372 108.29318642883598 L 1430.9357235234172 108.39643786260854 L 1430.8159832267204 108.49915314937192 L 1430.6939767682115 108.60132201768305 L 1430.5697163484347 108.70293425074024 L 1430.4432143933286 108.80397968740488 L 1430.314483552983 108.90444822321749 L 1430.1835367003748 109.0043298114082 L 1430.0503869300803 109.10361446390144 L 1429.9150475569652 109.20229225231469 L 1429.7775321148545 109.30035330895136 L 1429.6378543551773 109.39778782778748 L 1429.4960282455936 109.49458606545237 L 1429.352067968596 109.59073834220294 L 1429.2059879200922 109.68623504289161 L 1429.0578027079653 109.78106661792793 L 1428.907527150613 109.87522358423341 L 1428.755176275466 109.96869652618986 L 1428.6007653174847 110.061476096581 L 1428.4443097176365 110.15355301752712 L 1428.2858251213504 110.24491808141282 L 1428.1253273769546 110.33556215180788 L 1427.9628325340893 110.42547616438078 L 1427.7983568421039 110.5146511278052 L 1427.63191674843 110.60307812465909 L 1427.4635288969384 110.69074831231649 L 1427.2932101262743 110.77765292383165 L 1427.1209774681724 110.86378326881588 L 1426.9468481457552 110.94913073430642 L 1426.7708395718096 111.03368678562788 L 1426.5929693470466 111.11744296724555 L 1426.4132552583405 111.2003909036111 L 1426.2317152769501 111.2825223 L 1426.0483675567225 111.36382894334106 L 1425.8632304322766 111.44430270303769 L 1425.6763224171711 111.52393553178099 L 1425.4876622020513 111.60271946635444 L 1425.297268652782 111.68064662843025 L 1425.1051608085586 111.75770922535715 L 1424.9113578800063 111.83389955093965 L 1424.715879247256 111.9092099862087 L 1424.5187444580083 111.9836330001835 L 1424.3199732255775 112.05716115062472 L 1424.1195854269217 112.12978708477856 L 1423.9176011006534 112.20150354011211 L 1423.714040445037 112.27230334503965 L 1423.5089238159685 112.34217941963963 L 1423.3022717249398 112.41112477636287 L 1423.094104836988 112.47913252073111 L 1422.884443968628 112.54619585202661 L 1422.6733100857723 112.61230806397214 L 1422.460724301633 112.67746254540155 L 1422.2467078746115 112.74165278092104 L 1422.0312822061721 112.80487235156053 L 1421.8144688387022 112.86711493541566 L 1421.5962894533577 112.92837430827987 L 1421.3767658678955 112.98864434426694 L 1421.1559200344911 113.04791901642352 L 1420.933774037544 113.10619239733178 L 1420.7103500914686 113.16345865970217 L 1420.4856705384732 113.21971207695618 L 1420.259757846326 113.27494702379899 L 1420.032634606108 113.32915797678191 L 1419.804323529954 113.38233951485485 L 1419.5748474487812 113.43448631990829 L 1419.3442293100065 113.48559317730519 L 1419.1124921752519 113.53565497640241 L 1418.8796592180372 113.58466671106174 L 1418.6457537214646 113.63262348015058 L 1418.4107990758887 113.67952048803197 L 1418.1748187765781 113.7253530450442 L 1417.9378364213662 113.77011656796977 L 1417.699875708291 113.81380658049369 L 1417.4609604332256 113.85641871365111 L 1417.2211144874982 113.89794870626423 L 1416.9803618555038 113.93839240536839 L 1416.7387266123048 113.9777457666274 L 1416.4962329212242 114.0160048547379 L 1416.252905031429 114.05316584382298 L 1416.0087672755055 114.0892250178147 L 1415.7638440670255 114.12417877082571 L 1415.5181598981062 114.15802360750982 L 1415.2717393369596 114.19075614341159 L 1415.0246070254364 114.2223731053047 L 1414.7767876765618 114.25287133151929 L 1414.5283060720642 114.28224777225817 L 1414.2791870598971 114.31049948990176 L 1414.029455551754 114.3376236593018 L 1413.7791365205774 114.36361756806399 L 1413.5282549980623 114.38847861681909 L 1413.2768360721514 114.41220431948295 L 1413.0249048845283 114.43479230350509 L 1412.7724866281012 114.45624031010593 L 1412.519606544486 114.47654619450265 L 1412.2662899214797 114.49570792612376 L 1412.012562090534 114.51372358881206 L 1411.7584484242204 114.5305913810163 L 1411.5039743336938 114.5463096159713 L 1411.2491652661513 114.56087672186668 L 1410.9940467022868 114.57429124200398 L 1410.7386441537449 114.58655183494237 L 1410.4829831605668 114.59765727463277 L 1410.2270892886395 114.60760645054046 L 1409.9709881271365 114.61639836775615 L 1409.7147052859605 114.62403214709545 L 1409.4582663931822 114.63050702518677 L 1409.2016970924772 114.6358223545477 L 1408.9450230405619 114.63997760364975 L 1408.688269904627 114.64297235697146 L 1408.431463359773 114.64480631504 L 1408.1746290864398 114.64547929446107 L 1407.9177927678406 114.64499122793733 L 1407.660980087394 114.64334216427498 L 1407.404216726153 114.64053226837903 L 1407.1475283602404 114.63656182123674 L 1406.8909406582789 114.63143121988952 L 1406.6344792788245 114.62514097739319 L 1406.378169867802 114.6176917227668 L 1406.1220380559382 114.60908420092959 L 1405.8661094562015 114.59931927262656 L 1405.610409661238 114.58839791434241 L 1405.3549642408145 114.57632121820387 L 1405.0997987392602 114.5630903918705 L 1404.8449386729126 114.54870675841389 L 1404.5904095275657 114.53317175618541 L 1404.336236755922 114.51648693867233 L 1404.082445775047 114.4986539743425 L 1403.8290619638274 114.47967464647749 L 1403.576110660433 114.45955085299428 L 1403.3236171597832 114.43828460625544 L 1403.071606711018 114.41587803286792 L 1402.820104514972 114.3923333734704 L 1402.5691357216554 114.36765298250918 L 1402.318725427738 114.3418393280028 L 1402.068898674041 114.3148949912952 L 1401.8196804430313 114.2868226667976 L 1401.5710956563246 114.25762516171906 L 1401.3231691721921 114.22730539578573 L 1401.0759257830757 114.19586640094897 L 1400.8293902131084 114.16331132108203 L 1400.5835871156416 114.12964341166581 L 1400.3385410707804 114.09486603946317 L 1400.0942765829247 114.05898268218235 L 1399.8508180783203 114.02199692812917 L 1399.6081899026142 113.98391247584823 L 1399.3664163184221 113.944733133753 L 1399.1255215029012 113.90446281974506 L 1398.8855295453316 113.86310556082225 L 1398.6464644447096 113.82066549267599 L 1398.408350107346 113.77714685927774 L 1398.1712103444759 113.73255401245454 L 1397.9350688698783 113.68689141145396 L 1397.6999492975035 113.64016362249802 L 1397.4658751391128 113.59237531832667 L 1397.2328698019273 113.54353127773052 L 1397.0009565862865 113.49363638507293 L 1396.7701586833184 113.44269562980158 L 1396.5404991726214 113.39071410594954 L 1396.3120010199548 113.33769701162588 L 1396.0846870749435 113.28364964849587 L 1395.858580068793 113.22857742125075 L 1395.6337026120148 113.17248583706737 L 1395.4100771921676 113.1153805050574 L 1395.1877261716072 113.05726713570647 L 1394.96667178525 112.99815154030306 L 1394.7469361383505 112.93803963035747 L 1394.5285412042904 112.8769374170106 L 1394.3115088223813 112.81485101043285 L 1394.09586069568 112.75178661921315 L 1393.8816183888198 112.68775054973807 L 1393.6688033258529 112.6227492055612 L 1393.457436788108 112.55678908676278 L 1393.247539912063 112.48987678929971 L 1393.0391336872303 112.42201900434601 L 1392.8322389540592 112.3532225176236 L 1392.62687640185 112.28349420872384 L 1392.4230665666873 112.2128410504195 L 1392.2208298293845 112.14127010796754 L 1392.020186413447 112.06878853840256 L 1391.821156383049 111.99540358982111 L 1391.6237596410274 111.9211226006569 L 1391.4280159268926 111.84595299894696 L 1391.2339448148523 111.76990230158879 L 1391.0415657118565 111.69297811358877 L 1390.8508978556547 111.6151881273016 L 1390.6619603128738 111.53654012166106 L 1390.4747719771108 111.45704196140221 L 1390.289351567043 111.3767015962748 L 1390.105717624557 111.2955270602484 L 1389.923888512894 111.21352647070897 L 1389.743882414814 111.13070802764713 L 1389.5657173307764 111.04708001283818 L 1389.3894110771412 110.96265078901389 L 1389.2149812843868 110.8774287990263 L 1389.0424453953472 110.79142256500339 L 1388.8718206634676 110.70464068749688 L 1388.7031241510788 110.61709184462221 L 1388.5363727276917 110.52878479119072 L 1388.3715830683095 110.43972835783416 L 1388.208771651761 110.34993145012163 L 1388.047954759052 110.2594030476691 L 1387.8891484717376 110.16815220324135 L 1387.7323686703146 110.0761880418468 L 1387.5776310326323 109.98351975982494 L 1387.4249510323255 109.89015662392677 L 1387.2743439372668 109.79610797038806 L 1387.1258248080408 109.70138320399579 L 1386.979408496436 109.60599179714767 L 1386.835109643962 109.50994328890488 L 1386.6929426803833 109.4132472840382 L 1386.5529218222784 109.31591345206758 L 1386.415061071616 109.21795152629505 L 1386.2793742143565 109.11937130283158 L 1386.1458748190723 109.02018263961737 L 1386.0145762355921 108.92039545543608 L 1385.8854915936645 108.82001972892296 L 1385.758633801646 108.71906549756703 L 1385.6340155452106 108.6175428567073 L 1385.5116492860795 108.51546195852325 L 1385.391547260777 108.41283301101961 L 1385.2737214794056 108.30966627700563 L 1385.158183724445 108.20597207306875 L 1385.0449455495745 108.10176076854292 L 1384.9340182785174 107.99704278447177 L 1384.8254130039081 107.89182859256644 L 1384.7191405861838 107.78612871415844 L 1384.6152116524975 107.67995371914753 L 1384.5136365956562 107.57331422494474 L 1384.4144255730805 107.4662208954106 L 1384.3175885057906 107.35868443978885 L 1384.223135077412 107.2507156116354 L 1384.131074733209 107.14232520774314 L 1384.0414166791395 107.0335240670621 L 1383.954169880934 106.92432306961568 L 1383.8693430631995 106.81473313541265 L 1383.7869447085475 106.70476522335508 L 1383.7069830567443 106.59443033014256 L 1383.6294661038887 106.48373948917244 L 1383.5544016016115 106.37270376943658 L 1383.4817970563001 106.26133427441445 L 1383.4116597283487 106.14964214096271 L 1383.3439966314315 106.03763853820165 L 1383.278814531802 105.92533466639821 L 1383.2161199476159 105.81274175584596 L 1383.155919148279 105.69987106574217 L 1383.0982181538216 105.58673388306175 L 1383.0430227342947 105.47334152142872 L 1382.9903384091942 105.35970531998473 L 1382.9401704469087 105.24583664225523 L 1382.892523864193 105.1317468750131 L 1382.8474034256653 105.01744742714001 L 1382.804813643332 104.90294972848548 L 1382.7647587761357 104.78826522872397 L 1382.72724282953 104.67340539620987 L 1382.6922695550782 104.55838171683074 L 1382.6598424500785 104.44320569285864 L 1382.6299647572143 104.3278888418 L 1382.6026394642304 104.21244269524384 L 1382.5778693036327 104.09687879770858 L 1382.5556567524172 103.9812087054877 L 1382.53600403182 103.86544398549403 L 1382.5189131070974 103.74959621410306 L 1382.5043856873272 103.63367697599544 L 1382.4924232252392 103.51769786299836 L 1382.4830269170698 103.40167047292647 L 1382.476197702442 103.28560640842208 L 1382.4719362642718 103.16951727579495 L 1382.470243028699 103.05341468386156" stroke-miterlimit="10" stroke-width="2.990598758" stroke-dasharray=""/></g><g><text fill="black" stroke="none" font-family="sans-serif" font-size="11pt" font-style="normal" font-weight="normal" text-decoration="normal" x="1375.1584868663426" y="133.521438666" text-anchor="start" dominant-baseline="alphabetic" xml:space="preserve">items.json</text></g></g><g><path fill="white" stroke="black" paint-order="fill stroke markers" d=" M 285.91833711334635 147.594844586 L 303.51009451334636 147.594844586 L 303.51009451334636 209.165995486 L 285.91833711334635 209.165995486 L 285.91833711334635 147.594844586" stroke-miterlimit="10" stroke-width="1.4659797833333332" stroke-dasharray=""/><path fill="white" stroke="black" paint-order="fill stroke markers" d=" M 441.10437408697135 196.851765306 L 458.69613148697135 196.851765306 L 458.69613148697135 930.4280488859999 L 441.10437408697135 930.4280488859999 L 441.10437408697135 196.851765306" stroke-miterlimit="10" stroke-width="1.4659797833333332" stroke-dasharray=""/><path fill="white" stroke="black" paint-order="fill stroke markers" d=" M 624.80508238628 196.851765306 L 642.39683978628 196.851765306 L 642.39683978628 356.93675764599993 L 624.80508238628 356.93675764599993 L 624.80508238628 196.851765306" stroke-miterlimit="10" stroke-width="1.4659797833333332" stroke-dasharray=""/><path fill="white" stroke="black" paint-order="fill stroke markers" d=" M 1062.2086584385834 393.87944818599993 L 1079.8004158385834 393.87944818599993 L 1079.8004158385834 759.7880021059999 L 1062.2086584385834 759.7880021059999 L 1062.2086584385834 393.87944818599993" stroke-miterlimit="10" stroke-width="1.4659797833333332" stroke-dasharray=""/><path fill="white" stroke="black" paint-order="fill stroke markers" d=" M 1241.818431984474 460.7281263059999 L 1259.410189384474 460.7281263059999 L 1259.410189384474 692.939323986 L 1241.818431984474 692.939323986 L 1241.818431984474 460.7281263059999" stroke-miterlimit="10" stroke-width="1.4659797833333332" stroke-dasharray=""/><g><g><rect fill="white" stroke="none" x="50.389448727825524" y="173.982480686" width="214.7119754621875" height="22.86928462"/></g><text fill="black" stroke="none" font-family="sans-serif" font-size="11pt" font-style="normal" font-weight="normal" text-decoration="normal" x="53.02821233782552" y="189.81506234600002" text-anchor="start" dominant-baseline="alphabetic" xml:space="preserve">Navigate to Manage Items Page</text></g><g><path fill="none" stroke="black" paint-order="fill stroke markers" d=" M 29.572535804492187 196.851765306 L 271.43445685401304 196.851765306" stroke-miterlimit="10" stroke-width="1.4659797833333332" stroke-dasharray=""/><g transform="translate(285.91833711334635,196.851765306) translate(-285.91833711334635,-196.851765306)"><path fill="black" stroke="none" paint-order="stroke fill markers" d=" M 271.258539280013 189.52186638933333 L 285.91833711334635 196.851765306 L 271.258539280013 204.18166422266668 Z"/></g></g><g><g><rect fill="white" stroke="none" x="172.8178172512591" y="223.23940140599998" width="125.04127538894531" height="22.86928462"/></g><text fill="black" stroke="none" font-family="sans-serif" font-size="11pt" font-style="normal" font-weight="normal" text-decoration="normal" x="175.4565808612591" y="239.071983066" text-anchor="start" dominant-baseline="alphabetic" xml:space="preserve">Click Update Item </text></g><g><path fill="none" stroke="black" paint-order="fill stroke markers" d=" M 29.572535804492187 246.108686026 L 426.62049382763803 246.108686026" stroke-miterlimit="10" stroke-width="1.4659797833333332" stroke-dasharray=""/><g transform="translate(441.10437408697135,246.108686026) translate(-441.10437408697135,-246.108686026)"><path fill="black" stroke="none" paint-order="stroke fill markers" d=" M 426.444576253638 238.7787871093333 L 441.10437408697135 246.108686026 L 426.444576253638 253.43858494266667 Z"/></g></g><g><g><rect fill="white" stroke="none" x="233.69826173294467" y="272.496322126" width="186.9810947248828" height="22.86928462"/></g><text fill="black" stroke="none" font-family="sans-serif" font-size="11pt" font-style="normal" font-weight="normal" text-decoration="normal" x="236.33702534294468" y="288.328903786" text-anchor="start" dominant-baseline="alphabetic" xml:space="preserve">Enter price, quantity; submit</text></g><g><path fill="none" stroke="black" paint-order="fill stroke markers" d=" M 29.572535804492187 295.36560674599997 L 610.3212021269467 295.36560674599997" stroke-miterlimit="10" stroke-width="1.4659797833333332" stroke-dasharray=""/><g transform="translate(624.80508238628,295.36560674599997) translate(-624.80508238628,-295.36560674599997)"><path fill="black" stroke="none" paint-order="stroke fill markers" d=" M 610.1452845529467 288.0357078293333 L 624.80508238628 295.36560674599997 L 610.1452845529467 302.6955056626666 Z"/></g></g><g><g><rect fill="white" stroke="none" x="486.16269324117644" y="321.753242846" width="111.17582739089843" height="22.86928462"/></g><text fill="black" stroke="none" font-family="sans-serif" font-size="11pt" font-style="normal" font-weight="normal" text-decoration="normal" x="488.80145685117645" y="337.585824506" text-anchor="start" dominant-baseline="alphabetic" xml:space="preserve">emit(form.value)</text></g><g><path fill="none" stroke="black" paint-order="fill stroke markers" d=" M 624.80508238628 344.62252746599995 L 473.1800117463047 344.62252746599995" stroke-miterlimit="10" stroke-width="1.4659797833333332" stroke-dasharray=""/><g transform="translate(458.69613148697135,344.62252746599995) translate(-458.69613148697135,-344.62252746599995)"><path fill="black" stroke="none" paint-order="stroke fill markers" d=" M 473.3559293203047 337.2926285493333 L 458.69613148697135 344.62252746599995 L 473.3559293203047 351.9524263826666 Z"/></g></g><g><g><rect fill="white" stroke="none" x="577.0995930030379" y="371.01016356599996" width="116.086365110625" height="22.86928462"/></g><text fill="black" stroke="none" font-family="sans-serif" font-size="11pt" font-style="normal" font-weight="normal" text-decoration="normal" x="579.7383566130378" y="386.842745226" text-anchor="start" dominant-baseline="alphabetic" xml:space="preserve">updateItem(item)</text></g><g><path fill="none" stroke="black" paint-order="fill stroke markers" d=" M 458.69613148697135 393.87944818599993 L 797.105539370396 393.87944818599993" stroke-miterlimit="10" stroke-width="1.4659797833333332" stroke-dasharray=""/><g transform="translate(811.5894196297293,393.87944818599993) translate(-811.5894196297293,-393.87944818599993)"><path fill="black" stroke="none" paint-order="stroke fill markers" d=" M 796.929621796396 386.5495492693333 L 811.5894196297293 393.87944818599993 L 796.929621796396 401.2093471026666 Z"/></g></g><g><g><rect fill="white" stroke="none" x="832.4063325530626" y="420.26708428599994" width="102.22810400222656" height="22.86928462"/></g><g><rect fill="white" stroke="none" x="832.4063325530626" y="437.85884168599995" width="208.9854129621875" height="22.86928462"/></g><text fill="black" stroke="none" font-family="sans-serif" font-size="11pt" font-style="normal" font-weight="normal" text-decoration="normal" x="835.0450961630626" y="436.09966594599996" text-anchor="start" dominant-baseline="alphabetic" xml:space="preserve">PUT /inventory</text><text fill="black" stroke="none" font-family="sans-serif" font-size="11pt" font-style="normal" font-weight="normal" text-decoration="normal" x="835.0450961630626" y="453.69142334599997" text-anchor="start" dominant-baseline="alphabetic" xml:space="preserve">    - Item {name, price, quantity}</text></g><g><path fill="none" stroke="black" paint-order="fill stroke markers" d=" M 811.5894196297293 460.7281263059999 L 1047.72477817925 460.7281263059999" stroke-miterlimit="10" stroke-width="1.4659797833333332" stroke-dasharray=""/><g transform="translate(1062.2086584385834,460.7281263059999) translate(-1062.2086584385834,-460.7281263059999)"><path fill="black" stroke="none" paint-order="stroke fill markers" d=" M 1047.54886060525 453.3982273893333 L 1062.2086584385834 460.7281263059999 L 1047.54886060525 468.0580252226666 Z"/></g></g><g><g><rect fill="white" stroke="none" x="1102.7662413562161" y="487.11576240599993" width="116.086365110625" height="22.86928462"/></g><text fill="black" stroke="none" font-family="sans-serif" font-size="11pt" font-style="normal" font-weight="normal" text-decoration="normal" x="1105.4050049662162" y="502.94834406599995" text-anchor="start" dominant-baseline="alphabetic" xml:space="preserve">updateItem(item)</text></g><g><path fill="none" stroke="black" paint-order="fill stroke markers" d=" M 1079.8004158385834 509.9850470259999 L 1227.3345517251407 509.9850470259999" stroke-miterlimit="10" stroke-width="1.4659797833333332" stroke-dasharray=""/><g transform="translate(1241.818431984474,509.9850470259999) translate(-1241.818431984474,-509.9850470259999)"><path fill="black" stroke="none" paint-order="stroke fill markers" d=" M 1227.1586341511406 502.65514810933325 L 1241.818431984474 509.9850470259999 L 1227.1586341511406 517.3149459426666 Z"/></g></g><g><g><rect fill="white" stroke="none" x="1280.2271023078074" y="536.372683126" width="121.769958860625" height="22.86928462"/></g><text fill="black" stroke="none" font-family="sans-serif" font-size="11pt" font-style="normal" font-weight="normal" text-decoration="normal" x="1282.8658659178075" y="552.2052647859999" text-anchor="start" dominant-baseline="alphabetic" xml:space="preserve">items.put(id, item)</text></g><g><path fill="none" stroke="black" paint-order="fill stroke markers" d=" M 1259.410189384474 559.2419677459999 L 1329.777218984474 559.2419677459999 L 1329.777218984474 582.1112523659999 L 1273.8940696438074 582.1112523659999" stroke-miterlimit="10" stroke-width="1.4659797833333332" stroke-dasharray=""/><g transform="translate(1259.410189384474,582.1112523659999) translate(-1259.410189384474,-582.1112523659999)"><path fill="black" stroke="none" paint-order="stroke fill markers" d=" M 1274.0699872178075 574.7813534493332 L 1259.410189384474 582.1112523659999 L 1274.0699872178075 589.4411512826666 Z"/></g></g><g><g><rect fill="white" stroke="none" x="1310.778367941922" y="608.4988884659999" width="46.007629759062496" height="22.86928462"/></g><text fill="black" stroke="none" font-family="sans-serif" font-size="11pt" font-style="normal" font-weight="normal" text-decoration="normal" x="1313.417131551922" y="624.3314701259999" text-anchor="start" dominant-baseline="alphabetic" xml:space="preserve">save()</text></g><g><path fill="none" stroke="black" paint-order="fill stroke markers" d=" M 1259.410189384474 631.368173086 L 1393.6702959990992 631.368173086" stroke-miterlimit="10" stroke-width="1.4659797833333332" stroke-dasharray=""/><g transform="translate(1408.1541762584325,631.368173086) translate(-1408.1541762584325,-631.368173086)"><path fill="black" stroke="none" paint-order="stroke fill markers" d=" M 1393.494378425099 624.0382741693332 L 1408.1541762584325 631.368173086 L 1393.494378425099 638.6980720026667 Z"/></g></g><g><g><rect fill="white" stroke="none" x="1123.1384642566068" y="657.755809186" width="75.34191930984375" height="22.86928462"/></g><text fill="black" stroke="none" font-family="sans-serif" font-size="11pt" font-style="italic" font-weight="normal" text-decoration="normal" x="1125.7772278666068" y="673.5883908459999" text-anchor="start" dominant-baseline="alphabetic" xml:space="preserve">return item</text></g><g><path fill="none" stroke="black" paint-order="fill stroke markers" d=" M 1241.818431984474 680.625093806 L 1094.2842960979167 680.625093806" stroke-miterlimit="10" stroke-width="1.4659797833333332" stroke-dasharray=""/><g transform="translate(1079.8004158385834,680.625093806) translate(-1079.8004158385834,-680.625093806)"><path fill="black" stroke="none" paint-order="stroke fill markers" d=" M 1094.4602136719168 673.2951948893333 L 1079.8004158385834 680.625093806 L 1094.4602136719168 687.9549927226667 Z"/></g></g><g><g><rect fill="white" stroke="none" x="891.4864869720079" y="707.0127299059999" width="72.08497656082031" height="22.86928462"/></g><g><rect fill="white" stroke="none" x="891.4864869720079" y="724.6044873059999" width="90.82510412429687" height="22.86928462"/></g><text fill="black" stroke="none" font-family="sans-serif" font-size="11pt" font-style="italic" font-weight="normal" text-decoration="normal" x="894.1252505820079" y="722.8453115659999" text-anchor="start" dominant-baseline="alphabetic" xml:space="preserve">HTTP 200</text><text fill="black" stroke="none" font-family="sans-serif" font-size="11pt" font-style="normal" font-weight="normal" text-decoration="normal" x="894.1252505820079" y="740.4370689659999" text-anchor="start" dominant-baseline="alphabetic" xml:space="preserve">    Body: item</text></g><g><path fill="none" stroke="black" paint-order="fill stroke markers" d=" M 1062.2086584385834 747.4737719259999 L 826.0732998890626 747.4737719259999" stroke-miterlimit="10" stroke-width="1.4659797833333332" stroke-dasharray="7.0367029599999995"/><g transform="translate(811.5894196297293,747.4737719259999) translate(-811.5894196297293,-747.4737719259999)"><path fill="black" stroke="none" paint-order="stroke fill markers" d=" M 826.2492174630626 740.1438730093332 L 811.5894196297293 747.4737719259999 L 826.2492174630626 754.8036708426666 Z"/></g></g><g><g><rect fill="white" stroke="none" x="551.0187137916121" y="773.8614080259999" width="168.24812353347656" height="22.86928462"/></g><text fill="black" stroke="none" font-family="sans-serif" font-size="11pt" font-style="italic" font-weight="normal" text-decoration="normal" x="553.657477401612" y="789.6939896859999" text-anchor="start" dominant-baseline="alphabetic" xml:space="preserve">return Observable&lt;Item&gt;</text></g><g><path fill="none" stroke="black" paint-order="fill stroke markers" d=" M 811.5894196297293 796.730692646 L 473.1800117463047 796.730692646" stroke-miterlimit="10" stroke-width="1.4659797833333332" stroke-dasharray="7.0367029599999995"/><g transform="translate(458.69613148697135,796.730692646) translate(-458.69613148697135,-796.730692646)"><path fill="black" stroke="none" paint-order="stroke fill markers" d=" M 473.3559293203047 789.4007937293333 L 458.69613148697135 796.730692646 L 473.3559293203047 804.0605915626667 Z"/></g></g><g><g><rect fill="white" stroke="none" x="479.5130444103047" y="823.118328746" width="134.83367956375" height="22.86928462"/></g><text fill="black" stroke="none" font-family="sans-serif" font-size="11pt" font-style="normal" font-weight="normal" text-decoration="normal" x="482.1518080203047" y="838.9509104059999" text-anchor="start" dominant-baseline="alphabetic" xml:space="preserve">Update in Items List</text></g><g><path fill="none" stroke="black" paint-order="fill stroke markers" d=" M 458.69613148697135 845.9876133659999 L 529.0631610869714 845.9876133659999 L 529.0631610869714 868.8568979859999 L 473.1800117463047 868.8568979859999" stroke-miterlimit="10" stroke-width="1.4659797833333332" stroke-dasharray=""/><g transform="translate(458.69613148697135,868.8568979859999) translate(-458.69613148697135,-868.8568979859999)"><path fill="black" stroke="none" paint-order="stroke fill markers" d=" M 473.3559293203047 861.5269990693332 L 458.69613148697135 868.8568979859999 L 473.3559293203047 876.1867969026666 Z"/></g></g><g><g><rect fill="white" stroke="none" x="169.9473796291888" y="895.2445340859999" width="130.78215063308593" height="22.86928462"/></g><text fill="black" stroke="none" font-family="sans-serif" font-size="11pt" font-style="normal" font-weight="normal" text-decoration="normal" x="172.5861432391888" y="911.0771157459999" text-anchor="start" dominant-baseline="alphabetic" xml:space="preserve">Show updated item</text></g><g><path fill="none" stroke="black" paint-order="fill stroke markers" d=" M 441.10437408697135 918.113818706 L 44.05641606382552 918.113818706" stroke-miterlimit="10" stroke-width="1.4659797833333332" stroke-dasharray=""/><g transform="translate(29.572535804492187,918.113818706) translate(-29.572535804492187,-918.113818706)"><path fill="black" stroke="none" paint-order="stroke fill markers" d=" M 44.23233363782552 910.7839197893333 L 29.572535804492187 918.113818706 L 44.23233363782552 925.4437176226667 Z"/></g></g></g></g></svg>